<svg width="1012" height="449" fill="none" xmlns="http://www.w3.org/2000/svg"><g filter="url(#a)"><path d="m245.62 90.625-4.949-4.95a7 7 0 0 0-2.051 4.95h7zm18.688-10.563.046-7a6.995 6.995 0 0 0-2.087.305l2.041 6.695zm38.312 12.25 6.641 2.214a7.001 7.001 0 0 0-2.944-8.158l-3.697 5.945zm-.812 2.438-6.641-2.214a7 7 0 0 0 3.039 8.216l3.602-6.002zm-4.938 33.375-4.443-5.409a7.001 7.001 0 0 0 .047 10.856l4.396-5.447zm4.125 47.25-5.553-4.261a6.972 6.972 0 0 0-.898 1.545l6.451 2.716zm-35.062 18.75.701-6.965a7.009 7.009 0 0 0-2.69.253l1.989 6.712zm-33.375-4.875-6.944-.886a6.999 6.999 0 0 0 3.349 6.892l3.595-6.006zm1.625-5.75 6.396 2.843c.165-.37.297-.753.395-1.145l-6.791-1.698zm1.625-6.5 6.791 1.698a6.993 6.993 0 0 0 .209-1.698h-7zm0-5.688-6.641-2.213a6.997 6.997 0 0 0-.359 2.213h7zm.812-2.437 6.641 2.214a7.003 7.003 0 0 0 .359-2.214h-7zm0-6.5-6.434-2.757a7.004 7.004 0 0 0-.566 2.757h7zm1.625-8.187-6.261-3.131a6.996 6.996 0 0 0-.736 2.944l6.997.187zm1.625-3.25 6.261 3.13a7 7 0 0 0 .739-3.13h-7zm0-3.25h7a7.005 7.005 0 0 0-1.235-3.972l-5.765 3.972zm-1.625-12.25-6.387-2.864c-.09.2-.17.405-.241.612l6.628 2.252zm6.5-34.188-6.918-1.064a7.02 7.02 0 0 0-.082 1.064h7zm.875-5.688 6.919 1.065c.054-.352.081-.708.081-1.064h-7zm34.188 30.938 2.1 6.678a7.005 7.005 0 0 0 3.747-2.829l-5.847-3.849zm-14.688-21.188-.224-6.996a7 7 0 0 0-6.635 5.601l6.859 1.395zm-.812 8.938 6.931.979c.042-.297.065-.596.068-.896l-6.999-.083zm-.813 5.75-6.931-.979a6.963 6.963 0 0 0-.069.979h7zm0 4.875 6.641 2.214a7.003 7.003 0 0 0 .359-2.214h-7zm-.812 2.437-6.641-2.213a6.997 6.997 0 0 0-.359 2.213h7zm0 2.438h-7a7 7 0 0 0 7.122 6.999l-.122-6.999zm19.562 35.875-5.538-4.281a7.049 7.049 0 0 0-.587.893l6.125 3.388zm2.438-19.563 6.483-2.638a6.999 6.999 0 0 0-8.91-3.927l2.427 6.565zm-19.563 3.25-.04-6.999a6.98 6.98 0 0 0-2.173.359l2.213 6.64zm-4.875 1.626-2.213-6.641a7.002 7.002 0 0 0-4.332 4.158l6.545 2.483zm-1.625 21.187-5.111 4.783a7.005 7.005 0 0 0 2.071 1.522l3.04-6.305zm-8.05-76.55c3.686-3.686 8.832-6.7 15.779-8.817l-4.082-13.391c-8.636 2.632-15.949 6.661-21.596 12.308l9.899 9.9zm13.691-8.513c10.993.073 22.517 3.643 34.663 11.195l7.393-11.889c-13.854-8.614-27.872-13.212-41.963-13.305l-.093 14zM295.98 90.1l-.813 2.437 13.282 4.428.812-2.438L295.98 90.1zm2.226 10.653c5.667 3.401 5.99 5.92 5.755 7.505-.416 2.813-3.241 7.646-11.534 14.459l8.887 10.818c8.748-7.187 15.267-14.917 16.497-23.228 1.411-9.54-4.319-16.709-12.402-21.558l-7.203 12.004zm-5.732 32.82c7.37 5.948 10.453 11.651 10.923 17.037.48 5.494-1.617 12.244-7.955 20.505l11.107 8.522c7.537-9.823 11.69-19.989 10.795-30.245-.905-10.364-6.822-19.244-16.078-26.713l-8.792 10.894zm2.07 39.087c-2.486 5.904-5.916 9.672-10.115 11.918-4.284 2.291-10.058 3.363-17.795 2.583l-1.403 13.93c9.638.97 18.396-.208 25.8-4.167 7.487-4.004 12.902-10.486 16.416-18.832l-12.903-5.432zm-30.6 14.754c-9.186 2.722-18.298 1.512-27.791-4.169l-7.19 12.012c12.507 7.486 25.645 9.525 38.958 5.581l-3.977-13.424zm-24.443 2.723a13.533 13.533 0 0 1 1.078-3.793l-12.793-5.686a27.502 27.502 0 0 0-2.172 7.707l13.887 1.772zm1.473-4.938 1.625-6.5-13.582-3.396-1.625 6.5 13.582 3.396zm1.834-8.198v-5.688h-14V177h14zm-.359-3.474.812-2.437-13.281-4.428-.813 2.438 13.282 4.427zm1.171-4.651v-6.5h-14v6.5h14zm-.566-3.743c1.419-3.311 2.087-6.946 2.189-10.758l-13.995-.373c-.065 2.438-.481 4.261-1.062 5.617l12.868 5.514zm1.452-7.814 1.625-3.25-12.522-6.261-1.625 3.25 12.522 6.261zm2.364-6.38v-3.25h-14v3.25h14zm-1.235-7.222c-1.293-1.877-1.571-3.645-.762-6.027l-13.256-4.503c-2.191 6.451-1.385 12.85 2.489 18.473l11.529-7.943zm-1.002-5.415c4.821-10.756 7.112-23.168 7.112-37.051h-14c0 12.367-2.042 22.746-5.887 31.324l12.775 5.727zm7.031-35.987.875-5.687-13.837-2.129-.875 5.688 13.837 2.128zm.956-6.751v-4.938h-14v4.938h14zm33.035 34.786c2.656-4.035 4.671-8.06 5.531-11.962.889-4.028.626-8.423-2.016-12.234-2.531-3.652-6.451-5.6-10.377-6.636-3.96-1.045-8.671-1.368-13.897-1.2l.449 13.992c4.524-.145 7.737.18 9.876.744 2.173.574 2.527 1.196 2.443 1.076-.194-.281.166-.184-.149 1.242-.342 1.551-1.356 3.94-3.554 7.28l11.694 7.698zm-27.394-26.432c-.615 3.022-.908 6.467-.953 10.25l13.999.166c.039-3.217.287-5.731.673-7.625l-13.719-2.791zm-.884 9.354-.813 5.75 13.862 1.958.813-5.75-13.862-1.958zm-.882 6.729v2.438h14V120h-14zm0 2.438v2.437h14v-2.437h-14zm.36.223-.813 2.438 13.282 4.427.812-2.437-13.281-4.428zm-1.172 4.651v2.438h14v-2.438h-14zm7.122 9.437c5.69-.099 12.098-1.369 19.103-3.571l-4.2-13.356c-6.245 1.964-11.254 2.861-15.147 2.929l.244 13.998zm24.978 33.157c6.145-7.948 7.192-17.124 3.383-26.482l-12.967 5.277c2.025 4.976 1.447 8.841-1.492 12.643l11.076 8.562zm-5.527-30.409c-4.856 1.794-10.548 2.778-17.176 2.816l.08 13.999c7.956-.045 15.306-1.228 21.949-3.684l-4.853-13.131zm-19.349 3.175-2.438.812 4.427 13.282 2.438-.813-4.427-13.281zm-2.438.812-2.437.813 4.427 13.281 2.437-.812-4.427-13.282zm-6.769 4.971c-2.168 5.717-3.59 10.914-3.934 15.4-.334 4.357.265 9.337 3.743 13.053l10.222-9.566c.437.466-.214.29-.006-2.416.197-2.576 1.109-6.348 3.065-11.506l-13.09-4.965zm1.88 29.975c6.145 2.963 12.557 4.325 18.71 2.632 6.278-1.728 10.866-6.237 14.081-12.049l-12.251-6.776c-1.994 3.604-3.948 4.887-5.544 5.326-1.722.474-4.518.377-8.915-1.743l-6.081 12.61zm64.478-43.368 6.848 1.452c.18-.85.2-1.726.06-2.583l-6.908 1.131zm18.25-54.625-.126-6.998a7.023 7.023 0 0 0-.983.087l1.109 6.912zm41.75 14.75 6.531-2.517a6.994 6.994 0 0 0-2.416-3.145l-4.115 5.662zm-34.188 53.751-2.972-6.338a7 7 0 0 0-1.715 11.536l4.687-5.198zm3.813 3.437 6.218-3.215a6.997 6.997 0 0 0-1.531-1.984l-4.687 5.199zm11.375 13 4.26-5.554-.083-.063-4.177 5.617zm4.562 3.5-4.26 5.554c.234.179.479.344.733.492l3.527-6.046zm1.5.875-3.527 6.046c.098.058.197.112.298.165l3.229-6.211zm1.563.812 5.41-4.441a6.995 6.995 0 0 0-2.181-1.769l-3.229 6.21zm12.875 9.563 3.42-6.108a6.942 6.942 0 0 0-.531-.268l-2.889 6.376zm1.562.875 5.315-4.556a7.016 7.016 0 0 0-1.894-1.552L383.12 181zm1.5 1.75-5.314 4.556a6.994 6.994 0 0 0 2.886 2.009l2.428-6.565zm4.563 1.688 4.26-5.555a7.005 7.005 0 0 0-1.832-1.011l-2.428 6.566zm4.562 3.5-4.26 5.554c.234.179.479.343.733.492l3.527-6.046zm3 1.75 5.793-3.931a7 7 0 0 0-2.266-2.116l-3.527 6.047zm6.875 6.062 6.108-3.42a7.007 7.007 0 0 0-2.644-2.663l-3.464 6.083zm5.313 6.062-4.453 5.401c.082.069.167.135.253.2l4.2-5.601zm2.25 1.688-4.2 5.6c.215.162.44.311.673.446l3.527-6.046zm1.5.875 6.844-1.467a6.995 6.995 0 0 0-3.317-4.579l-3.527 6.046zm1.562 1.75 6.845-1.467a7.002 7.002 0 0 0-3.087-4.439l-3.758 5.906zm1.5 1.75h7a6.998 6.998 0 0 0-3.117-5.824l-3.883 5.824zm0 6.063 5.926 3.726a6.998 6.998 0 0 0 1.074-3.726h-7zM411.933 220l-1.222 6.893a6.999 6.999 0 0 0 7.147-3.167L411.933 220zm-9.875-1.75-3.792 5.884a7.01 7.01 0 0 0 2.57 1.009l1.222-6.893zm-12.125-7.812 3.791-5.885a6.99 6.99 0 0 0-1.471-.72l-2.32 6.605zm-2.313-.813-2.537 6.524c.072.028.144.055.217.08l2.32-6.604zm-2.25-.875-5.314 4.556a7.001 7.001 0 0 0 2.777 1.968l2.537-6.524zm-1.5-1.75 5.315-4.556a7.002 7.002 0 0 0-2.837-1.991L383.87 207zm-2.312-.875-4.058 5.704c.489.348 1.02.631 1.581.843l2.477-6.547zm-6.063-4.313 4.058-5.704a6.985 6.985 0 0 0-2.135-1.026l-1.923 6.73zm-3.062-.874-3.527 6.046a6.988 6.988 0 0 0 1.604.684l1.923-6.73zm-3-1.75-4.171 5.621c.207.154.421.295.644.425l3.527-6.046zM359.558 194l-4.556 5.315a7.03 7.03 0 0 0 2.038 1.217l2.518-6.532zm-3.063-2.625 4.556-5.315a6.995 6.995 0 0 0-1.128-.788l-3.428 6.103zm-4.562-2.563 3.428-6.103a6.876 6.876 0 0 0-.468-.24l-2.96 6.343zm-3.75-1.75-5.268 4.61a7 7 0 0 0 2.308 1.734l2.96-6.344zm-3.063-3.5 5.268-4.609a7.012 7.012 0 0 0-1.836-1.492l-3.432 6.101zm-3-1.687-6.291 3.07a7.01 7.01 0 0 0 2.859 3.031l3.432-6.101zm-3.812-7.813 6.291-3.069a7 7 0 0 0-12.331-.469l6.04 3.538zm-5.313 16.438 6.434 2.757a6.937 6.937 0 0 0 .473-1.62l-6.907-1.137zm-.75 1.75 5.482 4.353a6.987 6.987 0 0 0 .952-1.596l-6.434-2.757zm-3.062 5.188 1.873 6.744a7 7 0 0 0 4.513-3.877l-6.386-2.867zm-9.125-.813-6.845 1.467a7 7 0 0 0 3.994 4.926l2.851-6.393zm-1.5-1.75-6.998-.174a6.997 6.997 0 0 0 3.115 5.998l3.883-5.824zm-.75-19.063h-7c0 .19.008.38.023.569l6.977-.569zm0-12.187h7c0-.665-.095-1.328-.282-1.966l-6.718 1.966zm-.75-2.563 6.718-1.966a7 7 0 0 0-.809-1.786l-5.909 3.752zm-3.063-10.437-5.833-3.869a7.003 7.003 0 0 0-1.141 4.473l6.974-.604zm25.063-32.25h-7a6.999 6.999 0 0 0 9.835 6.4l-2.835-6.4zm2.25-15.937 1.749-6.778a7 7 0 0 0-8.656 5.642l6.907 1.136zm-2.25 13.687-6.907-1.135a6.962 6.962 0 0 0-.093 1.135h7zm-12.092 17.806c-2.688-16.413-2.333-28.008.169-35.494 1.213-3.632 2.862-6.092 4.737-7.752 1.85-1.64 4.268-2.81 7.544-3.336l-2.217-13.823c-5.556.891-10.524 3.059-14.611 6.68-4.064 3.6-6.904 8.322-8.732 13.795-3.582 10.721-3.518 25.022-.706 42.193l13.816-2.263zm11.467-46.495c12.117-.217 24.578 4.016 37.51 13.414l8.23-11.325c-14.818-10.769-30.19-16.37-45.991-16.086l.251 13.997zm35.093 10.27c3.375 8.753 2.641 16.204-1.765 23.131-4.672 7.345-13.898 14.743-28.863 21.763l5.945 12.675c16.035-7.522 28.006-16.353 34.731-26.924 6.99-10.99 7.849-23.144 3.015-35.681l-13.063 5.035zm-32.343 56.43 3.812 3.438 9.375-10.398-3.812-3.437-9.375 10.397zm2.282 1.454c3.092 5.982 7.636 11.103 13.415 15.402l8.355-11.234c-4.303-3.201-7.343-6.747-9.334-10.598l-12.436 6.43zm13.332 15.339 4.563 3.5 8.521-11.108-4.563-3.5-8.521 11.108zm5.296 3.992 1.5.875 7.054-12.092-1.5-.875-7.054 12.092zm1.798 1.04 1.562.812 6.459-12.421-1.562-.813-6.459 12.422zm-.618-.957c4.022 4.9 9.225 8.701 15.396 11.497l5.778-12.752c-4.496-2.037-7.877-4.611-10.354-7.628l-10.82 8.883zm14.865 11.229 1.562.875 6.841-12.216-1.563-.875-6.84 12.216zm-.332-.677 1.5 1.75 10.629-9.112-1.5-1.75-10.629 9.112zm4.386 3.759 4.563 1.688 4.856-13.131-4.562-1.687-4.857 13.13zm2.73.677 4.563 3.5 8.521-11.109-4.563-3.5-8.521 11.109zm5.296 3.992 1.5.875 7.054-12.093-1.5-.875-7.054 12.093zm1.5.875 1.5.875 7.054-12.093-1.5-.875-7.054 12.093zm-.765-1.241c2.304 3.396 5.478 6.093 9.203 8.215l6.928-12.166c-2.274-1.295-3.684-2.639-4.546-3.91l-11.585 7.861zm6.56 5.552c1.693 3.024 4.107 5.685 6.967 8.043l8.906-10.801c-1.89-1.559-3.018-2.94-3.658-4.082l-12.215 6.84zm7.22 8.242 2.25 1.688 8.4-11.2-2.25-1.687-8.4 11.199zm2.923 2.134 1.5.875 7.054-12.092-1.5-.875-7.054 12.092zm-1.818-3.704c.737 3.44 3.333 5.351 4.649 6.189l7.516-11.812c-.109-.069.088.035.386.369.304.341.879 1.111 1.138 2.32l-13.689 2.934zm1.563 1.75c.71 3.313 3.132 5.221 4.461 6.107l7.766-11.648c-.086-.058.112.057.401.393.296.347.819 1.083 1.061 2.214l-13.689 2.934zm1.344.283v6.063h14v-6.063h-14zm1.075 2.336-3.813 6.063 11.851 7.452 3.813-6.062-11.851-7.453zm3.334 2.896-9.875-1.75-2.443 13.786 9.875 1.75 2.443-13.786zm-7.305-.741-12.125-7.813-7.583 11.769 12.125 7.812 7.583-11.768zm-13.596-8.533-2.312-.812-4.641 13.208 2.312.813 4.641-13.209zm-2.096-.732-2.25-.875-5.074 13.048 2.25.875 5.074-13.048zm.528 1.093-1.5-1.75-10.629 9.112 1.5 1.75 10.629-9.112zm-4.337-3.741-2.313-.875-4.954 13.094 2.312.875 4.955-13.094zm-.733-.032-6.062-4.313-8.115 11.409 6.062 4.312 8.115-11.408zm-8.197-5.339-3.062-.875-3.846 13.461 3.062.875 3.846-13.461zm-1.458-.191-3-1.75-7.054 12.093 3 1.75 7.054-12.093zm-2.356-1.325c-3.227-2.395-7.122-4.399-11.529-6.098l-5.035 13.064c3.593 1.384 6.282 2.838 8.222 4.277l8.342-11.243zm-9.491-4.881-3.062-2.625-9.111 10.63 3.062 2.625 9.111-10.63zm-4.19-3.413-4.562-2.563-6.856 12.207 4.562 2.562 6.856-12.206zm-5.03-2.803-3.75-1.75-5.92 12.687 3.75 1.75 5.92-12.687zm-1.442-.016-3.063-3.5-10.536 9.219 3.063 3.5 10.536-9.219zm-4.899-4.992-3-1.687-6.864 12.202 3 1.688 6.864-12.203zm-.141 1.344-3.812-7.812-12.582 6.139 3.812 7.813 12.582-6.14zm-16.143-8.281c-2.999 5.118-4.972 11.506-6.18 18.839l13.814 2.274c1.043-6.334 2.611-10.904 4.446-14.036l-12.08-7.077zm-5.707 17.219-.75 1.75 12.868 5.514.75-1.75-12.868-5.514zm.203.154c-1.561 1.965-2.866 4.221-3.967 6.673l12.772 5.735c.732-1.631 1.469-2.834 2.158-3.702l-10.963-8.706zm.545 2.796c-1.296.36-2.669.311-4.4-.461l-5.702 12.786c4.435 1.978 9.145 2.471 13.849 1.164l-3.747-13.489zm-.407 4.465c-.709-3.313-3.132-5.221-4.461-6.107l-7.766 11.648c.086.058-.112-.057-.401-.393-.296-.347-.818-1.083-1.061-2.214l13.689-2.934zm-1.346-.109c.133-5.382-.135-12.005-.771-19.805l-13.954 1.137c.614 7.534.846 13.619.729 18.32l13.996.348zm-.748-19.237v-12.187h-14v12.187h14zm-.282-14.153-.75-2.563-13.436 3.933.75 2.562 13.436-3.932zm-1.559-4.349c-.872-1.374-1.683-3.654-1.998-7.289l-13.948 1.208c.436 5.032 1.666 9.71 4.127 13.586l11.819-7.505zm-3.138-2.816c3.322-5.008 5.615-11.082 7.077-17.98l-13.696-2.903c-1.205 5.685-2.953 9.987-5.048 13.145l11.667 7.738zm22.064-29.719c4.131-1.83 7.663-3.713 10.325-5.698 2.341-1.745 5.512-4.655 6.115-8.927.738-5.232-2.643-8.712-5.289-10.477-2.665-1.778-6.188-3.033-9.987-4.013l-3.498 13.555c1.583.409 2.849.813 3.835 1.197 1.004.391 1.588.712 1.88.907.318.212.059.12-.268-.417-.407-.667-.685-1.65-.536-2.709.129-.914.502-1.35.441-1.272-.058.074-.342.396-1.061.932-1.452 1.083-3.904 2.473-7.627 4.122l5.67 12.8zm-7.492-23.473-2.25 13.688 13.814 2.27 2.25-13.687-13.814-2.271zm-2.343 14.823v2.25h14v-2.25h-14zm102.687-33.813v7a7 7 0 0 0 1.804-.236l-1.804-6.763zm1.813-1.812 2.247-6.63a7 7 0 0 0-8.355 3.21l6.108 3.42zm36.25 50.75 6.837 1.5c.14-.638.19-1.292.149-1.944l-6.986.444zm-54.375 64.312.752 6.96a7.006 7.006 0 0 0 2.035-.538l-2.787-6.422zm-9.938-.874-3.124 6.263c.437.219.897.391 1.37.513l1.754-6.776zm-19.937-44.438 6.847 1.455a7.005 7.005 0 0 0-.206-3.669l-6.641 2.214zm-3.625-10.875-6.528-2.526a6.999 6.999 0 0 0-.113 4.74l6.641-2.214zm6.312-16.313 6.529 2.527c.028-.073.055-.147.081-.221l-6.61-2.306zm.938-2.687-6.564-2.433-.046.127 6.61 2.306zm2.687-7.25 6.564 2.433.062-.174-6.626-2.259zm.938-2.75-5.543-4.275a7.002 7.002 0 0 0-1.083 2.016l6.626 2.259zm9.062-11.75-4.949-4.95a6.993 6.993 0 0 0-.594.675l5.543 4.275zm1.813-1.813 4.95 4.95a7.002 7.002 0 0 0 1.554-2.362l-6.504-2.588zm4.75-11.937-2.392-6.579a6.997 6.997 0 0 0-4.112 3.991l6.504 2.588zm3.437-1.25 5.541-4.278a7 7 0 0 0-7.933-2.3l2.392 6.578zm14.438-1.313v-7a6.998 6.998 0 0 0-3.549.967l3.549 6.034zm17.25 50.75 6.669 2.126a6.988 6.988 0 0 0 .246-3.211l-6.915 1.085zm-15.438-20.874 1.399-6.859a7 7 0 0 0-7.799 4.023l6.4 2.836zm-7.25 10-4.949-4.95c-.38.379-.715.802-.998 1.258l5.947 3.692zm-4.5 7.25 5.577 4.23c.132-.174.256-.354.371-.539l-5.948-3.691zm-2.75 3.624-5.577-4.23a7 7 0 0 0-1.359 3.291l6.936.939zm.938 14.5 6.911 1.114a7.004 7.004 0 0 0-.055-2.525l-6.856 1.411zm3.625 22.626-6.316 3.018a7.002 7.002 0 0 0 10.461 2.622l-4.145-5.64zm15.366-81.112c3.492-.931 5.317-3.729 6.116-5.156l-12.215-6.84c-.092.164-.025-.003.267-.295.298-.298 1.025-.916 2.225-1.236l3.607 13.527zm-2.238-1.946c10.066 3.411 17.418 8.746 22.488 15.845 5.105 7.147 8.251 16.579 9.023 28.719l13.972-.888c-.895-14.069-4.624-26.199-11.603-35.968-7.013-9.819-16.953-16.754-29.386-20.968l-4.494 13.26zm31.659 42.62c-6.072 27.671-22.591 47.355-50.324 59.391l5.574 12.843c31.6-13.714 51.331-36.905 58.425-69.234l-13.675-3zm-48.29 58.853c-2.107.228-4.563.05-7.431-.692l-3.508 13.553c4.216 1.091 8.385 1.497 12.444 1.058l-1.505-13.919zm-6.06-.179c-7.735-3.859-12.479-8.709-15.004-14.336-2.551-5.687-3.206-12.993-1.211-22.383l-13.694-2.91c-2.422 11.401-1.962 21.898 2.132 31.024 4.121 9.184 11.554 16.157 21.528 21.132l6.249-12.527zm-16.421-40.388-3.625-10.875-13.282 4.428 3.625 10.875 13.282-4.428zm-3.738-6.135 6.313-16.312-13.057-5.053-6.312 16.313 13.056 5.052zm6.394-16.533.937-2.687-13.219-4.612-.937 2.688 13.219 4.611zm.891-2.56 2.688-7.25-13.127-4.866-2.688 7.25 13.127 4.866zm2.75-7.424.937-2.75-13.251-4.518-.937 2.75 13.251 4.518zm-.145-.734 9.062-11.75-11.086-8.55-9.062 11.75 11.086 8.55zm8.469-11.075 1.813-1.813-9.9-9.9-1.812 1.813 9.899 9.9zm3.367-4.175 4.75-11.937-13.008-5.176-4.75 11.938 13.008 5.175zm.638-7.946 3.438-1.25-4.785-13.158-3.437 1.25 4.784 13.158zm-4.495-3.55c2.99 3.872 7.352 5.227 11.69 4.833 3.916-.356 7.945-2.102 11.837-4.391l-7.098-12.067c-3.192 1.877-5.111 2.434-6.007 2.515-.365.034-.306-.037-.017.075.335.13.576.349.676.478l-11.081 8.556zm19.978 1.409h2.75v-14h-2.75v14zm2.75 0h2.687v-14h-2.687v14zm21.415 42.664c-1.063-6.772-3.115-12.761-6.584-17.452-3.587-4.85-8.464-7.992-14.37-9.196l-2.798 13.717c2.47.504 4.353 1.696 5.912 3.804 1.677 2.268 3.156 5.862 4.01 11.298l13.83-2.171zm-28.753-22.625c-1.016 2.293-2.847 4.933-5.799 7.886l9.899 9.899c3.797-3.797 6.8-7.824 8.7-12.114l-12.8-5.671zm-6.797 9.144-4.5 7.25 11.895 7.383 4.5-7.25-11.895-7.383zm-4.13 6.711-2.75 3.625 11.154 8.461 2.75-3.625-11.154-8.461zm-4.109 6.916c-.683 5.042-.245 10.717 1.018 16.851l13.712-2.823c-1.07-5.2-1.258-9.191-.857-12.149l-13.873-1.879zm.963 14.326c-1.459 9.055.049 18.032 4.22 26.757l12.631-6.037c-3.079-6.442-3.987-12.548-3.029-18.493l-13.822-2.227zm14.681 29.379c13.16-9.672 22.397-23.372 27.899-40.64l-13.339-4.251c-4.747 14.899-12.427 25.949-22.851 33.61l8.291 11.281zm120.855-93.703-1.923-6.73a7.001 7.001 0 0 0-4.08 3.129l6.003 3.601zm2.875-1.625.798-6.954a7 7 0 0 0-5.171 1.488l4.373 5.466zm7.437 4 6.983-.485a7 7 0 0 0-2.076-4.508l-4.907 4.993zm-1.125 10.375-6.799-1.664a7 7 0 0 0-.021 3.238l6.82-1.574zm.563 2.438 5.418 4.432a7.001 7.001 0 0 0 1.403-6.007l-6.821 1.575zm-5.75 8.812 3.883 5.824a6.99 6.99 0 0 0 2.259-2.467l-6.142-3.357zm-1.125.75-3.883-5.824a6.99 6.99 0 0 0-1.873 1.84l5.756 3.984zm-1.125 1.625-5.756-3.984a6.998 6.998 0 0 0-.859 1.694l6.615 2.29zm-.563 1.625 4.72 5.169a6.998 6.998 0 0 0 1.895-2.879l-6.615-2.29zm-5.75 8 4.756 5.136a6.987 6.987 0 0 0 1.417-1.834l-6.173-3.302zm-1.687 1.563-4.756-5.137a6.956 6.956 0 0 0-.93 1.054l5.686 4.083zm-1.75 2.437 5.654 4.126a.707.707 0 0 0 .032-.044l-5.686-4.082zm-4.563 4.75-4.526-5.339a6.991 6.991 0 0 0-1.534 1.835l6.06 3.504zm-2.312 4 5.143 4.748c.351-.38.658-.797.917-1.244l-6.06-3.504zm-2.25 2.437 3.919 5.801a7.027 7.027 0 0 0 1.224-1.053l-5.143-4.748zm-2.313 1.563-3.919-5.8a7.002 7.002 0 0 0-3.081 5.8h7zm0 2.437h-7a7.001 7.001 0 0 0 2.902 5.675l4.098-5.675zm1.125.813 6.59-2.361a7.002 7.002 0 0 0-2.491-3.314l-4.099 5.675zm4.625 7.937 6.821-1.574a7.012 7.012 0 0 0-1.443-2.907l-5.378 4.481zm.563 2.438-6.821 1.574a7.003 7.003 0 0 0 2.722 4.101l4.099-5.675zm1.125.812 6.811-1.613a6.997 6.997 0 0 0-2.713-4.061l-4.098 5.674zm.562 2.376-6.811 1.613a7 7 0 0 0 2.859 4.164l3.952-5.777zm1.188.812 6.811-1.613a7 7 0 0 0-2.858-4.164l-3.953 5.777zm.562 2.375-6.811 1.613a6.996 6.996 0 0 0 2.713 4.062l4.098-5.675zm1.125.813 6.785-1.722a7 7 0 0 0-2.686-3.953l-4.099 5.675zm3.438 9.624 6.811-1.613a6.989 6.989 0 0 0-.396-1.188l-6.415 2.801zm.562 2.376-6.811 1.613c.113.477.275.94.485 1.383l6.326-2.996zm1.125 2.374 6.781-1.738a6.95 6.95 0 0 0-.455-1.258l-6.326 2.996zm.625 2.438-6.78 1.739c.216.845.59 1.643 1.1 2.351l5.68-4.09zm1.125 1.562h7a7.001 7.001 0 0 0-1.319-4.09l-5.681 4.09zm0 2.438h-7c0 .9.174 1.791.511 2.625l6.489-2.625zm2.25 5.562h7c0-.899-.173-1.79-.51-2.624l-6.49 2.624zm0 4.813v7a7 7 0 0 0 7-7h-7zm-5.125 0-5.661 4.117a7 7 0 0 0 5.661 2.883v-7zm-5.125-4.813-6.351 2.944a7.01 7.01 0 0 0 2.495 2.899l3.856-5.843zm-3.437-4-6.586 2.372a6.995 6.995 0 0 0 2.817 3.527l3.769-5.899zm-.563-1.562 6.587-2.371a7 7 0 0 0-1.824-2.759l-4.763 5.13zm-1.75-1.625-6.318 3.013c.38.798.908 1.516 1.555 2.117l4.763-5.13zm-5.687-7.187-6.98-.537a7 7 0 0 0 2.499 5.914l4.481-5.377zm-.625-1.626-6.228 3.196c.243.474.54.919.884 1.326l5.344-4.522zm-7.375-14.374 6.228-3.196a7.011 7.011 0 0 0-2.275-2.582l-3.953 5.778zm-1.188-.813-6.811 1.613a6.997 6.997 0 0 0 2.859 4.164l3.952-5.777zm-.562-2.375 6.811-1.613a6.998 6.998 0 0 0-11.4-3.674l4.589 5.287zm-6.313 8 4.293 5.529a6.979 6.979 0 0 0 1.748-1.993l-6.041-3.536zm-9.687 12 3.498 6.063a6.997 6.997 0 0 0 2.621-2.663l-6.119-3.4zm-6.313 6.375 4.099 5.675a7 7 0 0 0 1.688-1.737l-5.787-3.938zm-2.25 1.625-4.098-5.675a7.03 7.03 0 0 0-1.568 1.564l5.666 4.111zm-2.312 3.188 4.763 5.129c.333-.309.636-.651.903-1.019l-5.666-4.11zm-1.75 1.624-4.763-5.129a6.92 6.92 0 0 0-.486.498l5.249 4.631zm-2.813 3.188 3.919 5.8a6.985 6.985 0 0 0 1.33-1.169l-5.249-4.631zm-2.312 1.562-3.919-5.8a7.01 7.01 0 0 0-2.294 2.575l6.213 3.225zm-1.688 3.25 3.037 6.308a7.003 7.003 0 0 0 3.176-3.082l-6.213-3.226zm-7.437 6.376-6.939.92a7 7 0 0 0 12.259 3.629l-5.32-4.549zm.562-14.376-6.171-3.303c-.36.673-.608 1.4-.733 2.153l6.904 1.15zm5.125-12-4.785-5.108a6.995 6.995 0 0 0-1.793 2.716l6.578 2.392zm9.188-13.624-4.099-5.675a7.003 7.003 0 0 0-2.231 2.685l6.33 2.99zm1.125-.813 4.098 5.675a6.992 6.992 0 0 0 1.386-1.325l-5.484-4.35zm3.437-5.563-2.843-6.396a7.001 7.001 0 0 0-3.333 3.102l6.176 3.294zm1.125-1.624-4.759-5.133a6.996 6.996 0 0 0-1.72 2.482l6.479 2.651zm3.438-3.188 4.759 5.133c.373-.346.707-.731.996-1.149l-5.755-3.984zm1.125-1.625 5.755 3.984a6.85 6.85 0 0 0 .506-.854l-6.261-3.13zm1.187-2.375-4.098-5.675a6.99 6.99 0 0 0-2.163 2.545l6.261 3.13zm2.25-1.625 4.099 5.675a6.996 6.996 0 0 0 2.162-2.545l-6.261-3.13zm1.188-2.375-3.037-6.307a6.999 6.999 0 0 0-3.224 3.177l6.261 3.13zm1.687-.812 3.037 6.307a7.002 7.002 0 0 0 2.644-2.217l-5.681-4.09zm1.125-1.563 5.681 4.09a7.002 7.002 0 0 0 .748-6.86l-6.429 2.77zM495.87 120.5l-6.437 2.749a7.01 7.01 0 0 0 1.435 2.148l5.002-4.897zm-8-12-6.964.708a7 7 0 0 0 1.777 3.993l5.187-4.701zm5.125-20-3.861-5.839a6.995 6.995 0 0 0-1.875 1.828l5.736 4.011zm9.75-3.188 6.982-.504a7 7 0 0 0-7.722-6.456l.74 6.96zm6.875 18.376 6.683-2.086a7.02 7.02 0 0 0-1.125-2.17l-5.558 4.256zm8.563 15.187-5.173 4.716a7 7 0 0 0 9.819.52l-4.646-5.236zm9.687-12-2.011-6.705a7.004 7.004 0 0 0-3.855 2.885l5.866 3.82zm1.188-1.563-3.34-6.151a6.999 6.999 0 0 0-3.139 3.501l6.479 2.65zm4-4.812-4.856-5.042a6.989 6.989 0 0 0-1.405 1.912l6.261 3.13zm1.687-1.625 4.856 5.042c.371-.357.702-.755.986-1.186l-5.842-3.856zm6.313-9.563-5.756-3.984a6.813 6.813 0 0 0-.086.128l5.842 3.856zm1.125-1.624-5.573-4.236a6.756 6.756 0 0 0-.183.251l5.756 3.984zm1.187-1.563 5.573 4.236c.308-.405.57-.841.783-1.303l-6.356-2.933zm1.125-2.438-2.213-6.64a6.995 6.995 0 0 0-4.142 3.707l6.355 2.933zm3.611 5.169c2.082-.595 3.867-1.724 5.325-2.89l-8.746-10.932c-.288.23-.478.35-.572.403-.095.054-.043.012.147-.043l3.846 13.462zm.154-1.402c.554.064 1.664.402 3.329 2.039l9.813-9.986c-3.168-3.113-7.017-5.442-11.546-5.961l-1.596 13.908zm1.252-2.47c.145 2.081-.1 4.79-.941 8.227l13.599 3.328c1.075-4.396 1.581-8.604 1.308-12.524l-13.966.97zm-.962 11.465.562 2.438 13.642-3.148-.563-2.438-13.641 3.148zm1.965-3.57c-2.23 2.727-4.381 6.057-6.475 9.889l12.285 6.714c1.823-3.335 3.506-5.88 5.026-7.737l-10.836-8.865zm-4.215 7.422-1.125.75 7.766 11.648 1.125-.75-7.766-11.648zm-2.998 2.59-1.125 1.625 11.511 7.968 1.125-1.625-11.511-7.968zm-1.984 3.319-.563 1.625 13.23 4.58.563-1.625-13.23-4.58zm1.332-1.254c-2.738 2.5-5.098 5.934-7.202 9.867l12.345 6.604c1.729-3.234 3.202-5.133 4.297-6.133l-9.44-10.338zm-5.786 8.033-1.687 1.562 9.512 10.273 1.687-1.563-9.512-10.272zm-2.617 2.616-1.75 2.438 11.372 8.164 1.75-2.437-11.372-8.165zm-1.719 2.394c-.714.979-1.816 2.164-3.434 3.537l9.053 10.678c2.215-1.877 4.155-3.858 5.69-5.963l-11.309-8.252zm-4.968 5.372-2.312 4 12.12 7.008 2.312-4-12.12-7.008zm-1.396 2.756-2.25 2.438 10.287 9.495 2.25-2.437-10.287-9.496zm-1.025 1.385-2.313 1.563 7.838 11.6 2.313-1.562-7.838-11.601zm-5.394 7.363v2.437h14v-2.437h-14zm2.902 8.112 1.125.813 8.197-11.35-1.125-.812-8.197 11.349zm-1.367-2.501c1.303 3.635 3.28 6.989 5.838 10.058l10.755-8.963c-1.609-1.931-2.715-3.869-3.413-5.817l-13.18 4.722zm4.395 7.151.562 2.437 13.642-3.148-.563-2.438-13.641 3.149zm3.284 6.538 1.125.812 8.197-11.349-1.125-.813-8.197 11.35zm-1.588-3.249.563 2.375 13.623-3.227-.563-2.375-13.623 3.227zm3.422 6.539 1.187.812 7.906-11.554-1.188-.813-7.905 11.555zm-1.672-3.352.563 2.375 13.623-3.226-.563-2.375-13.623 3.226zm3.276 6.437 1.125.812 8.197-11.349-1.125-.813-8.197 11.35zm-1.562-3.141c.83 3.269 2.124 6.85 3.808 10.705l12.83-5.603c-1.483-3.395-2.48-6.231-3.068-8.545l-13.57 3.443zm3.411 9.517.563 2.375 13.623-3.227-.563-2.375-13.623 3.227zm1.048 3.758 1.125 2.375 12.652-5.993-1.125-2.375-12.652 5.993zm.671 1.117.625 2.438 13.561-3.478-.625-2.437-13.561 3.477zm1.725 4.789 1.125 1.563 11.361-8.181-1.125-1.562-11.361 8.18zm-.195-2.528v2.438h14v-2.438h-14zm.511 5.063 2.25 5.562 12.979-5.249-2.25-5.563-12.979 5.25zm1.739 2.937v4.813h14v-4.813h-14zm7-2.187h-5.125v14h5.125v-14zm.536 2.883c-1.874-2.577-4.217-4.747-6.93-6.538l-7.712 11.685c1.454.959 2.528 1.998 3.32 3.087l11.322-8.234zm-4.435-3.639c-1.319-2.846-3.328-5.236-6.019-6.955l-7.538 11.797c.309.198.591.474.855 1.045l12.702-5.887zm-3.202-3.428-.562-1.562-13.173 4.742.563 1.563 13.172-4.743zm-2.386-4.321-1.75-1.625-9.526 10.26 1.75 1.625 9.526-10.26zm-.194.492c-1.763-3.695-4.316-6.878-7.525-9.552l-8.962 10.755c1.79 1.492 3.029 3.101 3.85 4.823l12.637-6.026zm-5.027-3.638c.222-2.888-.991-5.183-2.26-6.683l-10.688 9.043c-.353-.417-1.149-1.628-1.011-3.433l13.959 1.073zm-1.376-5.357-7.375-14.375-12.456 6.391 7.375 14.375 12.456-6.391zm-9.65-16.957-1.188-.812-7.905 11.554 1.187.813 7.906-11.555zm1.671 3.352-.563-2.375-13.623 3.226.563 2.375 13.623-3.226zm-11.963-6.049c-2.948 2.559-5.506 5.893-7.765 9.751l12.082 7.072c1.742-2.975 3.392-4.975 4.86-6.249l-9.177-10.574zm-6.017 7.758c-4.495 3.49-8.285 8.319-11.513 14.129l12.238 6.8c2.605-4.69 5.273-7.861 7.861-9.871l-8.586-11.058zm-8.892 11.466c-3.397 1.959-6.214 4.991-8.602 8.5l11.574 7.876c1.696-2.491 3.087-3.709 4.024-4.25l-6.996-12.126zm-6.913 6.763-2.25 1.625 8.197 11.35 2.25-1.625-8.197-11.35zm-3.818 3.189-2.312 3.188 11.332 8.221 2.312-3.187-11.332-8.222zm-1.409 2.169-1.75 1.625 9.526 10.259 1.75-1.625-9.526-10.259zm-2.236 2.123-2.813 3.188 10.498 9.262 2.813-3.187-10.498-9.263zm-1.483 2.019-2.312 1.562 7.838 11.601 2.312-1.563-7.838-11.6zm-4.606 4.137-1.687 3.25 12.425 6.451 1.687-3.25-12.425-6.451zm1.489.168c-3.521 1.695-6.749 4.657-9.721 8.133l10.64 9.099c2.444-2.858 4.174-4.146 5.154-4.617l-6.073-12.615zm2.538 11.762c-.425-3.201-.312-7.264.528-12.304l-13.809-2.301c-.994 5.96-1.256 11.48-.597 16.446l13.878-1.841zm-.205-10.151c1.805-3.372 3.643-7.718 5.532-12.911l-13.157-4.785c-1.778 4.89-3.356 8.545-4.718 11.089l12.343 6.607zm3.739-10.195c4.163-3.9 7.683-9.289 10.732-15.744l-12.66-5.979c-2.618 5.545-5.223 9.239-7.643 11.506l9.571 10.217zm8.5-13.059 1.125-.812-8.197-11.35-1.125.813 8.197 11.349zm2.511-2.137c1.353-1.706 2.733-4 4.13-6.618l-12.353-6.589c-1.27 2.382-2.182 3.796-2.746 4.507l10.969 8.7zm.796-3.516c1.871-.831 2.957-2.195 3.475-2.943.582-.84.992-1.71 1.286-2.428l-12.958-5.301c-.081.198-.045.058.161-.24.112-.161.326-.446.668-.769a6.012 6.012 0 0 1 1.682-1.112l5.686 12.793zm3.042-2.889 3.437-3.187-9.519-10.266-3.437 3.188 9.519 10.265zm4.433-4.336 1.125-1.625-11.511-7.968-1.125 1.625 11.511 7.968zm1.631-2.479 1.187-2.375-12.522-6.26-1.187 2.375 12.522 6.26zm-.975.17 2.25-1.625-8.197-11.35-2.25 1.625 8.197 11.35zm4.412-4.17 1.188-2.375-12.522-6.26-1.188 2.375 12.522 6.26zm-2.036.802 1.687-.812-6.073-12.615-1.688.813 6.074 12.614zm4.331-3.029 1.125-1.563-11.361-8.18-1.125 1.562 11.361 8.181zm1.873-8.423a51.452 51.452 0 0 0-10.552-15.752l-10.004 9.794a37.467 37.467 0 0 1 7.699 11.498l12.857-5.54zm-9.116-13.604c-2.078-4.864-5.224-9.509-9.251-13.952l-10.374 9.402c3.224 3.557 5.411 6.912 6.75 10.048l12.875-5.498zm-7.474-9.959c-.583-5.742.713-10.727 3.898-15.28l-11.473-8.023c-5.149 7.362-7.269 15.711-6.353 24.719l13.928-1.416zm2.022-13.453c1.429-.945 3.533-1.736 6.63-2.066l-1.481-13.921c-4.737.504-9.133 1.837-12.871 4.31l7.722 11.677zm-1.092-8.522c.595 8.233 3.357 15.671 8.298 22.126l11.116-8.51c-3.225-4.213-5.046-9.024-5.451-14.625l-13.963 1.01zm7.174 19.956c2.116 6.782 5.46 12.76 10.072 17.818l10.345-9.432c-3.138-3.442-5.502-7.589-7.052-12.557l-13.365 4.171zm19.891 18.338c3.625-3.216 7.249-7.799 10.907-13.416l-11.732-7.64c-3.342 5.133-6.175 8.55-8.467 10.584l9.292 10.472zm7.053-10.531c2.179-.654 3.504-2.076 4.171-2.954.705-.928 1.17-1.897 1.484-2.663l-12.958-5.301c-.062.151.018-.1.328-.507.271-.356 1.189-1.456 2.952-1.985l4.023 13.41zm2.515-2.116c3.287-1.784 5.44-4.869 6.922-7.834l-12.522-6.26c-.431.86-.789 1.382-1.029 1.671-.239.288-.275.242-.05.12l6.679 12.303zm5.516-5.922 1.688-1.625-9.711-10.084-1.688 1.625 9.711 10.084zm2.674-2.811 6.313-9.562-11.684-7.713-6.313 9.563 11.684 7.712zm6.226-9.434 1.125-1.625-11.511-7.969-1.125 1.625 11.511 7.969zm.943-1.374 1.187-1.562-11.146-8.472-1.187 1.563 11.146 8.471zm1.97-2.865 1.125-2.437-12.711-5.867-1.125 2.438 12.711 5.866zm-3.017 1.27c2.815-.938 4.514-2.998 5.476-4.602l-12.005-7.203c.005-.007.136-.228.45-.519.331-.306.877-.7 1.652-.957l4.427 13.281zm44.474-.14-3.889-5.821a7.007 7.007 0 0 0-2.181 2.333l6.07 3.487zm14.5-9.688 5.062-4.835a7 7 0 0 0-8.951-.986l3.889 5.821zm11.312 8.063 6.787 1.713a6.998 6.998 0 0 0-3.509-7.899l-3.278 6.186zM615.37 95l-6.787-1.713a7.002 7.002 0 0 0 .465 4.717L615.37 95zm-8.062 101.75-6.48 2.648a7 7 0 0 0 12.344 1.174l-5.864-3.822zm-5.875-14.375 6.48-2.648a7.006 7.006 0 0 0-3.939-3.875 7.006 7.006 0 0 0-5.522.189l2.981 6.334zM602.495 158l6.908 1.135a7 7 0 0 0-8.285-7.998l1.377 6.863zm-18.687 3.75-1.377-6.863a7 7 0 0 0-5.357 4.951l6.734 1.912zm-7.188 25.312 4.95 4.95a6.998 6.998 0 0 0 1.784-3.037l-6.734-1.913zm-8.062 8.063-1.747 6.778a7 7 0 0 0 6.697-1.828l-4.95-4.95zm-11.313-8.063-6.982-.501a6.998 6.998 0 0 0 1.537 4.9l5.445-4.399zm1.625-22.624-6.567-2.422a6.981 6.981 0 0 0-.415 1.92l6.982.502zm8.75-20.188 6.269 3.115a6.996 6.996 0 0 0 .695-3.828l-6.964.713zm-.812-7.938-6.503-2.59a6.99 6.99 0 0 0-.461 3.303l6.964-.713zm3.062-7.687-3.639-5.979a6.998 6.998 0 0 0-2.864 3.388l6.503 2.591zm7.188-4.375 3.639 5.979a6.996 6.996 0 0 0 2.998-3.754l-6.637-2.225zm7.625-22.75-6.07-3.487a7.03 7.03 0 0 0-.567 1.262l6.637 2.225zm7.125 37.75-6.456-2.706a7 7 0 0 0 7.024 9.683l-.568-6.977zm10.75-.875.568 6.977a6.999 6.999 0 0 0 6.213-8.714l-6.781 1.737zM598.62 123l6.781-1.737a6.999 6.999 0 0 0-13.236-.969L598.62 123zm-3.549-26.992 14.5-9.688-7.777-11.64-14.5 9.687 7.777 11.641zm5.55-10.673c3.355 3.513 7.818 6.616 13.097 9.413l6.555-12.37c-4.472-2.37-7.55-4.642-9.528-6.713l-10.124 9.67zm9.587 1.514-1.625 6.438 13.574 3.426 1.625-6.437-13.574-3.427zm-1.16 11.155c15.274 32.143 12.887 63.48-7.605 94.924l11.729 7.644c23.009-35.306 25.996-71.802 8.521-108.576l-12.645 6.008zm4.74 96.098-5.875-14.375-12.96 5.296 5.875 14.375 12.96-5.296zm-15.336-18.061a6.277 6.277 0 0 1 3.152-.565 6.47 6.47 0 0 1 3.685 1.516 5.955 5.955 0 0 1 1.487 1.885c.21.426.296.745.321.849.041.166-.085-.418.001-2.39.158-3.618.894-9.613 2.305-18.201l-13.815-2.27c-1.423 8.662-2.28 15.355-2.477 19.861-.091 2.091-.084 4.429.4 6.376.202.816.792 2.923 2.704 4.551a7.536 7.536 0 0 0 4.308 1.782 7.72 7.72 0 0 0 3.89-.726l-5.961-12.668zm2.666-24.904-18.687 3.75 2.754 13.726 18.688-3.75-2.755-13.726zm-24.044 8.701-7.187 25.312 13.467 3.825 7.188-25.313-13.468-3.824zm-5.403 22.275-8.063 8.062 9.9 9.9 8.062-8.063-9.899-9.899zm-1.366 6.234c-2.167-.559-4.746-2.131-7.614-5.683l-10.891 8.797c4.131 5.115 9.094 8.918 15.011 10.442l3.494-13.556zm-6.078-.783 1.625-22.625-13.964-1.003-1.625 22.625 13.964 1.003zm1.211-20.705c2.366-6.415 5.181-12.913 8.451-19.494l-12.537-6.23c-3.48 7.002-6.498 13.963-9.049 20.881l13.135 4.843zm9.146-23.322-.813-7.937-13.927 1.425.813 7.938 13.927-1.426zm-1.273-4.634 3.062-7.687-13.006-5.182-3.062 7.688 13.006 5.181zm.199-4.299 7.187-4.375-7.279-11.958-7.187 4.375 7.279 11.958zm10.185-8.129 7.625-22.75-13.274-4.45-7.625 22.75 13.274 4.45zm7.057-21.488 6.5-11.312-12.139-6.975-6.5 11.313 12.139 6.974zm1.624 41.24 10.75-.875-1.136-13.954-10.75.875 1.136 13.954zm16.963-9.589-3.938-15.375-13.562 3.474 3.938 15.375 13.562-3.474zm-17.174-16.344-6.813 16.25 12.911 5.412 6.813-16.25-12.911-5.412zm46.643-22.856-6.998-.158a7 7 0 0 0 4.081 6.521l2.917-6.364zm4.625-16.813-.678-6.967a6.998 6.998 0 0 0-5.527 3.727l6.205 3.24zm22.25 2.625 3.601-6.002a7 7 0 0 0-1.813-.766l-1.788 6.768zm1.562.938-3.601 6.002a6.999 6.999 0 0 0 5.65.69l-2.049-6.692zm3.063-.938 6.106-3.423a7 7 0 0 0-8.155-3.27l2.049 6.693zm6.875 7.125 5.824-3.883a7.009 7.009 0 0 0-1.978-1.966l-3.846 5.849zM687.933 101l5.607-4.19a7 7 0 0 0-1.593-1.545L687.933 101zm4.625 6.188-5.607 4.19.081.107 5.526-4.297zm5.375 5.312 6.345-2.955a6.98 6.98 0 0 0-1.828-2.392l-4.517 5.347zm6.125 9.75 6.687-2.07a6.987 6.987 0 0 0-1.144-2.204l-5.543 4.274zm.812 2.625-6.687 2.07a7.01 7.01 0 0 0 1.373 2.486l5.314-4.556zm1.5 1.75 6.939.925a7 7 0 0 0-1.624-5.481l-5.315 4.556zm.75 1.813 6.756-1.834a7 7 0 0 0-1.806-3.116l-4.95 4.95zm.813 19.437 6.923 1.035.003-.022-6.926-1.013zm-49.188 43.375-.051-7a6.974 6.974 0 0 0-1.079.092l1.13 6.908zm-7.625 2.688-.417 6.987a7.002 7.002 0 0 0 3.585-.745l-3.168-6.242zm-8.5.874v7c.597 0 1.19-.076 1.767-.226l-1.767-6.774zm-4.562 0v-7c-.847 0-1.686.154-2.477.453l2.477 6.547zm-2.313.876v7c.847 0 1.686-.154 2.478-.453l-2.478-6.547zm-2.312 0-3.319 6.163c1.02.549 2.16.837 3.319.837v-7zm-6.125-4.438-6.905 1.151a6.996 6.996 0 0 0 2.379 4.189l4.526-5.34zm0-17.688-5.573-4.235a6.998 6.998 0 0 0-1.375 3.383l6.948.852zm6.875-5.312 3.06 6.296a7.002 7.002 0 0 0 3.923-6.787l-6.983.491zm2.312-17.688 6.711 1.992a6.97 6.97 0 0 0 .286-1.792l-6.997-.2zm1.563-11.5 6.862 1.385c.043-.215.076-.431.099-.649l-6.961-.736zm1.5-14.187 6.961.736c.013-.119.022-.239.029-.359l-6.99-.377zm.812-15.063-6.979-.54-.011.163 6.99.377zm.75-9.687 6.979.54a7.003 7.003 0 0 0-.493-3.175l-6.486 2.635zM688.433 155l5.938 3.707c.58-.93.935-1.984 1.033-3.077l-6.971-.63zm-27.625-46.062 2.318-6.606a7 7 0 0 0-9.307 6.205l6.989.401zm-.813 14.187 6.434 2.757a6.993 6.993 0 0 0 .555-2.357l-6.989-.4zm-.75 1.75-6.434-2.757a7.004 7.004 0 0 0-.566 2.757h7zm0 5.313 6.743 1.881a6.995 6.995 0 0 0 .257-1.881h-7zm-.75 2.687-6.742-1.882a7.004 7.004 0 0 0-.258 1.882h7zm-1.562 12.375-6.84-1.487c-.107.489-.16.987-.16 1.487h7zm0 2.625 6.73 1.923c.179-.625.27-1.273.27-1.923h-7zm-1.5 11.5-6.999-.131a7.003 7.003 0 0 0 2.024 5.056l4.975-4.925zm-9.627-61.78c.097-4.313 1.295-8.87 3.832-13.73l-12.41-6.48c-3.38 6.474-5.266 13.125-5.418 19.895l13.996.315zm-1.696-10.003c4.862-.472 11.384.207 19.785 2.426l3.576-13.536c-9.266-2.447-17.577-3.518-24.716-2.824l1.355 13.934zm17.971 1.66 1.563.938 7.203-12.005-1.563-.938-7.203 12.005zm7.213 1.629 3.063-.938-4.098-13.386-3.063.937 4.098 13.387zm-5.092-4.208c2.169 3.87 5.302 7.03 9.135 9.55l7.692-11.697c-2.251-1.48-3.701-3.068-4.615-4.699l-12.212 6.846zm7.156 7.585c3.153 4.73 7.404 8.867 12.561 12.477l8.028-11.47c-4.01-2.807-6.926-5.752-8.94-8.773l-11.649 7.766zm10.968 10.933 4.625 6.187 11.214-8.381-4.625-6.188-11.214 8.382zm4.706 6.294c1.597 2.053 3.805 4.184 6.383 6.362l9.035-10.694c-2.255-1.906-3.63-3.316-4.367-4.263l-11.051 8.595zm4.555 3.97c1.689 3.626 4.034 7.317 6.927 11.069l11.087-8.548c-2.44-3.165-4.178-5.973-5.323-8.431l-12.691 5.91zm5.784 8.865.812 2.625 13.374-4.14-.812-2.625-13.374 4.14zm2.185 5.111 1.5 1.75 10.629-9.112-1.5-1.75-10.629 9.112zm-.124-3.731c-.456 3.42 1.131 6.079 2.739 7.687l9.899-9.899c.195.195.588.644.893 1.382.328.793.473 1.725.346 2.68l-13.877-1.85zm.933 4.571c1.288 4.747 1.57 10.238.641 16.591l13.853 2.026c1.155-7.897.895-15.364-.983-22.284l-13.511 3.667zm.645 16.569c-1.983 13.263-6.617 22.335-13.223 28.16-6.588 5.81-16.007 9.155-29.093 9.25l.102 14c15.415-.113 28.444-4.102 38.251-12.75 9.791-8.633 15.5-21.144 17.809-36.59l-13.846-2.07zm-43.395 37.502c-3.199.523-6.438 1.717-9.662 3.353l6.335 12.485c2.359-1.197 4.203-1.795 5.588-2.022l-2.261-13.816zm-6.078 2.608c-3.571-.213-7.141.165-10.684 1.089l3.534 13.547c2.208-.576 4.304-.781 6.316-.661l.834-13.975zm-8.917.862h-2.25v14h2.25v-14zm-2.25 0h-2.312v14h2.312v-14zm-4.789.453-2.313.875 4.955 13.095 2.312-.875-4.954-13.095zm.164.423h-2.312v14h2.312v-14zm1.006.836c-.991-.534-2.6-1.65-4.918-3.614l-9.051 10.68c2.599 2.203 5.074 4.045 7.332 5.261l6.637-12.327zm-2.538.575c-.693-4.152-.735-9.342.043-15.684l-13.896-1.705c-.889 7.242-.932 13.843.043 19.691l13.81-2.302zm-1.332-12.301c.762-1.002 2.086-2.146 4.362-3.252l-6.121-12.592c-3.724 1.811-6.982 4.209-9.387 7.373l11.146 8.471zm8.285-10.039c-.304-4.31.303-9.351 2.04-15.205l-13.421-3.983c-2.096 7.062-3.032 13.814-2.585 20.17l13.966-.982zm2.326-16.997c.067-2.344.504-5.736 1.428-10.315l-13.724-2.769c-.993 4.921-1.598 9.196-1.698 12.685l13.994.399zm1.527-10.964 1.5-14.187-13.922-1.472-1.5 14.188 13.922 1.471zm1.529-14.546.812-15.062-13.98-.755-.812 15.063 13.98.754zm.801-14.899.75-9.688-13.958-1.08-.75 9.687 13.958 1.081zm.257-12.863c-1-2.46-2.81-5.008-5.882-6.416l-5.833 12.727a3.136 3.136 0 0 1-1.061-.782c-.204-.237-.24-.37-.195-.259l12.971-5.27zm47.798 58.14c1.154-12.76-.703-24.071-6.281-33.371-5.615-9.363-14.53-15.903-25.997-19.927l-4.636 13.211c9.075 3.184 15.034 7.925 18.627 13.917 3.631 6.054 5.315 14.17 4.344 24.91l13.943 1.26zm-41.585-47.093-.812 14.188 13.977.8.812-14.187-13.977-.801zm-.258 11.831-.75 1.75 12.868 5.514.75-1.75-12.868-5.514zm-1.316 4.507v2.687h14v-2.687h-14zm0 2.687v2.626h14v-2.626h-14zm.258.744-.75 2.687 13.485 3.764.75-2.688-13.485-3.763zm-1.008 4.569c0 2.799-.427 6.4-1.402 10.888l13.68 2.974c1.108-5.095 1.722-9.744 1.722-13.862h-14zm-1.562 12.375v2.625h14v-2.625h-14zm.269.702c-1.128 3.949-1.677 8.417-1.768 13.292l13.998.262c.075-4.042.527-7.241 1.231-9.708l-13.461-3.846zm.256 18.348c6.817 6.886 14.73 11.448 23.426 10.296 8.59-1.139 15.261-7.519 20.487-15.889l-11.876-7.414c-4.399 7.047-8.041 9.104-10.451 9.424-2.304.305-6.079-.653-11.637-6.267l-9.949 9.85zm92.975-74.113-3.889-5.82a7.007 7.007 0 0 0-2.181 2.333l6.07 3.487zm14.5-9.687 5.062-4.835a7 7 0 0 0-8.951-.986l3.889 5.821zm11.312 8.063 6.787 1.713a6.998 6.998 0 0 0-3.509-7.899l-3.278 6.186zM767.62 95l-6.787-1.713a7.002 7.002 0 0 0 .465 4.717L767.62 95zm-8.062 101.75-6.48 2.648a7 7 0 0 0 12.344 1.174l-5.864-3.822zm-5.875-14.375 6.48-2.648a7.006 7.006 0 0 0-3.939-3.875 7.006 7.006 0 0 0-5.522.189l2.981 6.334zM754.745 158l6.908 1.135a7 7 0 0 0-8.285-7.998l1.377 6.863zm-18.687 3.75-1.377-6.863a7 7 0 0 0-5.357 4.951l6.734 1.912zm-7.188 25.312 4.95 4.95a6.998 6.998 0 0 0 1.784-3.037l-6.734-1.913zm-8.062 8.063-1.747 6.778a7 7 0 0 0 6.697-1.828l-4.95-4.95zm-11.313-8.063-6.982-.501a6.998 6.998 0 0 0 1.537 4.9l5.445-4.399zm1.625-22.624-6.567-2.422a6.981 6.981 0 0 0-.415 1.92l6.982.502zm8.75-20.188 6.269 3.115a6.996 6.996 0 0 0 .695-3.828l-6.964.713zm-.812-7.938-6.503-2.59a6.99 6.99 0 0 0-.461 3.303l6.964-.713zm3.062-7.687-3.639-5.979a6.998 6.998 0 0 0-2.864 3.388l6.503 2.591zm7.188-4.375 3.639 5.979a6.996 6.996 0 0 0 2.998-3.754l-6.637-2.225zm7.625-22.75-6.07-3.487a7.03 7.03 0 0 0-.567 1.262l6.637 2.225zm7.125 37.75-6.456-2.706a7 7 0 0 0 7.024 9.683l-.568-6.977zm10.75-.875.568 6.977a6.999 6.999 0 0 0 6.213-8.714l-6.781 1.737zM750.87 123l6.781-1.737a6.999 6.999 0 0 0-13.236-.969L750.87 123zm-3.549-26.992 14.5-9.688-7.777-11.64-14.5 9.687 7.777 11.641zm5.55-10.673c3.355 3.513 7.818 6.616 13.097 9.413l6.555-12.37c-4.472-2.37-7.55-4.642-9.528-6.713l-10.124 9.67zm9.587 1.514-1.625 6.438 13.574 3.426 1.625-6.437-13.574-3.427zm-1.16 11.155c15.274 32.143 12.887 63.48-7.605 94.924l11.729 7.644c23.009-35.306 25.996-71.802 8.521-108.576l-12.645 6.008zm4.74 96.098-5.875-14.375-12.96 5.296 5.875 14.375 12.96-5.296zm-15.336-18.061a6.277 6.277 0 0 1 3.152-.565 6.47 6.47 0 0 1 3.685 1.516 5.955 5.955 0 0 1 1.487 1.885c.21.426.296.745.321.849.041.166-.085-.418.001-2.39.158-3.618.894-9.613 2.305-18.201l-13.815-2.27c-1.423 8.662-2.28 15.355-2.477 19.861-.091 2.091-.084 4.429.4 6.376.202.816.792 2.923 2.704 4.551a7.536 7.536 0 0 0 4.308 1.782 7.72 7.72 0 0 0 3.89-.726l-5.961-12.668zm2.666-24.904-18.687 3.75 2.754 13.726 18.688-3.75-2.755-13.726zm-24.044 8.701-7.187 25.312 13.467 3.825 7.188-25.313-13.468-3.824zm-5.403 22.275-8.063 8.062 9.9 9.9 8.062-8.063-9.899-9.899zm-1.366 6.234c-2.167-.559-4.746-2.131-7.614-5.683l-10.891 8.797c4.131 5.115 9.094 8.918 15.011 10.442l3.494-13.556zm-6.078-.783 1.625-22.625-13.964-1.003-1.625 22.625 13.964 1.003zm1.211-20.705c2.366-6.415 5.181-12.913 8.451-19.494l-12.537-6.23c-3.48 7.002-6.498 13.963-9.049 20.881l13.135 4.843zm9.146-23.322-.813-7.937-13.927 1.425.813 7.938 13.927-1.426zm-1.273-4.634 3.062-7.687-13.006-5.182-3.062 7.688 13.006 5.181zm.199-4.299 7.187-4.375-7.279-11.958-7.187 4.375 7.279 11.958zm10.185-8.129 7.625-22.75-13.274-4.45-7.625 22.75 13.274 4.45zm7.057-21.488 6.5-11.312-12.139-6.975-6.5 11.313 12.139 6.974zm1.624 41.24 10.75-.875-1.136-13.954-10.75.875 1.136 13.954zm16.963-9.589-3.938-15.375-13.562 3.474 3.938 15.375 13.562-3.474zm-17.174-16.344-6.813 16.25 12.911 5.412 6.813-16.25-12.911-5.412zM215.558 260.625l-6.966-.694a6.988 6.988 0 0 0 .109 2.101l6.857-1.407zm41.562-33.375.162-6.998a6.855 6.855 0 0 0-.86.033l.698 6.965zm8.938 21.188-1.06 6.919a7 7 0 0 0 6.672-2.736l-5.612-4.183zm-30.125 11.374-5.562-4.25a7 7 0 0 0-.279 8.109l5.841-3.859zm6.5 6.563-4.132 5.65a6.986 6.986 0 0 0 2.696 1.201l1.436-6.851zm40.75 47.187 5.408 4.444a6.986 6.986 0 0 0 1.101-1.867l-6.509-2.577zm-83.938 27.688-5.795-3.926a6.999 6.999 0 0 0 4.918 10.871l.877-6.945zm8.125-7.312-1.624-6.809a6.984 6.984 0 0 0-2.086.873l3.71 5.936zm15.5-6.5 1.065-6.919a6.999 6.999 0 0 0-4.49.814l3.425 6.105zm1.625-.813-1.432-6.852a7.01 7.01 0 0 0-3.858 2.267l5.29 4.585zm14.688-6.5-2.006-6.706c-.637.19-1.243.47-1.801.832l3.807 5.874zM266.058 303l5.048 4.85a6.998 6.998 0 0 0 1.941-5.238l-6.989.388zm-4.063-8.125 4.824-5.073a6.997 6.997 0 0 0-3.475-1.796l-1.349 6.869zm-39.472-33.556c.816-8.194 3.987-14.082 9.277-18.33 5.492-4.41 13.91-7.559 26.019-8.774l-1.397-13.93c-13.641 1.368-25.025 5.073-33.388 11.788-8.564 6.877-13.299 16.385-14.442 27.858l13.931 1.388zm34.435-27.071c3.654.085 5.973.546 7.308 1.064 1.257.487 1.013.754.795.237-.174-.413.18-.152-.405 1.521-.581 1.665-1.865 4.037-4.21 7.184l11.224 8.367c2.779-3.728 4.967-7.395 6.203-10.933 1.233-3.53 1.751-7.637.088-11.581-1.708-4.048-5.095-6.477-8.635-7.849-3.461-1.341-7.593-1.903-12.044-2.006l-.324 13.996zm10.159 7.27c-7.341-1.124-14.3-.655-20.657 1.746-6.387 2.411-11.746 6.615-16.089 12.298l11.124 8.501c2.948-3.858 6.256-6.322 9.911-7.702 3.684-1.391 8.142-1.839 13.592-1.004l2.119-13.839zm-37.025 22.153c2.095 3.17 4.899 5.934 8.209 8.354l8.264-11.3c-2.274-1.663-3.803-3.274-4.792-4.771l-11.681 7.717zm10.905 9.555c17.847 3.74 28.504 9.182 33.763 15.271 4.665 5.402 5.928 12.348 1.914 22.489l13.018 5.153c5.402-13.651 4.582-26.465-4.336-36.792-8.325-9.64-22.751-15.897-41.487-19.823l-2.872 13.702zm36.777 35.893c-17.089 20.799-42.409 29.636-77.652 25.186l-1.754 13.89c38.675 4.883 69.313-4.738 90.223-30.189l-10.817-8.887zm-72.733 36.057c1.034-1.527 2.902-3.341 6.039-5.303l-7.42-11.871c-4.195 2.622-7.745 5.683-10.21 9.322l11.591 7.852zm3.953-4.43c5.376-1.282 11.162-3.759 17.302-7.204l-6.851-12.209c-5.444 3.055-9.991 4.911-13.699 5.796l3.248 13.617zm12.812-6.39c3.975.612 6.718-1.691 7.979-3.146l-10.58-9.17c.126-.144.554-.607 1.347-1.004a5.67 5.67 0 0 1 3.383-.517l-2.129 13.837zm4.122-.879c5.654-1.182 11.351-3.777 17.061-7.478l-7.613-11.748c-4.706 3.049-8.8 4.788-12.313 5.522l2.865 13.704zm15.261-6.646c11.079-3.314 21.047-9.75 29.917-18.981l-10.096-9.7c-7.464 7.769-15.412 12.75-23.833 15.269l4.012 13.412zm31.858-24.219c-.282-5.076-2.626-9.384-6.228-12.81l-9.647 10.146c1.48 1.408 1.845 2.516 1.897 3.44l13.978-.776zm-9.703-14.606c-26.377-5.179-38.204-15.514-40.929-28.788l-13.714 2.814c4.442 21.642 23.573 34.141 51.946 39.712l2.697-13.738zm39.964-43.131-6.997.216a7.001 7.001 0 0 0 .82 3.078l6.177-3.294zm7.562-17.5 1.868-6.746a7 7 0 0 0-6.653 1.637l4.785 5.109zm19.125 1.687 1.639-6.805a6.982 6.982 0 0 0-1.996-.185l.357 6.99zm3.375.813-1.638 6.806a7.001 7.001 0 0 0 1.638.194v-7zm7.5 0 3.131-6.261a7.001 7.001 0 0 0-3.131-.739v7zm1.625.813-3.13 6.26c.624.313 1.291.53 1.98.644l1.15-6.904zm8.375 0 1.265-6.885a6.983 6.983 0 0 0-2.202-.052l.937 6.937zm9.188 1.687 2.163-6.657a6.92 6.92 0 0 0-.899-.228l-1.264 6.885zm2.5.813 5.426-4.422a6.995 6.995 0 0 0-3.263-2.236l-2.163 6.658zm5.812 9.187 6.982-.501a6.998 6.998 0 0 0-.789-2.762l-6.193 3.263zm-22.5 14.187.186-6.997a6.998 6.998 0 0 0-7.108 5.96l6.922 1.037zm-2.5 16.688 6.164 3.319a7.027 7.027 0 0 0 .759-2.282l-6.923-1.037zm-.875 1.625-6.163-3.319a7.005 7.005 0 0 0-.837 3.319h7zm0 2.5 6.806 1.638a7.001 7.001 0 0 0 .194-1.638h-7zm-.812 3.375-6.806-1.638c-.08.334-.136.674-.167 1.017l6.973.621zm-.813 9.125 6.776 1.757a6.96 6.96 0 0 0 .197-1.136l-6.973-.621zm-.875 3.375-6.776-1.757a7.036 7.036 0 0 0-.224 1.757h7zm0 3.312 6.658 2.164a7.004 7.004 0 0 0 .342-2.164h-7zm-.812 2.5-6.657-2.163a6.527 6.527 0 0 0-.142.496l6.799 1.667zm-.813 3.313-6.798-1.668a6.998 6.998 0 0 0-.202 1.668h7zm0 2.5 6.852 1.432c.099-.471.148-.951.148-1.432h-7zm-.875 4.187-6.852-1.431c-.098.471-.148.95-.148 1.431h7zm0 3.313 6.806 1.638a7.001 7.001 0 0 0 .194-1.638h-7zm-.812 3.375-6.806-1.638a7 7 0 0 0 .694 5.051l6.112-3.413zm17.5 16.688 6.844 1.466a6.997 6.997 0 0 0-3.321-7.515l-3.523 6.049zm-2.5 7.5 2.472 6.548a7 7 0 0 0 3.941-3.743l-6.413-2.805zm-15 1.624.54-6.979a7.095 7.095 0 0 0-1.582.057l1.042 6.922zm-5.813.876.845 6.948.197-.026-1.042-6.922zm-6.687.812-6.965-.697a6.999 6.999 0 0 0 7.809 7.646l-.844-6.949zm-.813-3.312 5.747-3.998a7 7 0 0 0-3.982-2.776l-1.765 6.774zm-19.187-5-2.313 6.607c.18.063.363.118.548.166l1.765-6.773zm-2.5-.876-3.037 6.308c.236.113.478.213.724.3l2.313-6.608zm-1.688-.812 3.037-6.307a7.065 7.065 0 0 0-.873-.35l-2.164 6.657zm-2.5-.812-2.413 6.57c.082.031.166.059.25.087l2.163-6.657zm-9.187-3.376-4.217 5.588a7.002 7.002 0 0 0 1.803.983l2.414-6.571zm-3.313-2.5-6.996-.242a7 7 0 0 0 2.779 5.83l4.217-5.588zm12.5-19.187 6.98-.533a7 7 0 0 0-10.325-5.616l3.345 6.149zm19.188 5.875 1.462 6.846a7.002 7.002 0 0 0 5.391-5.418l-6.853-1.428zm1.687-15-6.307-3.037a6.997 6.997 0 0 0-.684 2.697l6.991.34zm.813-1.688 6.307 3.037c.356-.74.58-1.538.66-2.356l-6.967-.681zm.812-8.312-6.607-2.312a7.005 7.005 0 0 0-.359 1.631l6.966.681zm.875-2.5 6.607 2.312c.172-.49.289-.999.348-1.515l-6.955-.797zm1.625-14.188-6.632-2.238a6.979 6.979 0 0 0-.322 1.442l6.954.796zm1.688-5 6.632 2.239c.22-.652.343-1.332.364-2.02l-6.996-.219zm2.5-14.187 6.736 1.903c.175-.619.264-1.26.264-1.903h-7zm0-2.5h7a7 7 0 0 0-7-7v7zm-17.5 4.187v7c.972 0 1.934-.202 2.823-.594l-2.823-6.406zm-2.5 0-6.872 1.337a7 7 0 0 0 6.872 5.663v-7zm3.621-9.403c-.141-4.596 1.461-8.532 5.351-12.175l-9.57-10.218c-6.61 6.19-10.049 13.921-9.774 22.825l13.993-.432zm-1.302-10.538c6.324 1.751 13.484 2.335 21.351 1.932l-.715-13.981c-6.8.347-12.39-.194-16.9-1.443l-3.736 13.492zm19.355 1.747 3.375.813 3.277-13.612-3.375-.812-3.277 13.611zm5.013 1.007h2.5v-14h-2.5v14zm2.5 0h2.5v-14h-2.5v14zm2.5 0h2.5v-14h-2.5v14zm-.63-.739 1.625.812 6.261-12.521-1.625-.813-6.261 12.522zm3.605 1.456c3.326.555 6.837.522 10.463.032l-1.875-13.873c-2.541.343-4.614.311-6.287.032l-2.301 13.809zm8.261-.02 9.187 1.688 2.529-13.77-9.187-1.687-2.529 13.769zm8.288 1.46 2.5.813 4.327-13.315-2.5-.812-4.327 13.314zm-.763-1.423c1.433 1.758 3.124 4.38 5.046 8.029l12.386-6.526c-2.16-4.101-4.344-7.604-6.579-10.346l-10.853 8.843zm4.257 5.267c.112 1.552-.128 2.462-.373 2.989-.224.483-.616 1.002-1.472 1.542-1.981 1.249-6.082 2.354-13.487 2.158l-.371 13.995c8.303.22 15.806-.83 21.325-4.311 2.894-1.825 5.226-4.313 6.7-7.481 1.453-3.125 1.885-6.508 1.642-9.894l-13.964 1.002zm-22.44 12.649-2.5 16.688 13.845 2.074 2.5-16.687-13.845-2.075zm-1.741 14.406-.875 1.625 12.327 6.638.875-1.625-12.327-6.638zm-1.712 4.944v2.5h14v-2.5h-14zm.195.862-.813 3.375 13.611 3.276.813-3.375-13.611-3.276zm-.98 4.392-.812 9.125 13.945 1.242.812-9.125-13.945-1.242zm-.616 7.989-.875 3.375 13.552 3.514.875-3.375-13.552-3.514zm-1.099 5.132v3.312h14v-3.312h-14zm.343 1.149-.812 2.5 13.314 4.327.813-2.5-13.315-4.327zm-.954 2.996-.812 3.312 13.597 3.336.812-3.313-13.597-3.335zm-1.014 4.98v2.5h14v-2.5h-14zm.148 1.068-.875 4.188 13.704 2.863.875-4.187-13.704-2.864zm-1.023 5.619v3.313h14v-3.313h-14zm.195 1.675-.813 3.375 13.611 3.276.813-3.375-13.611-3.276zm-.119 8.426c4.34 7.772 11.213 14.153 20.089 19.323l7.046-12.097c-7.291-4.247-12.085-8.99-14.912-14.052l-12.223 6.826zm16.767 11.808c-.383 1.786-1.051 3.835-2.068 6.161l12.826 5.611c1.316-3.007 2.314-5.959 2.931-8.839l-13.689-2.933zm1.872 2.418c-2.842 1.073-6.746 1.6-11.987 1.194l-1.081 13.959c6.593.51 12.689-.045 18.013-2.056l-4.945-13.097zm-13.569 1.251-5.813.875 2.084 13.845 5.813-.875-2.084-13.845zm-5.615.849-6.687.812 1.688 13.898 6.688-.813-1.689-13.897zm1.122 8.458c.277-2.774-.337-5.571-2.031-8.007l-11.493 7.995a2.393 2.393 0 0 1-.349-.783 1.83 1.83 0 0 1-.057-.599l13.93 1.394zm-6.013-10.783-19.187-5-3.53 13.547 19.187 5 3.53-13.547zm-18.64-4.834-2.5-.875-4.625 13.215 2.5.875 4.625-13.215zm-1.775-.575-1.688-.812-6.073 12.614 1.687.813 6.074-12.615zm-2.561-1.162-2.5-.813-4.327 13.315 2.5.812 4.327-13.314zm-2.25-.726-9.187-3.375-4.828 13.141 9.188 3.375 4.827-13.141zm-7.384-2.392-3.313-2.5-8.434 11.175 3.313 2.5 8.434-11.175zm-.534 3.33c.197-5.69 2.755-9.965 8.85-13.281l-6.691-12.298c-9.988 5.434-15.764 13.951-16.151 25.094l13.992.485zm-1.475-18.897c.211 2.767 1.099 5.552 3.024 7.924 1.917 2.363 4.447 3.806 7.078 4.611 4.953 1.517 11.074 1.031 17.527-.347l-2.924-13.692c-5.839 1.247-9.062 1.094-10.504.653-.567-.174-.498-.283-.305-.045.2.247.101.333.063-.17l-13.959 1.066zm33.02 6.77c.934-4.483 1.524-9.876 1.826-16.088l-13.983-.68c-.282 5.788-.816 10.395-1.549 13.912l13.706 2.856zm1.141-13.391.813-1.688-12.614-6.073-.813 1.687 12.614 6.074zm1.473-4.044.812-8.312-13.933-1.362-.813 8.313 13.934 1.361zm.452-6.681.875-2.5-13.214-4.624-.875 2.5 13.214 4.624zm1.223-4.015 1.625-14.188-13.909-1.593-1.625 14.187 13.909 1.594zm1.303-12.746 1.687-5-13.265-4.477-1.687 5 13.265 4.477zm2.051-7.02c.102-3.248.795-7.386 2.24-12.503l-13.473-3.806c-1.638 5.799-2.611 11.12-2.76 15.872l13.993.437zm2.504-14.406v-2.5h-14v2.5h14zm-7-9.5c-6.549 0-13.354 1.71-20.324 4.782l5.647 12.811c5.697-2.511 10.559-3.593 14.677-3.593v-14zm-17.5 4.187h-2.5v14h2.5v-14zm4.371 5.664c-.735-3.782-2.126-7.501-4.07-11.145l-12.353 6.588c1.39 2.606 2.249 5.012 2.68 7.23l13.743-2.673zm123.129-28.664 6.839-1.492a7 7 0 0 0-13.613-.274l6.774 1.766zm.75 3.438v7a7 7 0 0 0 6.839-8.492l-6.839 1.492zm-.75-7a7 7 0 1 0 0 14v-14zm.75 7 6.441-2.74a6.999 6.999 0 0 0-6.441-4.26v7zm3.75 39-6.932-.974a6.993 6.993 0 0 0 .022 2.093l6.91-1.119zm-18.75 66 1.58 6.819a7 7 0 0 0 3.877-2.435l-5.457-4.384zm-11.25 0-5.283 4.592a6.994 6.994 0 0 0 3.95 2.28l1.333-6.872zm-10.5-20.25 6.734-1.909a6.993 6.993 0 0 0-.656-1.564l-6.078 3.473zm-3-5.25-6.261 3.13c.058.116.119.231.183.343l6.078-3.473zm-.75-1.5 6.261-3.13a7.055 7.055 0 0 0-.437-.753l-5.824 3.883zm-3-4.5 5.824-3.883a6.999 6.999 0 0 0-11.829.286l6.005 3.597zm-9.75 33 2.843 6.397a7 7 0 0 0 4.137-5.872l-6.98-.525zm-11.25 9-6.888 1.246a7 7 0 0 0 12.327 3.16L372.933 343zm-6.75-12-6.983-.493a6.997 6.997 0 0 0 2.09 5.499l4.893-5.006zm2.25-12.75 6.787 1.711a6.998 6.998 0 0 0 .213-1.711h-7zm0-2.25-6.869-1.347a7.005 7.005 0 0 0-.131 1.347h7zm.75-7.5-6.641-2.214a7.026 7.026 0 0 0-.356 2.011l6.997.203zm.75-2.25 6.641 2.214a7.003 7.003 0 0 0 .359-2.214h-7zm0-5.25-6.93-.99a6.98 6.98 0 0 0-.07.99h7zm.75-5.25-6.641-2.214a7.048 7.048 0 0 0-.289 1.224l6.93.99zm.75-2.25 6.641 2.214a7.21 7.21 0 0 0 .264-1.063l-6.905-1.151zm.75-4.5 6.905 1.151c.008-.054.017-.107.024-.161l-6.929-.99zm1.5-10.5 6.929.99c.047-.328.071-.659.071-.99h-7zm0-3-5.696-4.069a7.003 7.003 0 0 0-1.304 4.069h7zm3.75-6.75 6.372 2.897a7 7 0 0 0 .626-3.06l-6.998.163zm1.5-14.25-6.5-2.6a7.25 7.25 0 0 0-.254.758l6.754 1.842zm1.5-3.75-5.621-4.173a7.037 7.037 0 0 0-.879 1.573l6.5 2.6zm9-8.25-2.228-6.636a7 7 0 0 0-1.766.887l3.994 5.749zm17.25 3 6.914-1.095a7.001 7.001 0 0 0-2.993-4.704l-3.921 5.799zm-2.25 15.75-6.462-2.692a7 7 0 0 0-.124 5.063l6.586-2.371zm6.75 18.75-6.586 2.371c.11.308.242.607.395.896l6.191-3.267zm2.25 6-6.735 1.908c.199.702.506 1.368.91 1.975l5.825-3.883zm1.5 2.25-5.825 3.883a7.002 7.002 0 0 0 12.781-3.1l-6.956-.783zm3-12 6.61 2.302c.07-.199.13-.4.181-.604l-6.791-1.698zm1.5-6 6.791 1.698a6.993 6.993 0 0 0 .209-1.698h-7zm0-2.25-6.641-2.214a7.003 7.003 0 0 0-.359 2.214h7zm.75-2.25 6.641 2.214c.091-.276.166-.557.223-.841l-6.864-1.373zm.75-3.75-6.641-2.214a7.04 7.04 0 0 0-.223.841l6.864 1.373zm.75-2.25 6.641 2.214c.104-.315.187-.636.246-.962l-6.887-1.252zm1.5-8.25 6.887 1.252.013-.072-6.9-1.18zm-.75-7.5-6.641-2.214a7 7 0 0 0 .555 5.672l6.086-3.458zm.75-2.25-6.003-3.601a7.052 7.052 0 0 0-.638 1.387l6.641 2.214zm2.25-3.75-3.275-6.187a7 7 0 0 0-2.728 2.586l6.003 3.601zm6.75-7.5-4.95-4.95a7.001 7.001 0 0 0-1.37 1.94l6.32 3.01zm2.25-2.25.773-6.957a7.002 7.002 0 0 0-5.723 2.007l4.95 4.95zm-4.589-2.695.75 3.437 13.678-2.984-.75-3.438-13.678 2.985zm7.589-5.055h-.75v14h.75v-14zm-.75 14h.75v-14h-.75v14zm-5.692-4.26c4.002 9.409 5.259 21.059 3.26 35.286l13.864 1.948c2.251-16.023 1.008-30.373-4.241-42.714l-12.883 5.48zm3.282 37.379c3.486 21.525-2.084 41.558-17.298 60.497l10.915 8.768c17.453-21.727 24.383-45.695 20.203-71.503l-13.82 2.238zm-13.42 58.062c-2.3.532-5.042.586-8.338-.053l-2.665 13.744c4.871.944 9.629.998 14.163-.053l-3.16-13.638zm-4.387 2.227c-3.927-4.518-6.99-10.306-9.049-17.567l-13.469 3.818c2.525 8.906 6.462 16.618 11.952 22.933l10.566-9.184zm-9.705-19.131-3-5.25-12.156 6.946 3 5.25 12.156-6.946zm-2.817-4.907-.75-1.5-12.522 6.26.75 1.5 12.522-6.26zm-1.187-2.253-1.5-2.25-11.649 7.766 1.5 2.25 11.649-7.766zm-1.5-2.25-1.5-2.25-11.649 7.766 1.5 2.25 11.649-7.766zm-13.329-1.964c-6.196 10.342-9.701 22.437-10.726 36.072l13.961 1.05c.892-11.865 3.888-21.77 8.775-29.928l-12.01-7.194zm-6.588 30.2c-5.309 2.36-9.906 6.126-13.847 10.991l10.879 8.812c2.809-3.468 5.713-5.702 8.654-7.009l-5.686-12.794zm-1.519 14.151c-1.092-6.032-4.176-11.293-8.745-15.76l-9.786 10.012c2.847 2.783 4.263 5.522 4.755 8.24l13.776-2.492zm-6.656-10.261c.212-2.995.866-6.815 2.055-11.532l-13.575-3.422c-1.311 5.2-2.156 9.88-2.445 13.968l13.965.986zm2.268-13.243V316h-14v2.25h14zm-.131-.903c.51-2.602.787-5.502.878-8.644l-13.994-.406c-.076 2.608-.299 4.708-.622 6.356l13.738 2.694zm.522-6.633.75-2.25-13.282-4.428-.75 2.25 13.282 4.428zm1.109-4.464V301h-14v5.25h14zm-.071-4.26.75-5.25-13.859-1.98-.75 5.25 13.859 1.98zm.462-4.026.75-2.25-13.282-4.428-.75 2.25 13.282 4.428zm1.014-3.313.75-4.5-13.81-2.302-.75 4.5 13.81 2.302zm.774-4.661.75-5.25-13.859-1.98-.75 5.25 13.859 1.98zm.75-5.25.75-5.25-13.859-1.98-.75 5.25 13.859 1.98zm.821-6.24v-3h-14v3h14zm-1.304 1.069c1.594-2.232 3.058-4.912 4.426-7.922l-12.745-5.794c-1.131 2.49-2.168 4.31-3.073 5.578l11.392 8.138zm5.052-10.982c-.113-4.864.347-8.916 1.255-12.245l-13.507-3.684c-1.341 4.921-1.881 10.369-1.744 16.255l13.996-.326zm1.001-11.487 1.5-3.75-12.999-5.2-1.5 3.75 12.999 5.2zm.621-2.177c1.446-1.947 3.806-4.196 7.374-6.674l-7.988-11.498c-4.349 3.022-7.989 6.273-10.627 9.826l11.241 8.346zm5.608-5.787c3.29-1.105 6.786-.755 11.1 2.163l7.843-11.598c-7.269-4.916-15.273-6.566-23.399-3.837l4.456 13.272zm8.108-2.541c.555 3.508.085 7.444-1.798 11.963l12.923 5.384c2.701-6.481 3.73-13.045 2.703-19.537l-13.828 2.19zm-1.922 17.026 6.75 18.75 13.172-4.742-6.75-18.75-13.172 4.742zm7.145 19.646c.477.903 1.069 2.392 1.706 4.641l13.47-3.816c-.78-2.751-1.688-5.262-2.795-7.359l-12.381 6.534zm2.616 6.616 1.5 2.25 11.649-7.766-1.5-2.25-11.649 7.766zm14.281-.85c.296-2.635 1.128-6.098 2.654-10.481l-13.221-4.604c-1.724 4.951-2.892 9.488-3.345 13.519l13.912 1.566zm2.835-11.085 1.5-6-13.582-3.396-1.5 6 13.582 3.396zm1.709-7.698V268h-14v2.25h14zm-.359-.036.75-2.25-13.282-4.428-.75 2.25 13.282 4.428zm.973-3.091.75-3.75-13.728-2.746-.75 3.75 13.728 2.746zm.527-2.909.75-2.25-13.282-4.428-.75 2.25 13.282 4.428zm.996-3.212 1.5-8.25-13.774-2.504-1.5 8.25 13.774 2.504zm1.513-8.322c.678-3.963.601-8.328-1.564-12.138l-12.172 6.916c-.082-.143.341.492-.064 2.862l13.8 2.36zm-1.009-6.466.75-2.25-13.282-4.428-.75 2.25 13.282 4.428zm.111-.863 2.25-3.75-12.005-7.202-2.25 3.75 12.005 7.202zm-.477-1.164c4.423-2.342 7.62-6.11 9.795-10.677l-12.64-6.02c-1.159 2.433-2.462 3.665-3.705 4.323l6.55 12.374zm8.425-8.737 2.25-2.25-9.9-9.9-2.25 2.25 9.9 9.9zm-3.473-.243c2.712.302 4.778-.883 5.945-1.904 1.08-.945 1.741-2.02 2.119-2.724.775-1.443 1.316-3.155 1.732-4.75l-13.547-3.533c-.334 1.28-.543 1.703-.517 1.656.003-.006.288-.567.994-1.185a6.286 6.286 0 0 1 4.82-1.474l-1.546 13.914zm22.898 9.668-6.997.216a7.001 7.001 0 0 0 .82 3.078l6.177-3.294zm7.562-17.5 1.868-6.746a7 7 0 0 0-6.653 1.637l4.785 5.109zm19.125 1.687 1.639-6.805a6.982 6.982 0 0 0-1.996-.185l.357 6.99zm3.375.813-1.638 6.806a7.001 7.001 0 0 0 1.638.194v-7zm7.5 0 3.131-6.261a7.001 7.001 0 0 0-3.131-.739v7zm1.625.813-3.13 6.26c.624.313 1.291.53 1.98.644l1.15-6.904zm8.375 0 1.265-6.885a6.983 6.983 0 0 0-2.202-.052l.937 6.937zm9.188 1.687 2.163-6.657a6.92 6.92 0 0 0-.899-.228l-1.264 6.885zm2.5.813 5.426-4.422a6.995 6.995 0 0 0-3.263-2.236l-2.163 6.658zm5.812 9.187 6.982-.501a6.998 6.998 0 0 0-.789-2.762l-6.193 3.263zm-22.5 14.187.186-6.997a6.998 6.998 0 0 0-7.108 5.96l6.922 1.037zm-2.5 16.688 6.164 3.319a7.027 7.027 0 0 0 .759-2.282l-6.923-1.037zm-.875 1.625-6.163-3.319a7.005 7.005 0 0 0-.837 3.319h7zm0 2.5 6.806 1.638a7.001 7.001 0 0 0 .194-1.638h-7zm-.812 3.375-6.806-1.638c-.08.334-.136.674-.167 1.017l6.973.621zm-.813 9.125 6.776 1.757a6.96 6.96 0 0 0 .197-1.136l-6.973-.621zm-.875 3.375-6.776-1.757a7.036 7.036 0 0 0-.224 1.757h7zm0 3.312 6.658 2.164a7.004 7.004 0 0 0 .342-2.164h-7zm-.812 2.5-6.657-2.163a6.527 6.527 0 0 0-.142.496l6.799 1.667zm-.813 3.313-6.798-1.668a6.998 6.998 0 0 0-.202 1.668h7zm0 2.5 6.852 1.432c.099-.471.148-.951.148-1.432h-7zm-.875 4.187-6.852-1.431c-.098.471-.148.95-.148 1.431h7zm0 3.313 6.806 1.638a7.001 7.001 0 0 0 .194-1.638h-7zm-.812 3.375-6.806-1.638a7 7 0 0 0 .694 5.051l6.112-3.413zm17.5 16.688 6.844 1.466a6.997 6.997 0 0 0-3.321-7.515l-3.523 6.049zm-2.5 7.5 2.472 6.548a7 7 0 0 0 3.941-3.743l-6.413-2.805zm-15 1.624.54-6.979a7.095 7.095 0 0 0-1.582.057l1.042 6.922zm-5.813.876.845 6.948.197-.026-1.042-6.922zm-6.687.812-6.965-.697a6.999 6.999 0 0 0 7.809 7.646l-.844-6.949zm-.813-3.312 5.747-3.998a7 7 0 0 0-3.982-2.776l-1.765 6.774zm-19.187-5-2.313 6.607c.18.063.363.118.548.166l1.765-6.773zm-2.5-.876-3.037 6.308c.236.113.478.213.724.3l2.313-6.608zm-1.688-.812 3.037-6.307a7.065 7.065 0 0 0-.873-.35l-2.164 6.657zm-2.5-.812-2.413 6.57c.082.031.166.059.25.087l2.163-6.657zm-9.187-3.376-4.217 5.588a7.002 7.002 0 0 0 1.803.983l2.414-6.571zm-3.313-2.5-6.996-.242a7 7 0 0 0 2.779 5.83l4.217-5.588zm12.5-19.187 6.98-.533a7 7 0 0 0-10.325-5.616l3.345 6.149zm19.188 5.875 1.462 6.846a7.002 7.002 0 0 0 5.391-5.418l-6.853-1.428zm1.687-15-6.307-3.037a6.997 6.997 0 0 0-.684 2.697l6.991.34zm.813-1.688 6.307 3.037c.356-.74.58-1.538.66-2.356l-6.967-.681zm.812-8.312-6.607-2.312a7.005 7.005 0 0 0-.359 1.631l6.966.681zm.875-2.5 6.607 2.312c.172-.49.289-.999.348-1.515l-6.955-.797zm1.625-14.188-6.632-2.238a6.979 6.979 0 0 0-.322 1.442l6.954.796zm1.688-5 6.632 2.239c.22-.652.343-1.332.364-2.02l-6.996-.219zm2.5-14.187 6.736 1.903c.175-.619.264-1.26.264-1.903h-7zm0-2.5h7a7 7 0 0 0-7-7v7zm-17.5 4.187v7c.972 0 1.934-.202 2.823-.594l-2.823-6.406zm-2.5 0-6.872 1.337a7 7 0 0 0 6.872 5.663v-7zm3.621-9.403c-.141-4.596 1.461-8.532 5.351-12.175l-9.57-10.218c-6.61 6.19-10.049 13.921-9.774 22.825l13.993-.432zm-1.302-10.538c6.324 1.751 13.484 2.335 21.351 1.932l-.715-13.981c-6.8.347-12.39-.194-16.9-1.443l-3.736 13.492zm19.355 1.747 3.375.813 3.277-13.612-3.375-.812-3.277 13.611zm5.013 1.007h2.5v-14h-2.5v14zm2.5 0h2.5v-14h-2.5v14zm2.5 0h2.5v-14h-2.5v14zm-.63-.739 1.625.812 6.261-12.521-1.625-.813-6.261 12.522zm3.605 1.456c3.326.555 6.837.522 10.463.032l-1.875-13.873c-2.541.343-4.614.311-6.287.032l-2.301 13.809zm8.261-.02 9.187 1.688 2.529-13.77-9.187-1.687-2.529 13.769zm8.288 1.46 2.5.813 4.327-13.315-2.5-.812-4.327 13.314zm-.763-1.423c1.433 1.758 3.124 4.38 5.046 8.029l12.386-6.526c-2.16-4.101-4.344-7.604-6.579-10.346l-10.853 8.843zm4.257 5.267c.112 1.552-.128 2.462-.373 2.989-.224.483-.616 1.002-1.472 1.542-1.981 1.249-6.082 2.354-13.487 2.158l-.371 13.995c8.303.22 15.806-.83 21.325-4.311 2.894-1.825 5.226-4.313 6.7-7.481 1.453-3.125 1.885-6.508 1.642-9.894l-13.964 1.002zm-22.44 12.649-2.5 16.688 13.845 2.074 2.5-16.687-13.845-2.075zm-1.741 14.406-.875 1.625 12.327 6.638.875-1.625-12.327-6.638zm-1.712 4.944v2.5h14v-2.5h-14zm.195.862-.813 3.375 13.611 3.276.813-3.375-13.611-3.276zm-.98 4.392-.812 9.125 13.945 1.242.812-9.125-13.945-1.242zm-.616 7.989-.875 3.375 13.552 3.514.875-3.375-13.552-3.514zm-1.099 5.132v3.312h14v-3.312h-14zm.343 1.149-.812 2.5 13.314 4.327.813-2.5-13.315-4.327zm-.954 2.996-.812 3.312 13.597 3.336.812-3.313-13.597-3.335zm-1.014 4.98v2.5h14v-2.5h-14zm.148 1.068-.875 4.188 13.704 2.863.875-4.187-13.704-2.864zm-1.023 5.619v3.313h14v-3.313h-14zm.195 1.675-.813 3.375 13.611 3.276.813-3.375-13.611-3.276zm-.119 8.426c4.34 7.772 11.213 14.153 20.089 19.323l7.046-12.097c-7.291-4.247-12.085-8.99-14.912-14.052l-12.223 6.826zm16.767 11.808c-.383 1.786-1.051 3.835-2.068 6.161l12.826 5.611c1.316-3.007 2.314-5.959 2.931-8.839l-13.689-2.933zm1.872 2.418c-2.842 1.073-6.746 1.6-11.987 1.194l-1.081 13.959c6.593.51 12.689-.045 18.013-2.056l-4.945-13.097zm-13.569 1.251-5.813.875 2.084 13.845 5.813-.875-2.084-13.845zm-5.615.849-6.687.812 1.688 13.898 6.688-.813-1.689-13.897zm1.122 8.458c.277-2.774-.337-5.571-2.031-8.007l-11.493 7.995a2.393 2.393 0 0 1-.349-.783 1.83 1.83 0 0 1-.057-.599l13.93 1.394zm-6.013-10.783-19.187-5-3.53 13.547 19.187 5 3.53-13.547zm-18.64-4.834-2.5-.875-4.625 13.215 2.5.875 4.625-13.215zm-1.775-.575-1.688-.812-6.073 12.614 1.687.813 6.074-12.615zm-2.561-1.162-2.5-.813-4.327 13.315 2.5.812 4.327-13.314zm-2.25-.726-9.187-3.375-4.828 13.141 9.188 3.375 4.827-13.141zm-7.384-2.392-3.313-2.5-8.434 11.175 3.313 2.5 8.434-11.175zm-.534 3.33c.197-5.69 2.755-9.965 8.85-13.281l-6.691-12.298c-9.988 5.434-15.764 13.951-16.151 25.094l13.992.485zm-1.475-18.897c.211 2.767 1.099 5.552 3.024 7.924 1.917 2.363 4.447 3.806 7.078 4.611 4.953 1.517 11.074 1.031 17.527-.347l-2.924-13.692c-5.839 1.247-9.062 1.094-10.504.653-.567-.174-.498-.283-.305-.045.2.247.101.333.063-.17l-13.959 1.066zm33.02 6.77c.934-4.483 1.524-9.876 1.826-16.088l-13.983-.68c-.282 5.788-.816 10.395-1.549 13.912l13.706 2.856zm1.141-13.391.813-1.688-12.614-6.073-.813 1.687 12.614 6.074zm1.473-4.044.812-8.312-13.933-1.362-.813 8.313 13.934 1.361zm.452-6.681.875-2.5-13.214-4.624-.875 2.5 13.214 4.624zm1.223-4.015 1.625-14.188-13.909-1.593-1.625 14.187 13.909 1.594zm1.303-12.746 1.687-5-13.265-4.477-1.687 5 13.265 4.477zm2.051-7.02c.102-3.248.795-7.386 2.24-12.503l-13.473-3.806c-1.638 5.799-2.611 11.12-2.76 15.872l13.993.437zm2.504-14.406v-2.5h-14v2.5h14zm-7-9.5c-6.549 0-13.354 1.71-20.324 4.782l5.647 12.811c5.697-2.511 10.559-3.593 14.677-3.593v-14zm-17.5 4.187h-2.5v14h2.5v-14zm4.371 5.664c-.735-3.782-2.126-7.501-4.07-11.145l-12.353 6.588c1.39 2.606 2.249 5.012 2.68 7.23l13.743-2.673zm68.254 7.899-6.966-.694a6.988 6.988 0 0 0 .109 2.101l6.857-1.407zm41.562-33.375.162-6.998a6.855 6.855 0 0 0-.86.033l.698 6.965zm8.938 21.188-1.06 6.919a7 7 0 0 0 6.672-2.736l-5.612-4.183zm-30.125 11.374-5.562-4.25a7 7 0 0 0-.279 8.109l5.841-3.859zm6.5 6.563-4.132 5.65a6.986 6.986 0 0 0 2.696 1.201l1.436-6.851zm40.75 47.187 5.408 4.444a6.986 6.986 0 0 0 1.101-1.867l-6.509-2.577zm-83.938 27.688-5.795-3.926a6.999 6.999 0 0 0 4.918 10.871l.877-6.945zm8.125-7.312-1.624-6.809a6.984 6.984 0 0 0-2.086.873l3.71 5.936zm15.5-6.5 1.065-6.919a6.999 6.999 0 0 0-4.49.814l3.425 6.105zm1.625-.813-1.432-6.852a7.01 7.01 0 0 0-3.858 2.267l5.29 4.585zm14.688-6.5-2.006-6.706c-.637.19-1.243.47-1.801.832l3.807 5.874zM585.558 303l5.048 4.85a6.998 6.998 0 0 0 1.941-5.238l-6.989.388zm-4.063-8.125 4.824-5.073a6.997 6.997 0 0 0-3.475-1.796l-1.349 6.869zm-39.472-33.556c.816-8.194 3.987-14.082 9.277-18.33 5.492-4.41 13.91-7.559 26.019-8.774l-1.397-13.93c-13.641 1.368-25.025 5.073-33.388 11.788-8.564 6.877-13.299 16.385-14.442 27.858l13.931 1.388zm34.435-27.071c3.654.085 5.973.546 7.308 1.064 1.257.487 1.013.754.795.237-.174-.413.18-.152-.405 1.521-.581 1.665-1.865 4.037-4.21 7.184l11.224 8.367c2.779-3.728 4.967-7.395 6.203-10.933 1.233-3.53 1.751-7.637.088-11.581-1.708-4.048-5.095-6.477-8.635-7.849-3.461-1.341-7.593-1.903-12.044-2.006l-.324 13.996zm10.159 7.27c-7.341-1.124-14.3-.655-20.657 1.746-6.387 2.411-11.746 6.615-16.089 12.298l11.124 8.501c2.948-3.858 6.256-6.322 9.911-7.702 3.684-1.391 8.142-1.839 13.592-1.004l2.119-13.839zm-37.025 22.153c2.095 3.17 4.899 5.934 8.209 8.354l8.264-11.3c-2.274-1.663-3.803-3.274-4.792-4.771l-11.681 7.717zm10.905 9.555c17.847 3.74 28.504 9.182 33.763 15.271 4.665 5.402 5.928 12.348 1.914 22.489l13.018 5.153c5.402-13.651 4.582-26.465-4.336-36.792-8.325-9.64-22.751-15.897-41.487-19.823l-2.872 13.702zm36.777 35.893c-17.089 20.799-42.409 29.636-77.652 25.186l-1.754 13.89c38.675 4.883 69.313-4.738 90.223-30.189l-10.817-8.887zm-72.733 36.057c1.034-1.527 2.902-3.341 6.039-5.303l-7.42-11.871c-4.195 2.622-7.745 5.683-10.21 9.322l11.591 7.852zm3.953-4.43c5.376-1.282 11.162-3.759 17.302-7.204l-6.851-12.209c-5.444 3.055-9.991 4.911-13.699 5.796l3.248 13.617zm12.812-6.39c3.975.612 6.718-1.691 7.979-3.146l-10.58-9.17c.126-.144.554-.607 1.347-1.004a5.67 5.67 0 0 1 3.383-.517l-2.129 13.837zm4.122-.879c5.654-1.182 11.351-3.777 17.061-7.478l-7.613-11.748c-4.706 3.049-8.8 4.788-12.313 5.522l2.865 13.704zm15.261-6.646c11.079-3.314 21.047-9.75 29.917-18.981l-10.096-9.7c-7.464 7.769-15.412 12.75-23.833 15.269l4.012 13.412zm31.858-24.219c-.282-5.076-2.626-9.384-6.228-12.81l-9.647 10.146c1.48 1.408 1.845 2.516 1.897 3.44l13.978-.776zm-9.703-14.606c-26.377-5.179-38.204-15.514-40.929-28.788l-13.714 2.814c4.442 21.642 23.573 34.141 51.946 39.712l2.697-13.738zm25.151-37.568-6.561-2.441a7.003 7.003 0 0 0-.108 4.565l6.669-2.124zm27.25-23-.793-6.955c-.308.035-.614.09-.914.166l1.707 6.789zM670.12 238.5l7-.055a6.998 6.998 0 0 0-2.589-5.38l-4.411 5.435zm-15.312 19.625-1.627-6.808a7 7 0 0 0-5.363 7.192l6.99-.384zm-3.438 22.125-6.633-2.235a6.994 6.994 0 0 0-.367 2.235h7zm0 2.562h-7c0 .22.011.44.031.659l6.969-.659zm-1.687 19.563-6.851-1.437a6.592 6.592 0 0 0-.063.341l6.914 1.096zm-.813 5.125-6.913-1.096a6.932 6.932 0 0 0-.087 1.096h7zm0 5.938 6.625 2.262a7.023 7.023 0 0 0 .375-2.262h-7zm-.875 2.562-6.624-2.262a7.01 7.01 0 0 0-.301 3.283l6.925-1.021zm.875 5.938h7c0-.342-.025-.683-.074-1.021l-6.926 1.021zm0 6.812 6.54 2.496c.304-.797.46-1.643.46-2.496h-7zm-20.437 7.688 5.619-4.175a7.001 7.001 0 0 0-8.656-2.133l3.037 6.308zm-1.688.812-6.994-.287a6.998 6.998 0 0 0 10.031 6.594l-3.037-6.307zm-.875-9.312-6.78-1.739a6.993 6.993 0 0 0-.051 3.267l6.831-1.528zm0-11.063-6.914-1.092a6.995 6.995 0 0 0 .053 2.478l6.861-1.386zm.875-17.063h-7l.003.177 6.997-.177zm0-25.5h7c0-.155-.005-.31-.015-.465l-6.985.465zm.813-11.124 6.895 1.205a7 7 0 0 0-7.532-8.177l.637 6.972zm-13.002-10.31c3.508-9.432 10.571-15.678 22.397-18.652l-3.415-13.577c-15.675 3.942-26.778 13.03-32.104 27.348l13.122 4.881zm21.483-18.486c10.322-1.177 20.111 1.785 29.67 9.543l8.822-10.87c-12.107-9.826-25.568-14.238-40.079-12.582l1.587 13.909zm27.082 4.163c.032 4.182-.949 6.801-2.285 8.514-1.334 1.709-3.621 3.284-7.655 4.248l3.253 13.616c6.258-1.494 11.669-4.42 15.44-9.252 3.767-4.829 5.297-10.793 5.246-17.236l-13.999.11zm-15.303 19.954c.317 5.773-.638 12.252-3.081 19.506l13.267 4.47c2.89-8.579 4.226-16.851 3.793-24.744l-13.979.768zm-3.448 21.741v2.562h14v-2.562h-14zm.031 3.221c.41 4.339-.025 10.103-1.569 17.467l13.702 2.874c1.706-8.136 2.395-15.413 1.805-21.658l-13.938 1.317zm-1.632 17.808-.812 5.125 13.827 2.192.812-5.125-13.827-2.192zm-.899 6.221v5.938h14V307.5h-14zm.376 3.675-.875 2.563 13.249 4.524.875-2.562-13.249-4.525zm-1.176 5.846.875 5.937 13.851-2.041-.875-5.938-13.851 2.042zm.8 4.917v6.812h14v-6.812h-14zm.461 4.316c-1.365 3.573-2.655 6.055-3.788 7.663-1.175 1.666-1.813 1.877-1.684 1.828.452-.17.801.044.504-.116-.543-.292-1.685-1.177-3.311-3.366l-11.238 8.349c2.228 2.999 4.828 5.684 7.915 7.345 3.333 1.793 7.2 2.343 11.059.892 3.535-1.33 6.191-4.018 8.199-6.867 2.049-2.908 3.829-6.559 5.423-10.736l-13.079-4.992zm-16.935 3.876-1.687.813 6.073 12.614 1.688-.812-6.074-12.615zm8.343 7.407c.152-3.69-.205-7.405-1.038-11.128l-13.662 3.057c.584 2.61.811 5.103.712 7.497l13.988.574zm-1.088-7.861c1.153-4.498 1.071-9.284.081-14.187l-13.723 2.772c.676 3.347.594 5.936.081 7.938l13.561 3.477zm.134-11.709c.835-5.293 1.132-11.428.958-18.331l-13.995.353c.159 6.347-.128 11.587-.792 15.794l13.829 2.184zm.96-18.155v-25.5h-14v25.5h14zm-.015-25.965c-.16-2.397.035-5.517.723-9.454l-13.791-2.411c-.812 4.646-1.158 8.943-.901 12.796l13.969-.931zm-6.809-17.631c-3.92.358-6.368-.353-7.963-1.393-1.578-1.028-3.148-2.916-4.293-6.51l-13.339 4.249c1.855 5.823 5.045 10.768 9.988 13.99 4.926 3.21 10.759 4.165 16.88 3.607l-1.273-13.943zm51.887 25.846 6.848 1.452c.18-.85.2-1.726.06-2.583l-6.908 1.131zm18.25-54.624-.126-6.999a7.053 7.053 0 0 0-.983.087l1.109 6.912zm41.75 14.75 6.531-2.518a6.99 6.99 0 0 0-2.416-3.145l-4.115 5.663zm-34.188 53.75-2.972-6.338a7 7 0 0 0-1.715 11.536l4.687-5.198zm3.813 3.437 6.218-3.215a6.997 6.997 0 0 0-1.531-1.984l-4.687 5.199zm11.375 13 4.26-5.554-.083-.063-4.177 5.617zm4.562 3.5-4.26 5.554c.234.179.479.344.733.492l3.527-6.046zm1.5.875-3.527 6.046c.098.058.197.112.298.165l3.229-6.211zm1.563.812 5.41-4.441a6.995 6.995 0 0 0-2.181-1.769l-3.229 6.21zm12.875 9.563 3.42-6.108a6.942 6.942 0 0 0-.531-.268l-2.889 6.376zm1.562.875 5.315-4.556a7.016 7.016 0 0 0-1.894-1.552L741.87 328zm1.5 1.75-5.314 4.556a6.994 6.994 0 0 0 2.886 2.009l2.428-6.565zm4.563 1.688 4.26-5.555a7.005 7.005 0 0 0-1.832-1.011l-2.428 6.566zm4.562 3.5-4.26 5.554c.234.179.479.343.733.492l3.527-6.046zm3 1.75 5.793-3.931a7 7 0 0 0-2.266-2.116l-3.527 6.047zm6.875 6.062 6.108-3.42a7.007 7.007 0 0 0-2.644-2.663l-3.464 6.083zm5.313 6.062-4.453 5.401c.082.069.167.135.253.2l4.2-5.601zm2.25 1.688-4.2 5.6c.215.162.44.311.673.446l3.527-6.046zm1.5.875 6.844-1.467a6.995 6.995 0 0 0-3.317-4.579l-3.527 6.046zm1.562 1.75 6.845-1.467a7.002 7.002 0 0 0-3.087-4.439l-3.758 5.906zm1.5 1.75h7a6.998 6.998 0 0 0-3.117-5.824l-3.883 5.824zm0 6.063 5.926 3.726a6.998 6.998 0 0 0 1.074-3.726h-7zM770.683 367l-1.222 6.893a6.999 6.999 0 0 0 7.147-3.167L770.683 367zm-9.875-1.75-3.792 5.884a7.01 7.01 0 0 0 2.57 1.009l1.222-6.893zm-12.125-7.812 3.791-5.885a6.99 6.99 0 0 0-1.471-.72l-2.32 6.605zm-2.313-.813-2.537 6.524c.072.028.144.055.217.08l2.32-6.604zm-2.25-.875-5.314 4.556a7.001 7.001 0 0 0 2.777 1.968l2.537-6.524zm-1.5-1.75 5.315-4.556a7.002 7.002 0 0 0-2.837-1.991L742.62 354zm-2.312-.875-4.058 5.704c.489.348 1.02.631 1.581.843l2.477-6.547zm-6.063-4.313 4.058-5.704a6.985 6.985 0 0 0-2.135-1.026l-1.923 6.73zm-3.062-.874-3.527 6.046a6.988 6.988 0 0 0 1.604.684l1.923-6.73zm-3-1.75-4.171 5.621c.207.154.421.295.644.425l3.527-6.046zM718.308 341l-4.556 5.315a7.03 7.03 0 0 0 2.038 1.217l2.518-6.532zm-3.063-2.625 4.556-5.315a6.995 6.995 0 0 0-1.128-.788l-3.428 6.103zm-4.562-2.563 3.428-6.103a6.876 6.876 0 0 0-.468-.24l-2.96 6.343zm-3.75-1.75-5.268 4.61a7 7 0 0 0 2.308 1.734l2.96-6.344zm-3.063-3.5 5.268-4.609a7.012 7.012 0 0 0-1.836-1.492l-3.432 6.101zm-3-1.687-6.291 3.07a7.01 7.01 0 0 0 2.859 3.031l3.432-6.101zm-3.812-7.813 6.291-3.069a7 7 0 0 0-12.331-.469l6.04 3.538zm-5.313 16.438 6.434 2.757a6.937 6.937 0 0 0 .473-1.62l-6.907-1.137zm-.75 1.75 5.482 4.353a6.987 6.987 0 0 0 .952-1.596l-6.434-2.757zm-3.062 5.188 1.873 6.744a7 7 0 0 0 4.513-3.877l-6.386-2.867zm-9.125-.813-6.845 1.467a7 7 0 0 0 3.994 4.926l2.851-6.393zm-1.5-1.75-6.998-.174a6.997 6.997 0 0 0 3.115 5.998l3.883-5.824zm-.75-19.063h-7c0 .19.008.38.023.569l6.977-.569zm0-12.187h7c0-.665-.095-1.328-.282-1.966l-6.718 1.966zm-.75-2.563 6.718-1.966a7 7 0 0 0-.809-1.786l-5.909 3.752zm-3.063-10.437-5.833-3.869a7.003 7.003 0 0 0-1.141 4.473l6.974-.604zm25.063-32.25h-7a6.999 6.999 0 0 0 9.835 6.4l-2.835-6.4zm2.25-15.937 1.749-6.778a6.999 6.999 0 0 0-8.656 5.642l6.907 1.136zm-2.25 13.687-6.907-1.135a6.962 6.962 0 0 0-.093 1.135h7zm-12.092 17.806c-2.688-16.413-2.333-28.008.169-35.494 1.213-3.632 2.862-6.092 4.737-7.752 1.85-1.64 4.268-2.81 7.544-3.336l-2.217-13.823c-5.556.891-10.524 3.059-14.611 6.68-4.064 3.6-6.904 8.322-8.732 13.795-3.582 10.721-3.518 25.022-.706 42.193l13.816-2.263zm11.467-46.495c12.117-.217 24.578 4.016 37.51 13.414l8.23-11.325c-14.818-10.769-30.19-16.369-45.991-16.086l.251 13.997zm35.093 10.269c3.375 8.754 2.641 16.205-1.765 23.132-4.672 7.345-13.898 14.743-28.863 21.763l5.945 12.675c16.035-7.522 28.006-16.353 34.731-26.924 6.99-10.99 7.849-23.144 3.015-35.681l-13.063 5.035zm-32.343 56.431 3.812 3.438 9.375-10.398-3.812-3.437-9.375 10.397zm2.282 1.454c3.092 5.982 7.636 11.103 13.415 15.402l8.355-11.234c-4.303-3.201-7.343-6.747-9.334-10.598l-12.436 6.43zm13.332 15.339 4.563 3.5 8.521-11.108-4.563-3.5-8.521 11.108zm5.296 3.992 1.5.875 7.054-12.092-1.5-.875-7.054 12.092zm1.798 1.04 1.562.812 6.459-12.421-1.562-.813-6.459 12.422zm-.618-.957c4.022 4.9 9.225 8.701 15.396 11.497l5.778-12.752c-4.496-2.037-7.877-4.611-10.354-7.628l-10.82 8.883zm14.865 11.229 1.562.875 6.841-12.216-1.563-.875-6.84 12.216zm-.332-.677 1.5 1.75 10.629-9.112-1.5-1.75-10.629 9.112zm4.386 3.759 4.563 1.688 4.856-13.131-4.562-1.687-4.857 13.13zm2.73.677 4.563 3.5 8.521-11.109-4.563-3.5-8.521 11.109zm5.296 3.992 1.5.875 7.054-12.093-1.5-.875-7.054 12.093zm1.5.875 1.5.875 7.054-12.093-1.5-.875-7.054 12.093zm-.765-1.241c2.304 3.396 5.478 6.093 9.203 8.215l6.928-12.166c-2.274-1.295-3.684-2.639-4.546-3.91l-11.585 7.861zm6.56 5.552c1.693 3.024 4.107 5.685 6.967 8.043l8.906-10.801c-1.89-1.559-3.018-2.94-3.658-4.082l-12.215 6.84zm7.22 8.243 2.25 1.687 8.4-11.2-2.25-1.688-8.4 11.201zm2.923 2.133 1.5.875 7.054-12.092-1.5-.875-7.054 12.092zm-1.818-3.704c.737 3.44 3.333 5.351 4.649 6.189l7.516-11.812c-.109-.069.088.035.386.369.304.341.879 1.111 1.138 2.32l-13.689 2.934zm1.563 1.75c.71 3.313 3.132 5.221 4.461 6.107l7.766-11.648c-.086-.058.112.057.401.393.296.347.819 1.083 1.061 2.214l-13.689 2.934zm1.344.283v6.063h14v-6.063h-14zm1.075 2.336-3.813 6.063 11.851 7.452 3.813-6.062-11.851-7.453zm3.334 2.896-9.875-1.75-2.443 13.786 9.875 1.75 2.443-13.786zm-7.305-.741-12.125-7.813-7.583 11.769 12.125 7.812 7.583-11.768zm-13.596-8.533-2.312-.812-4.641 13.208 2.312.813 4.641-13.209zm-2.096-.732-2.25-.875-5.074 13.048 2.25.875 5.074-13.048zm.528 1.093-1.5-1.75-10.629 9.112 1.5 1.75 10.629-9.112zm-4.337-3.741-2.313-.875-4.954 13.094 2.312.875 4.955-13.094zm-.733-.032-6.062-4.313-8.115 11.409 6.062 4.312 8.115-11.408zm-8.197-5.339-3.062-.875-3.846 13.461 3.062.875 3.846-13.461zm-1.458-.191-3-1.75-7.054 12.093 3 1.75 7.054-12.093zm-2.356-1.325c-3.227-2.395-7.122-4.399-11.529-6.098l-5.035 13.064c3.593 1.384 6.282 2.838 8.222 4.277l8.342-11.243zm-9.491-4.881-3.062-2.625-9.111 10.63 3.062 2.625 9.111-10.63zm-4.19-3.413-4.562-2.563-6.856 12.207 4.562 2.562 6.856-12.206zm-5.03-2.803-3.75-1.75-5.92 12.687 3.75 1.75 5.92-12.687zm-1.442-.016-3.063-3.5-10.536 9.219 3.063 3.5 10.536-9.219zm-4.899-4.992-3-1.687-6.864 12.202 3 1.688 6.864-12.203zm-.141 1.344-3.812-7.812-12.582 6.139 3.812 7.813 12.582-6.14zm-16.143-8.281c-2.999 5.118-4.972 11.506-6.18 18.839l13.814 2.274c1.043-6.334 2.611-10.904 4.446-14.036l-12.08-7.077zm-5.707 17.219-.75 1.75 12.868 5.514.75-1.75-12.868-5.514zm.203.154c-1.561 1.965-2.866 4.221-3.967 6.673l12.772 5.735c.732-1.631 1.469-2.834 2.158-3.702l-10.963-8.706zm.545 2.796c-1.296.36-2.669.311-4.4-.461l-5.702 12.786c4.435 1.978 9.145 2.471 13.849 1.164l-3.747-13.489zm-.407 4.465c-.709-3.313-3.132-5.221-4.461-6.107l-7.766 11.648c.086.058-.112-.057-.401-.393-.296-.347-.818-1.083-1.061-2.214l13.689-2.934zm-1.346-.109c.133-5.382-.135-12.005-.771-19.805l-13.954 1.137c.614 7.534.846 13.619.729 18.32l13.996.348zm-.748-19.237v-12.187h-14v12.187h14zm-.282-14.153-.75-2.563-13.436 3.933.75 2.562 13.436-3.932zm-1.559-4.349c-.872-1.374-1.683-3.654-1.998-7.289l-13.948 1.208c.436 5.032 1.666 9.71 4.127 13.586l11.819-7.505zm-3.138-2.816c3.322-5.008 5.615-11.082 7.077-17.98l-13.696-2.903c-1.205 5.685-2.953 9.987-5.048 13.145l11.667 7.738zm22.064-29.719c4.131-1.83 7.663-3.713 10.325-5.698 2.341-1.745 5.512-4.655 6.115-8.927.738-5.232-2.643-8.712-5.289-10.477-2.665-1.778-6.188-3.033-9.987-4.013l-3.498 13.555c1.583.409 2.849.813 3.835 1.197 1.004.391 1.588.712 1.88.907.318.212.059.12-.268-.417-.407-.667-.685-1.65-.536-2.709.129-.914.502-1.35.441-1.272-.058.074-.342.396-1.061.932-1.452 1.083-3.904 2.473-7.627 4.122l5.67 12.8zm-7.492-23.473-2.25 13.688 13.814 2.27 2.25-13.687-13.814-2.271zm-2.343 14.823v2.25h14v-2.25h-14zm87.25-25.937-3.889-5.821a7.007 7.007 0 0 0-2.181 2.333l6.07 3.488zm14.5-9.688 5.062-4.835a7 7 0 0 0-8.951-.985l3.889 5.82zm11.312 8.062 6.787 1.714a6.999 6.999 0 0 0-3.509-7.899l-3.278 6.185zM802.245 242l-6.787-1.713a7 7 0 0 0 .465 4.717l6.322-3.004zm-8.062 101.75-6.48 2.648a7 7 0 0 0 12.344 1.174l-5.864-3.822zm-5.875-14.375 6.48-2.648a7.006 7.006 0 0 0-3.939-3.875 7.006 7.006 0 0 0-5.522.189l2.981 6.334zM789.37 305l6.908 1.135a7 7 0 0 0-8.285-7.998L789.37 305zm-18.687 3.75-1.377-6.863a7 7 0 0 0-5.357 4.951l6.734 1.912zm-7.188 25.312 4.95 4.95a6.998 6.998 0 0 0 1.784-3.037l-6.734-1.913zm-8.062 8.063-1.747 6.778a7 7 0 0 0 6.697-1.828l-4.95-4.95zm-11.313-8.063-6.982-.501a6.998 6.998 0 0 0 1.537 4.9l5.445-4.399zm1.625-22.624-6.567-2.422a6.981 6.981 0 0 0-.415 1.92l6.982.502zm8.75-20.188 6.269 3.115a6.996 6.996 0 0 0 .695-3.828l-6.964.713zm-.812-7.938-6.503-2.59a6.99 6.99 0 0 0-.461 3.303l6.964-.713zm3.062-7.687-3.639-5.979a6.998 6.998 0 0 0-2.864 3.388l6.503 2.591zm7.188-4.375 3.639 5.979a6.996 6.996 0 0 0 2.998-3.754l-6.637-2.225zm7.625-22.75-6.07-3.487c-.23.401-.42.824-.567 1.262l6.637 2.225zm7.125 37.75-6.456-2.706a7 7 0 0 0 7.024 9.683l-.568-6.977zm10.75-.875.568 6.977a6.999 6.999 0 0 0 6.213-8.714l-6.781 1.737zM785.495 270l6.781-1.737a6.999 6.999 0 0 0-13.236-.969l6.455 2.706zm-3.549-26.992 14.5-9.688-7.777-11.64-14.5 9.687 7.777 11.641zm5.55-10.673c3.355 3.513 7.818 6.616 13.097 9.413l6.555-12.371c-4.472-2.369-7.55-4.641-9.528-6.712l-10.124 9.67zm9.587 1.514-1.625 6.438 13.574 3.426 1.625-6.437-13.574-3.427zm-1.16 11.155c15.274 32.143 12.887 63.48-7.605 94.924l11.729 7.644c23.009-35.306 25.996-71.802 8.521-108.576l-12.645 6.008zm4.74 96.098-5.875-14.375-12.96 5.296 5.875 14.375 12.96-5.296zm-15.336-18.061a6.277 6.277 0 0 1 3.152-.565 6.47 6.47 0 0 1 3.685 1.516 5.955 5.955 0 0 1 1.487 1.885c.21.426.296.745.321.849.041.166-.085-.418.001-2.39.158-3.618.894-9.613 2.305-18.201l-13.815-2.27c-1.423 8.662-2.28 15.355-2.477 19.861-.091 2.091-.084 4.429.4 6.376.202.816.792 2.923 2.704 4.551a7.536 7.536 0 0 0 4.308 1.782 7.72 7.72 0 0 0 3.89-.726l-5.961-12.668zm2.666-24.904-18.687 3.75 2.754 13.726 18.688-3.75-2.755-13.726zm-24.044 8.701-7.187 25.312 13.467 3.825 7.188-25.313-13.468-3.824zm-5.403 22.275-8.063 8.062 9.9 9.9 8.062-8.063-9.899-9.899zm-1.366 6.234c-2.167-.559-4.746-2.131-7.614-5.683l-10.891 8.797c4.131 5.115 9.094 8.918 15.011 10.442l3.494-13.556zm-6.078-.783 1.625-22.625-13.964-1.003-1.625 22.625 13.964 1.003zm1.211-20.705c2.366-6.415 5.181-12.913 8.451-19.494l-12.537-6.23c-3.48 7.002-6.498 13.963-9.049 20.881l13.135 4.843zm9.146-23.322-.813-7.937-13.927 1.425.813 7.938 13.927-1.426zm-1.273-4.634 3.062-7.687-13.006-5.182-3.062 7.688 13.006 5.181zm.199-4.299 7.187-4.375-7.279-11.958-7.187 4.375 7.279 11.958zm10.185-8.129 7.625-22.75-13.274-4.45-7.625 22.75 13.274 4.45zm7.057-21.488 6.5-11.312-12.139-6.975-6.5 11.313 12.139 6.974zm1.624 41.24 10.75-.875-1.136-13.954-10.75.875 1.136 13.954zm16.963-9.589-3.938-15.375-13.562 3.474 3.938 15.375 13.562-3.474zm-17.174-16.344-6.813 16.25 12.911 5.412 6.813-16.25-12.911-5.412z" fill="#fff"/><path d="M245.62 90.625c4.667-4.667 10.896-8.188 18.688-10.563 12.541.084 25.312 4.167 38.312 12.25l-.812 2.438c13.75 8.25 12.104 19.375-4.938 33.375 16.625 13.417 18 29.167 4.125 47.25-6 14.25-17.687 20.5-35.062 18.75-11.25 3.333-22.375 1.708-33.375-4.875.25-1.958.791-3.875 1.625-5.75l1.625-6.5v-5.688l.812-2.437v-6.5c1-2.333 1.542-5.063 1.625-8.187l1.625-3.25v-3.25c-2.583-3.75-3.125-7.834-1.625-12.25 4.334-9.667 6.5-21.063 6.5-34.188l.875-5.688v-4.937zm34.188 35.875c9.708-14.75 4.812-21.812-14.688-21.188-.5 2.459-.771 5.438-.812 8.938l-.813 5.75v4.875l-.812 2.437v2.438c4.791-.083 10.5-1.167 17.125-3.25zm2.437 39.125c4.542-5.875 5.354-12.396 2.438-19.563-5.75 2.126-12.271 3.209-19.563 3.25l-2.437.813-2.438.813c-4.125 10.874-4.666 17.937-1.625 21.187 10.542 5.083 18.417 2.917 23.625-6.5zm37.813-30.563c-5.5-33.583.583-51.791 18.25-54.625 13.958-.25 27.875 4.667 41.75 14.75 8.208 21.292-3.188 39.209-34.188 53.751l3.813 3.437c2.541 4.917 6.333 9.25 11.375 13l4.562 3.5 1.5.875 1.563.812c3.25 3.959 7.541 7.146 12.875 9.563l1.562.875 1.5 1.75 4.563 1.688 4.562 3.5 1.5.874 1.5.876c1.584 2.333 3.875 4.354 6.875 6.062 1.167 2.083 2.938 4.104 5.313 6.062l2.25 1.688 1.5.875c.125.583.646 1.167 1.562 1.75.125.583.625 1.167 1.5 1.75v6.063L411.933 220l-9.875-1.75-12.125-7.812-2.313-.813-2.25-.875-1.5-1.75-2.312-.875-6.063-4.313-3.062-.874-3-1.75c-2.584-1.917-5.875-3.646-9.875-5.188l-3.063-2.625-4.562-2.563-3.75-1.75-3.063-3.5-3-1.687-3.812-7.813c-2.417 4.126-4.188 9.605-5.313 16.438l-.75 1.75c-1.125 1.417-2.146 3.146-3.062 5.188-3 .833-6.042.562-9.125-.813-.125-.583-.625-1.167-1.5-1.75.125-5.042-.125-11.396-.75-19.063v-12.187l-.75-2.563c-1.667-2.624-2.688-6.104-3.063-10.437 2.709-4.083 4.729-9.271 6.063-15.563zm19-16.687c15.708-6.958 16.458-12.271 2.25-15.937l-2.25 13.687v2.25zm95.687-36.063c.625-.166 1.229-.77 1.813-1.812 22.5 7.625 34.583 24.542 36.25 50.75-6.584 30-24.709 51.438-54.375 64.312-3.084.334-6.396.042-9.938-.874-17.708-8.834-24.354-23.646-19.937-44.438l-3.625-10.875 6.312-16.313.938-2.687 2.687-7.25.938-2.75 9.062-11.75 1.813-1.813 4.75-11.937 3.437-1.25c2.542 3.292 7.354 2.854 14.438-1.313H434.745zm11.813 50.75c-1.917-12.208-7.063-19.166-15.438-20.874-1.458 3.291-3.875 6.624-7.25 10l-4.5 7.25-2.75 3.624c-.541 4-.229 8.834.938 14.5-1.209 7.5 0 15.042 3.625 22.626 11.791-8.667 20.25-21.042 25.375-37.126zm99.625-50.937c.875-.25 1.833-.792 2.875-1.625 2.541.292 5.021 1.625 7.437 4 .209 3-.166 6.458-1.125 10.375l.563 2.438c-1.875 2.291-3.792 5.229-5.75 8.812l-1.125.75-1.125 1.625-.563 1.625c-1.916 1.75-3.833 4.417-5.75 8l-1.687 1.563-1.75 2.437c-1.125 1.542-2.646 3.125-4.563 4.75l-2.312 4-2.25 2.437-2.313 1.563v2.437l1.125.813c1 2.792 2.542 5.437 4.625 7.937l.563 2.438 1.125.812.562 2.376 1.188.812.562 2.375 1.125.813c.709 2.791 1.854 6 3.438 9.624l.562 2.376 1.125 2.374.625 2.438 1.125 1.562v2.438l2.25 5.562v4.813h-5.125c-1.333-1.833-3.041-3.437-5.125-4.813-.791-1.708-1.937-3.041-3.437-4l-.563-1.562-1.75-1.625c-1.291-2.708-3.187-5.104-5.687-7.187.041-.542-.167-1.084-.625-1.626l-7.375-14.374-1.188-.813-.562-2.375c-2.209 1.917-4.313 4.583-6.313 8-3.541 2.75-6.771 6.75-9.687 12-2.167 1.25-4.271 3.375-6.313 6.375l-2.25 1.625-2.312 3.188-1.75 1.624-2.813 3.188-2.312 1.562-1.688 3.25c-2.25 1.084-4.729 3.209-7.437 6.376-.542-4.084-.354-8.876.562-14.376 1.584-2.958 3.292-6.958 5.125-12 3.292-3.083 6.354-7.624 9.188-13.624l1.125-.813c.958-1.208 2.104-3.063 3.437-5.563.375-.166.75-.708 1.125-1.624l3.438-3.188 1.125-1.625 1.187-2.375 2.25-1.625 1.188-2.375 1.687-.812 1.125-1.563a44.44 44.44 0 0 0-9.125-13.625c-1.708-4-4.375-8-8-12-.75-7.375.959-14.042 5.125-20 2.584-1.708 5.834-2.77 9.75-3.188.5 6.917 2.792 13.042 6.875 18.376 1.834 5.874 4.688 10.937 8.563 15.187 2.958-2.625 6.187-6.625 9.687-12 .417-.125.813-.646 1.188-1.563 1.458-.791 2.791-2.395 4-4.812l1.687-1.625 6.313-9.563 1.125-1.624 1.187-1.563 1.125-2.438c.625-.208 1.188-.729 1.688-1.562zm45 8.063 14.5-9.688c2.666 2.792 6.437 5.48 11.312 8.063L615.37 95c16.375 34.458 13.688 68.375-8.062 101.75l-5.875-14.375c-2.125 1-1.771-7.125 1.062-24.375l-18.687 3.75-7.188 25.312-8.062 8.063c-4.042-1.042-7.813-3.729-11.313-8.063l1.625-22.624c2.459-6.667 5.375-13.396 8.75-20.188l-.812-7.938 3.062-7.687 7.188-4.375 7.625-22.75 6.5-11.313zm.625 49.062 10.75-.875L598.62 123l-6.812 16.25zm47-41.813c.125-5.541 1.666-11.145 4.625-16.812 6-.583 13.416.292 22.25 2.625l1.562.938 3.063-.938c1.541 2.75 3.833 5.125 6.875 7.125 2.583 3.875 6.166 7.417 10.75 10.625l4.625 6.188c1.166 1.5 2.958 3.27 5.375 5.312 1.416 3.042 3.458 6.292 6.125 9.75l.812 2.625 1.5 1.75c-.083.625.167 1.229.75 1.813 1.584 5.833 1.854 12.312.813 19.437-4.292 28.708-20.688 43.167-49.188 43.375-2.291.375-4.833 1.271-7.625 2.688-2.791-.167-5.625.124-8.5.874H638.058l-2.313.876h-2.312c-1.625-.876-3.667-2.355-6.125-4.438-.834-5-.834-10.896 0-17.688 1.583-2.083 3.875-3.854 6.875-5.312-.375-5.333.396-11.229 2.312-17.688.084-2.916.604-6.75 1.563-11.5l1.5-14.187.812-15.063.75-9.687c-.541-1.333-1.312-2.23-2.312-2.688zM688.433 155c2.125-23.5-7.084-38.854-27.625-46.062l-.813 14.187-.75 1.75v5.313l-.75 2.687c0 3.458-.521 7.583-1.562 12.375v2.625c-.917 3.208-1.417 7.042-1.5 11.5 12.375 12.5 23.375 11.042 33-4.375zm55-64.813 14.5-9.687c2.666 2.792 6.437 5.48 11.312 8.063L767.62 95c16.375 34.458 13.688 68.375-8.062 101.75l-5.875-14.375c-2.125 1-1.771-7.125 1.062-24.375l-18.687 3.75-7.188 25.312-8.062 8.063c-4.042-1.042-7.813-3.729-11.313-8.063l1.625-22.624c2.459-6.667 5.375-13.396 8.75-20.188l-.812-7.938 3.062-7.687 7.188-4.375 7.625-22.75 6.5-11.313zm.625 49.063 10.75-.875L750.87 123l-6.812 16.25zm-528.5 121.375c1.958-19.667 15.812-30.792 41.562-33.375 16.209.375 19.188 7.438 8.938 21.188-12.792-1.959-22.834 1.833-30.125 11.374 1.541 2.334 3.708 4.521 6.5 6.563 36.583 7.667 50.166 23.396 40.75 47.187-19 23.126-46.979 32.355-83.938 27.688 1.75-2.583 4.459-5.021 8.125-7.312 4.542-1.084 9.709-3.25 15.5-6.5.542.083 1.084-.188 1.625-.813 4.584-.958 9.479-3.125 14.688-6.5 9.75-2.917 18.708-8.625 26.875-17.125-.167-3-1.521-5.708-4.063-8.125-27.375-5.375-42.854-16.792-46.437-34.25zm87.75-15.75c-.209-6.75 2.312-12.583 7.562-17.5 5.417 1.5 11.792 2.063 19.125 1.687l3.375.813h7.5l1.625.813c2.5.416 5.292.416 8.375 0l9.188 1.687 2.5.813c1.833 2.25 3.771 5.312 5.812 9.187.709 9.875-6.791 14.604-22.5 14.187l-2.5 16.688-.875 1.625v2.5l-.812 3.375-.813 9.125-.875 3.375v3.312l-.812 2.5-.813 3.313v2.5l-.875 4.187v3.313l-.812 3.375c3.583 6.417 9.416 11.979 17.5 16.688-.5 2.333-1.334 4.833-2.5 7.5-4.084 1.541-9.084 2.083-15 1.624l-5.813.876-6.687.812c.125-1.25-.146-2.354-.813-3.312l-19.187-5-2.5-.876-1.688-.812-2.5-.812-9.187-3.376-3.313-2.5c.292-8.416 4.459-14.812 12.5-19.187.5 6.542 6.896 8.5 19.188 5.875.833-4 1.396-9 1.687-15l.813-1.688.812-8.312.875-2.5 1.625-14.188 1.688-5c.125-4 .958-8.729 2.5-14.187v-2.5c-5.334 0-11.167 1.396-17.5 4.187h-2.5c-.584-3-1.709-6.062-3.375-9.187zm133.375-20.813.75 3.438h-.75.75c4.625 10.875 5.875 23.875 3.75 39 3.833 23.667-2.417 45.667-18.75 66-3.417.792-7.167.792-11.25 0-4.709-5.417-8.209-12.167-10.5-20.25l-3-5.25-.75-1.5-1.5-2.25-1.5-2.25c-5.542 9.25-8.792 20.25-9.75 33-4.125 1.833-7.875 4.833-11.25 9-.792-4.375-3.042-8.375-6.75-12 .25-3.542 1-7.792 2.25-12.75V316c.416-2.125.666-4.625.75-7.5l.75-2.25V301l.75-5.25.75-2.25.75-4.5.75-5.25.75-5.25v-3c1.25-1.75 2.5-4 3.75-6.75-.125-5.375.375-10.125 1.5-14.25l1.5-3.75c2.041-2.75 5.041-5.5 9-8.25 5.708-1.917 11.458-.917 17.25 3 .791 5 .041 10.25-2.25 15.75l6.75 18.75c.791 1.5 1.541 3.5 2.25 6l1.5 2.25c.375-3.333 1.375-7.333 3-12l1.5-6V268l.75-2.25.75-3.75.75-2.25 1.5-8.25c.541-3.167.291-5.667-.75-7.5l.75-2.25 2.25-3.75c2.833-1.5 5.083-4 6.75-7.5l2.25-2.25c.75.083 1.5-1.312 2.25-4.188zm19.875 20.813c-.209-6.75 2.312-12.583 7.562-17.5 5.417 1.5 11.792 2.063 19.125 1.687l3.375.813h7.5l1.625.813c2.5.416 5.292.416 8.375 0l9.188 1.687 2.5.813c1.833 2.25 3.771 5.312 5.812 9.187.709 9.875-6.791 14.604-22.5 14.187l-2.5 16.688-.875 1.625v2.5l-.812 3.375-.813 9.125-.875 3.375v3.312l-.812 2.5-.813 3.313v2.5l-.875 4.187v3.313l-.812 3.375c3.583 6.417 9.416 11.979 17.5 16.688-.5 2.333-1.334 4.833-2.5 7.5-4.084 1.541-9.084 2.083-15 1.624l-5.813.876-6.687.812c.125-1.25-.146-2.354-.813-3.312l-19.187-5-2.5-.876-1.688-.812-2.5-.812-9.187-3.376-3.313-2.5c.292-8.416 4.459-14.812 12.5-19.187.5 6.542 6.896 8.5 19.188 5.875.833-4 1.396-9 1.687-15l.813-1.688.812-8.312.875-2.5 1.625-14.188 1.688-5c.125-4 .958-8.729 2.5-14.187v-2.5c-5.334 0-11.167 1.396-17.5 4.187h-2.5c-.584-3-1.709-6.062-3.375-9.187zm78.5 15.75c1.958-19.667 15.812-30.792 41.562-33.375 16.209.375 19.188 7.438 8.938 21.188-12.792-1.959-22.834 1.833-30.125 11.374 1.541 2.334 3.708 4.521 6.5 6.563 36.583 7.667 50.166 23.396 40.75 47.187-19 23.126-46.979 32.355-83.938 27.688 1.75-2.583 4.459-5.021 8.125-7.312 4.542-1.084 9.709-3.25 15.5-6.5.542.083 1.084-.188 1.625-.813 4.584-.958 9.479-3.125 14.688-6.5 9.75-2.917 18.708-8.625 26.875-17.125-.167-3-1.521-5.708-4.063-8.125-27.375-5.375-42.854-16.792-46.437-34.25zm72.937-10.187c4.417-11.876 13.5-19.542 27.25-23 12.417-1.417 24.042 2.27 34.875 11.062.084 10.625-5.021 17.167-15.312 19.625.375 6.833-.771 14.208-3.438 22.125v2.562c.5 5.292-.062 11.813-1.687 19.563l-.813 5.125v5.938l-.875 2.562.875 5.938v6.812c-5.916 15.5-12.729 18.062-20.437 7.688l-1.688.812c.125-3.042-.166-6.146-.875-9.312.834-3.25.834-6.938 0-11.063.75-4.75 1.042-10.437.875-17.063v-25.5c-.208-3.124.063-6.833.813-11.124-10.042.916-16.563-3.334-19.563-12.75zm70.813 31.624c-5.5-33.583.583-51.791 18.25-54.624 13.958-.25 27.875 4.666 41.75 14.75 8.208 21.291-3.188 39.208-34.188 53.75l3.813 3.437c2.541 4.917 6.333 9.25 11.375 13l4.562 3.5 1.5.875 1.563.812c3.25 3.959 7.541 7.146 12.875 9.563l1.562.875 1.5 1.75 4.563 1.688 4.562 3.5 1.5.874 1.5.876c1.584 2.333 3.875 4.354 6.875 6.062 1.167 2.083 2.938 4.104 5.313 6.062l2.25 1.688 1.5.875c.125.583.646 1.167 1.562 1.75.125.583.625 1.167 1.5 1.75v6.063L770.683 367l-9.875-1.75-12.125-7.812-2.313-.813-2.25-.875-1.5-1.75-2.312-.875-6.063-4.313-3.062-.874-3-1.75c-2.584-1.917-5.875-3.646-9.875-5.188l-3.063-2.625-4.562-2.563-3.75-1.75-3.063-3.5-3-1.687-3.812-7.813c-2.417 4.126-4.188 9.605-5.313 16.438l-.75 1.75c-1.125 1.417-2.146 3.146-3.062 5.188-3 .833-6.042.562-9.125-.813-.125-.583-.625-1.167-1.5-1.75.125-5.042-.125-11.396-.75-19.063v-12.187l-.75-2.563c-1.667-2.624-2.688-6.104-3.063-10.437 2.709-4.083 4.729-9.271 6.063-15.563zm19-16.687c15.708-6.958 16.458-12.271 2.25-15.937l-2.25 13.687v2.25zm80.25-28.187 14.5-9.688c2.666 2.792 6.437 5.479 11.312 8.062L802.245 242c16.375 34.458 13.688 68.375-8.062 101.75l-5.875-14.375c-2.125 1-1.771-7.125 1.062-24.375l-18.687 3.75-7.188 25.312-8.062 8.063c-4.042-1.042-7.813-3.729-11.313-8.063l1.625-22.624c2.459-6.667 5.375-13.396 8.75-20.188l-.812-7.938 3.062-7.687 7.188-4.375 7.625-22.75 6.5-11.312zm.625 49.062 10.75-.875L785.495 270l-6.812 16.25z" fill="#FB0304"/></g><defs><filter id="a" x="-4" y="0" width="1020" height="457" filterUnits="userSpaceOnUse" color-interpolation-filters="sRGB"><feFlood flood-opacity="0" result="BackgroundImageFix"/><feColorMatrix in="SourceAlpha" values="0 0 0 0 0 0 0 0 0 0 0 0 0 0 0 0 0 0 127 0" result="hardAlpha"/><feOffset dy="4"/><feGaussianBlur stdDeviation="2"/><feComposite in2="hardAlpha" operator="out"/><feColorMatrix values="0 0 0 0 0 0 0 0 0 0 0 0 0 0 0 0 0 0 0.25 0"/><feBlend in2="BackgroundImageFix" result="effect1_dropShadow_6_627"/><feBlend in="SourceGraphic" in2="effect1_dropShadow_6_627" result="shape"/></filter></defs></svg>