<svg width="440" height="93" viewBox="0 0 440 93" fill="none" xmlns="http://www.w3.org/2000/svg">
<path d="M255.315 2.7522C255.315 2.7522 256.774 4.07401 256.75 5.81572V86.6701C256.774 88.4118 255.315 89.7336 255.315 89.7336H299.301V68.4668C299.301 68.4668 298.903 70.5031 296.1 70.4527H281.484V5.81572C281.459 4.07401 282.918 2.7522 282.918 2.7522H255.315ZM403.08 2.7522H365.734V24.3993C365.734 24.3993 366.132 22.363 368.935 22.4133H380.032V86.6701C380.057 88.4118 378.598 89.7336 378.598 89.7336H406.2C406.2 89.7336 404.741 88.4118 404.766 86.6701V13.0975L403.08 2.7522Z" fill="#0057A1"/>
<path d="M418.64 2.7522V24.3993C418.64 24.3993 418.242 22.363 415.439 22.4133H396.7C396.641 15.8482 396.442 9.10739 395.823 2.7522H418.64Z" fill="#0057A1"/>
<path d="M426.11 91.6606C433.587 91.6606 439.648 85.4741 439.648 77.8426C439.648 70.2112 433.587 64.0247 426.11 64.0247C418.633 64.0247 412.571 70.2112 412.571 77.8426C412.571 85.4741 418.633 91.6606 426.11 91.6606Z" fill="#0057A1"/>
<path d="M433.981 9.72221C434.291 9.59582 434.565 9.4255 434.804 9.20913C435.044 8.99275 435.229 8.72925 435.365 8.41754C435.5 8.10583 435.566 7.74164 435.566 7.32496C435.566 6.46268 435.301 5.80498 434.768 5.35081C434.235 4.89771 433.388 4.67062 432.226 4.67062H428.289V14.2575H429.555V10.0007H431.678L434.565 14.2596H436.045L432.991 10.0007C433.34 9.9418 433.671 9.84861 433.981 9.72221ZM431.224 8.99704H429.555V5.67537H431.869C432.187 5.67537 432.489 5.69787 432.775 5.74178C433.063 5.78677 433.321 5.87247 433.551 5.99886C433.782 6.12419 433.966 6.29129 434.1 6.50017C434.236 6.70797 434.304 6.98326 434.304 7.32603C434.304 7.72664 434.215 8.04264 434.041 8.27401C433.864 8.5054 433.623 8.67974 433.347 8.77531C433.028 8.8858 432.695 8.94966 432.358 8.9649C431.984 8.98633 431.606 8.99704 431.224 8.99704ZM431.331 0.923706C426.75 0.926919 423.067 4.76917 423.058 9.49084C423.067 14.2104 426.75 18.0537 431.331 18.0558C435.911 18.0537 439.594 14.2104 439.602 9.49084C439.595 4.76917 435.911 0.926919 431.331 0.923706ZM431.331 17.3071C427.191 17.2985 423.811 13.8183 423.811 9.49084C423.811 5.16229 427.19 1.68316 431.331 1.67352C435.471 1.68316 438.85 5.16229 438.85 9.49084C438.85 13.8183 435.472 17.2985 431.331 17.3071ZM219.83 0.838013C195.273 0.838013 186.953 21.3304 186.953 46.4352C186.953 72.0659 195.831 92.0055 219.717 92.0055C243.603 92.0055 252.708 72.4729 252.708 46.4352C252.708 20.6191 243.583 0.838013 219.83 0.838013ZM227.211 50.9822C227.211 67.9141 223.907 72.6111 219.831 72.6111C215.755 72.6111 212.45 68.0769 212.45 50.9822V40.8073C212.45 24.8513 215.755 20.211 219.831 20.211C223.907 20.211 227.211 25.3397 227.211 40.8073V50.9822ZM337.749 64.3246C337.749 69.5369 335.064 72.2726 331.752 72.2726C328.44 72.2726 325.755 69.5026 325.755 64.3246L325.753 63.789V5.81569C325.729 4.07399 327.188 2.75218 327.188 2.75218H299.508C299.508 2.75218 300.966 4.07399 300.942 5.81569V64.5399L300.941 64.8045C300.941 84.2514 314.723 92.0966 331.679 92.0966C348.634 92.0966 362.328 83.1138 362.328 64.7681L362.327 64.5881V5.81569C362.302 4.07399 363.761 2.75218 363.761 2.75218H336.307C336.307 2.75218 337.766 4.07399 337.741 5.81569V64.0086L337.749 64.3246ZM113.639 44.7138L113.741 44.6924C122.276 42.7043 127.775 35.6518 127.775 25.5872C127.775 11.3611 117.442 2.7179 97.9844 2.7179H70.0939C70.0939 2.7179 71.5529 4.03971 71.5282 5.7782V86.518C71.5529 88.2565 70.0939 89.5783 70.0939 89.5783H101.503L102.68 89.5708C122.392 89.5708 131.288 79.1709 131.288 65.8992C131.289 54.0886 124.423 46.779 113.639 44.7138ZM95.9619 20.5806H98.2023C102.74 20.5806 106.42 23.4234 106.42 29.1391C106.42 33.8662 102.74 37.6988 98.2023 37.6988H95.9619V20.5806ZM98.5233 71.9127H95.9629V53.0217H98.1304C103.316 53.0217 107.915 55.7618 107.915 62.4672C107.914 68.5621 103.709 71.9127 98.5233 71.9127ZM35.5272 90.8294H35.6195L35.5733 90.823L35.5272 90.8294ZM42.9625 89.6201H69.9662C69.9662 89.6201 69.0666 88.3679 67.7569 82.5322L50.3452 7.19856C50.3452 7.19856 49.5207 3.79227 51.6291 2.73397H20.0725C22.181 3.79227 21.3565 7.19856 21.3565 7.19856L3.90617 82.2869C2.59645 88.1215 0.0543213 89.6201 0.0543213 89.6201H28.1831C26.4719 88.5693 26.6651 86.9925 26.6651 86.9925L28.3452 75.7325H42.8036L44.313 86.3851C44.313 86.3851 44.6651 88.4803 42.9625 89.6201ZM30.838 59.5901L35.7773 25.1191L40.5824 59.5901H30.838ZM155.389 72.1494C161.861 72.1494 161.441 66.3491 161.441 66.3491C161.46 62.1319 157.825 59.3844 157.825 59.3844L142.571 46.6076L142.303 46.3795C137.268 41.751 134.07 34.8174 134.07 27.0686C134.07 13.1306 144.005 1.29218 160.609 1.29218C165.694 1.29218 170.957 2.37191 175.448 4.55065C175.448 4.55065 177.66 5.84997 179.579 3.84047V26.6048C179.579 26.6048 170.313 20.1264 162.664 20.1264C162.664 20.1264 157.028 20.06 157.028 25.3483C157.028 25.3483 156.961 28.2276 161.524 31.7088C161.524 31.7088 176.956 42.956 182.189 51.5917C182.189 51.5917 186.549 58.6217 186.013 66.9897C186.013 66.9897 185.208 92.1619 158.638 92.1619C158.638 92.1619 148.259 92.2562 139.18 87.0739C139.18 87.0739 136.173 85.2047 134.215 87.0139V61.3661C134.215 61.3661 146.503 72.1494 155.389 72.1494Z" fill="#0057A1"/>
</svg>
