<svg width="348" height="86" viewBox="0 0 348 86" fill="none" xmlns="http://www.w3.org/2000/svg">
<path fill-rule="evenodd" clip-rule="evenodd" d="M38.9984 40.48C40.5918 38.7881 41.3884 36.5885 41.3884 33.8814C41.3884 30.7512 40.569 28.2345 38.9301 26.331C37.3368 24.4276 35.1516 23.0952 32.3746 22.3338C34.6963 21.3609 36.4263 19.9016 37.5643 17.9559C38.748 16.0102 39.3398 14.0009 39.3398 11.9283C39.3398 10.0248 38.8846 8.18481 37.9741 6.40826C37.1091 4.63171 35.8345 3.19357 34.15 2.09378C32.5112 0.951721 30.5536 0.380676 28.2773 0.380676H0.14325V45.429H23.9753C27.1621 45.429 30.0756 45.0271 32.716 44.2234C35.3565 43.4198 37.4506 42.1719 38.9984 40.48ZM27.3896 29.3766C27.7084 29.9264 27.8676 30.5821 27.8676 31.3434C27.8676 32.1048 27.6856 32.7605 27.3214 33.3103C27.0027 33.8602 26.5475 34.2833 25.9556 34.5793C25.3638 34.8754 24.7037 35.0234 23.9753 35.0234H13.4592V27.4731H24.4533C25.1362 27.4731 25.7281 27.6423 26.2288 27.9807C26.7296 28.3191 27.1165 28.7843 27.3896 29.3766ZM13.4592 17.829V10.9131H22.951C23.5429 10.9131 24.0664 11.04 24.5216 11.2938C25.0224 11.5053 25.4093 11.8648 25.6825 12.3724C26.0012 12.8377 26.1605 13.4933 26.1605 14.3393C26.1605 15.2699 25.9784 15.989 25.6142 16.4966C25.2501 17.0042 24.7947 17.3636 24.2485 17.5752C23.7021 17.7444 23.1332 17.829 22.5413 17.829H13.4592ZM72.2422 0.380676H57.3558L41.8547 45.429H55.4437L58.3118 36.6096H71.218L74.1543 45.429H87.675L72.2422 0.380676ZM64.799 12.4993L69.1011 28.3614H60.2921L64.799 12.4993ZM119.373 14.4662C120.146 14.8892 120.534 15.1007 120.534 15.1007L126.27 4.88553C124.813 4.20874 123.106 3.48965 121.148 2.72827C119.236 1.96689 117.165 1.33243 114.934 0.824829C112.749 0.274933 110.472 0 108.106 0C104.918 0 101.937 0.592194 99.1596 1.77655C96.4281 2.91861 94.2202 4.61057 92.5358 6.85242C90.8513 9.0943 90.0092 11.886 90.0092 15.2276C90.0092 17.4271 90.4416 19.3094 91.3066 20.8745C92.1716 22.3972 93.5145 23.7296 95.3355 24.8717C97.1565 25.9715 99.4782 26.9655 102.301 27.8538C104.258 28.446 106.034 28.9747 107.628 29.44C109.266 29.8629 110.586 30.3283 111.588 30.8359C112.589 31.3012 113.09 31.9779 113.09 32.8662C113.09 33.4584 112.794 33.9448 112.203 34.3255C111.656 34.6639 110.654 34.8331 109.198 34.8331C107.331 34.8331 105.464 34.5793 103.599 34.0717C101.777 33.5641 100.116 32.9931 98.6133 32.3586C97.111 31.7242 95.9045 31.1531 94.9941 30.6455L93.6284 29.8841L87.8923 40.7338C89.8498 41.7912 92.0122 42.7219 94.3795 43.5255C96.7468 44.2869 99.1823 44.9002 101.687 45.3655C104.235 45.7885 106.672 46 108.993 46C111.269 46 113.5 45.7674 115.685 45.3021C117.871 44.7945 119.851 43.9908 121.626 42.891C123.402 41.7912 124.813 40.3319 125.86 38.5131C126.906 36.6519 127.431 34.3678 127.431 31.6607C127.431 28.8267 126.838 26.5637 125.655 24.8717C124.471 23.1375 122.787 21.7205 120.602 20.6207C118.417 19.5209 115.822 18.5481 112.817 17.7021C110.951 17.1522 109.335 16.6869 107.969 16.3062C106.648 15.9255 105.624 15.5026 104.896 15.0372C104.167 14.5719 103.803 13.9586 103.803 13.1972C103.803 12.3936 104.167 11.8226 104.896 11.4841C105.624 11.1457 106.557 10.9766 107.696 10.9766C109.152 10.9766 110.632 11.1881 112.134 11.611C113.637 12.034 115.025 12.5205 116.3 13.0703C117.574 13.5779 118.599 14.0432 119.373 14.4662ZM157.147 11.1669H171.078V0.380676H129.833V11.1669H143.832V45.429H157.147V11.1669ZM197.546 0.380676H182.66L167.159 45.429H180.748L183.616 36.6096H196.522L199.458 45.429H212.979L197.546 0.380676ZM190.103 12.4993L194.405 28.3614H185.596L190.103 12.4993ZM217.007 0.380676V45.429H230.323V31.5972H235.717L244.253 45.429H258.867L248.624 28.869C250.081 27.8961 251.332 26.754 252.379 25.4427C253.427 24.0892 254.223 22.6088 254.769 21.0014C255.316 19.394 255.589 17.7232 255.589 15.989C255.589 14.0855 255.179 12.2032 254.36 10.3421C253.585 8.48093 252.471 6.81012 251.014 5.32965C249.556 3.80688 247.827 2.60138 245.824 1.7131C243.82 0.824829 241.635 0.380676 239.268 0.380676H217.007ZM238.722 20.811H230.323V11.1669H238.381C238.927 11.1669 239.473 11.3572 240.019 11.7379C240.611 12.1186 241.089 12.6685 241.453 13.3876C241.863 14.0643 242.068 14.9315 242.068 15.989C242.068 17.0042 241.886 17.8712 241.522 18.5903C241.203 19.3094 240.794 19.8593 240.293 20.24C239.792 20.6207 239.268 20.811 238.722 20.811ZM263.087 0.380676V45.429H281.73C286.646 45.429 290.925 44.4984 294.567 42.6372C298.255 40.7761 301.1 38.1536 303.103 34.7697C305.152 31.3857 306.176 27.4097 306.176 22.8414C306.176 18.6961 305.243 14.9315 303.376 11.5476C301.556 8.12137 298.824 5.41425 295.182 3.42621C291.586 1.39587 287.101 0.380676 281.73 0.380676H263.087ZM291.358 16.7503C292.223 18.4846 292.655 20.515 292.655 22.8414C292.655 25.0833 292.223 27.1136 291.358 28.9324C290.493 30.709 289.241 32.1048 287.602 33.12C286.009 34.1352 284.051 34.6428 281.73 34.6428H276.403V11.1669H281.73C284.006 11.1669 285.963 11.6533 287.602 12.6262C289.241 13.5991 290.493 14.9738 291.358 16.7503ZM339.77 14.4662C340.544 14.8892 340.931 15.1007 340.931 15.1007L346.667 4.88553C345.211 4.20874 343.504 3.48965 341.546 2.72827C339.634 1.96689 337.563 1.33243 335.332 0.824829C333.146 0.274933 330.871 0 328.503 0C325.317 0 322.335 0.592194 319.557 1.77655C316.826 2.91861 314.619 4.61057 312.934 6.85242C311.25 9.0943 310.407 11.886 310.407 15.2276C310.407 17.4271 310.84 19.3094 311.704 20.8745C312.57 22.3972 313.913 23.7296 315.733 24.8717C317.555 25.9715 319.877 26.9655 322.699 27.8538C324.657 28.446 326.432 28.9747 328.025 29.44C329.664 29.8629 330.984 30.3283 331.986 30.8359C332.988 31.3012 333.488 31.9779 333.488 32.8662C333.488 33.4584 333.193 33.9448 332.6 34.3255C332.054 34.6639 331.053 34.8331 329.596 34.8331C327.73 34.8331 325.863 34.5793 323.996 34.0717C322.175 33.5641 320.513 32.9931 319.011 32.3586C317.509 31.7242 316.303 31.1531 315.392 30.6455C314.482 30.1379 314.026 29.8841 314.026 29.8841L308.29 40.7338C310.248 41.7912 312.41 42.7219 314.777 43.5255C317.145 44.2869 319.581 44.9002 322.084 45.3655C324.634 45.7885 327.069 46 329.391 46C331.667 46 333.898 45.7674 336.083 45.3021C338.268 44.7945 340.248 43.9908 342.024 42.891C343.799 41.7912 345.211 40.3319 346.257 38.5131C347.305 36.6519 347.828 34.3678 347.828 31.6607C347.828 28.8267 347.237 26.5637 346.053 24.8717C344.87 23.1375 343.185 21.7205 340.999 20.6207C338.814 19.5209 336.219 18.5481 333.215 17.7021C331.349 17.1522 329.732 16.6869 328.366 16.3062C327.047 15.9255 326.023 15.5026 325.293 15.0372C324.565 14.5719 324.201 13.9586 324.201 13.1972C324.201 12.3936 324.565 11.8226 325.293 11.4841C326.023 11.1457 326.955 10.9766 328.093 10.9766C329.55 10.9766 331.03 11.1881 332.532 11.611C334.034 12.034 335.423 12.5205 336.697 13.0703C337.973 13.5779 338.997 14.0432 339.77 14.4662ZM0 66V86H9.09546C10.4982 86 11.7059 85.7558 12.7186 85.2676C13.7313 84.7793 14.5113 84.1087 15.0585 83.2559C15.612 82.403 15.8888 81.4297 15.8888 80.336C15.8888 79.3919 15.6876 78.5717 15.2849 77.875C14.8824 77.1719 14.3414 76.6217 13.6621 76.2246C12.9828 75.821 12.228 75.6028 11.3976 75.5703V75.375C12.1462 75.2187 12.8003 74.9388 13.3602 74.5352C13.92 74.125 14.3541 73.6172 14.6623 73.0117C14.9767 72.4062 15.134 71.7357 15.134 71C15.134 69.9844 14.8762 69.1022 14.3603 68.3535C13.8508 67.6048 13.0928 67.0254 12.0864 66.6152C11.0863 66.2051 9.85028 66 8.37842 66H0ZM7.6991 81.664H5.24597V77.4453H7.7746C8.3092 77.4453 8.76526 77.5299 9.14264 77.6992C9.52637 77.8684 9.82196 78.1158 10.0296 78.4414C10.2371 78.7669 10.3409 79.1641 10.3409 79.6328C10.3409 80.3034 10.1208 80.8112 9.68048 81.1563C9.24023 81.4948 8.57971 81.664 7.6991 81.664ZM7.39716 74.0859H5.24597V70.2578H7.47266C8.12683 70.2578 8.66779 70.4238 9.09546 70.7559C9.52325 71.0814 9.73706 71.5534 9.73706 72.1719C9.73706 72.582 9.63647 72.9303 9.43512 73.2168C9.24023 73.4967 8.96655 73.7116 8.61432 73.8613C8.26202 74.0111 7.85632 74.0859 7.39716 74.0859ZM38.92 66V86H44.166V79.3984H45.9815L49.3741 86H55.073L51.1489 78.5432C52.1513 78.0453 52.9373 77.3376 53.5067 76.4199C54.1232 75.4369 54.4315 74.2292 54.4315 72.7969C54.4315 71.3776 54.1326 70.1602 53.5351 69.1445C52.9375 68.1289 52.101 67.3509 51.0253 66.8105C49.9498 66.2702 48.6948 66 47.2607 66H38.92ZM44.166 75.1797H46.0153C46.6317 75.1797 47.1569 75.1016 47.5909 74.9453C48.0312 74.7826 48.3677 74.5254 48.6005 74.1738C48.8395 73.8223 48.959 73.3633 48.959 72.7969C48.959 72.224 48.8395 71.7585 48.6005 71.4004C48.3677 71.0358 48.0312 70.7689 47.5909 70.5996C47.1569 70.4238 46.6317 70.3359 46.0153 70.3359H44.166V75.1797ZM77.84 66V86H91.7286V81.625H83.086V78.1875H91.0493V73.8125H83.086V70.375H91.7664V66H77.84ZM114.748 66L120.447 86H125.467L128.75 74.8281H128.901L132.184 86H137.204L142.903 66H137.053L134.411 78.3437H134.26L131.128 66H126.523L123.39 78.3047H123.24L120.598 66H114.748ZM165.773 66V86H179.662V81.625H171.019V78.1875H178.982V73.8125H171.019V70.375H179.7V66H165.773ZM203.473 66V86H208.72V79.3984H210.535L213.928 86H219.627L215.703 78.5432C216.705 78.0453 217.491 77.3376 218.061 76.4199C218.677 75.4369 218.985 74.2292 218.985 72.7969C218.985 71.3776 218.686 70.1602 218.089 69.1445C217.492 68.1289 216.655 67.3509 215.58 66.8105C214.504 66.2702 213.249 66 211.814 66H203.473ZM208.72 75.1797H210.569C211.185 75.1797 211.711 75.1016 212.145 74.9453C212.585 74.7826 212.922 74.5254 213.154 74.1738C213.393 73.8223 213.513 73.3633 213.513 72.7969C213.513 72.224 213.393 71.7585 213.154 71.4004C212.922 71.0358 212.585 70.7689 212.145 70.5996C211.711 70.4238 211.185 70.3359 210.569 70.3359H208.72V75.1797ZM247.452 66H241.602L248.696 79.7109V86H253.905V79.7109L261 66H255.15L251.376 74.125H251.225L247.452 66Z" fill="white"/>
</svg>
