<svg width="410" height="107" viewBox="0 0 410 107" fill="none" xmlns="http://www.w3.org/2000/svg">
<path d="M40.5478 44.5311C47.2319 40.0977 51.1878 33.4136 51.256 23.7285C51.1196 8.85987 41.6391 -0.484196 20.7684 0.266058H0.647949C1.73923 1.15272 3.37615 4.56297 3.37615 9.54193V95.2073C3.37615 101.005 1.67102 104.551 0.716154 106.052C4.67204 105.302 18.8587 101.619 24.3151 100.186C53.2339 93.8432 53.7796 71.813 53.7796 65.811C53.6432 61.1731 51.256 48.5551 40.5478 44.5311ZM21.1776 39.9613V11.7927H25.1335C32.0904 11.5881 34.4776 17.1809 34.4776 25.2291C34.4094 30.9583 32.4314 39.0065 26.2248 39.4839C24.2469 39.7567 21.1776 39.9613 21.1776 39.9613ZM21.1776 85.3176V51.5561C22.3371 51.2151 23.5648 50.9423 24.7925 50.8741C31.8176 50.6695 35.4325 57.2854 35.6371 64.9925C35.6371 73.4499 32.9089 82.453 25.7474 84.4991C24.3151 84.8402 22.7463 85.1812 21.1776 85.3176Z" fill="#E21F2B"/>
<path d="M88.6323 47.1229L91.4287 34.6414C86.3133 34.7096 80.1067 35.2552 74.9231 35.3234V12.6112H84.4036C86.7225 12.6112 89.6553 13.4297 91.1559 14.9984C92.2471 9.13276 92.9974 5.51789 94.1569 0.266113H54.598C55.6893 1.15278 57.599 4.2902 57.599 8.31429V79.1792C57.599 84.4992 55.6211 91.3197 54.598 92.6156C67.557 90.0238 78.9472 87.773 92.1107 85.7269C93.2702 79.2474 94.0205 75.0187 95.18 68.471C94.1569 69.3577 90.201 70.8582 86.3133 71.3356C82.2892 71.8131 78.4015 72.3587 74.9231 72.7679V47.8731C76.3554 47.8731 88.6323 47.1229 88.6323 47.1229Z" fill="#E21F2B"/>
<path d="M349.584 92.5473C355.313 93.5021 372.228 97.5262 372.228 97.5262C370.25 94.9345 369.432 91.797 369.432 86.5452V54.6935C371.001 54.7617 372.569 54.7617 374.138 54.6253C374.138 54.6253 384.096 86.3406 388.802 100.936C394.258 102.369 408.377 106.597 409.536 106.802C406.604 103.665 400.465 84.0217 399.919 82.3165C395.895 69.494 393.235 61.7868 389.211 50.533C398.965 44.1218 401.284 33.6864 401.352 26.7295C400.67 2.17575 383.823 0.19782 369.5 0.266025H349.652C350.539 1.01628 352.517 4.0173 352.517 9.5419V82.9986C352.517 85.9314 350.471 91.6606 349.584 92.5473ZM369.5 12.3383H374.206C382.05 12.4065 384.164 20.6593 384.301 27.7526C384.164 34.5049 381.572 44.3946 369.5 42.4849V12.3383Z" fill="#E21F2B"/>
<path d="M250.824 78.0197C257.235 78.088 265.147 78.77 270.944 79.5202C270.944 79.5202 260.645 24.6835 255.462 0.334351H232.204C230.362 0.334351 231.522 0.402539 229.68 0.402539C230.635 1.15279 231.249 5.79073 230.703 8.58713C227.088 27.8209 222.382 48.7598 218.631 68.5393C217.54 73.45 216.858 76.6556 216.858 76.6556L234.864 77.2013C233.568 74.8141 233.636 71.6085 234.045 69.0167C234.591 65.47 235.205 62.1962 235.887 58.1039C240.866 58.1721 245.435 58.3085 250.414 58.4449C251.096 62.6054 251.778 66.0839 252.529 70.3126C252.938 73.3136 251.71 77.2695 250.824 78.0197ZM237.728 46.4409C239.57 35.3917 241.207 24.0696 243.116 13.4297C244.89 24.0014 246.663 35.187 248.505 46.4409L248.641 46.6455C244.89 46.6455 241.411 46.5091 237.728 46.4409Z" fill="#E21F2B"/>
<path d="M127.373 66.4931C123.758 66.7659 119.938 67.1751 116.46 67.4479V45.1449C119.597 45.0767 127.646 44.1218 130.442 44.0536C130.442 44.0536 131.942 37.5742 132.966 32.186C127.85 32.2542 121.644 33.1408 116.46 33.209V12.4748C120.825 12.4748 123.28 12.4066 125.054 12.4748C128.328 12.4748 129.692 12.9522 132.693 14.7937C133.784 9.06451 134.534 5.44965 135.694 0.197876H96.2713C97.2944 1.01634 99.1359 4.6994 99.1359 8.7917V74.2684C99.1359 78.9063 96.8851 84.0899 95.8621 85.1812L98.7267 84.7038C109.708 82.9986 121.712 80.8161 132.966 79.6566C132.966 79.6566 134.807 70.3807 135.967 64.3105C134.943 65.1972 130.374 66.2202 127.373 66.4931Z" fill="#E21F2B"/>
<path d="M208.196 63.9013H197.556V43.7126L211.947 43.8491L214.061 32.3224H197.556V12.4748C199.738 12.4748 205.195 12.4066 208.537 12.4748C210.924 12.4748 213.72 13.0886 215.221 14.7938C216.38 9.13274 217.062 5.51789 218.222 0.266113H177.299C178.185 0.948162 180.232 4.08558 180.232 8.04147V68.0618C180.232 72.9044 178.322 76.0418 177.367 76.8602C179.208 76.792 178.39 76.8602 180.232 76.8602C191.417 76.6556 202.194 76.451 213.447 76.5874C214.607 71.1992 215.425 66.7659 216.585 60.9685C214.129 62.7418 211.197 63.7649 208.196 63.9013Z" fill="#E21F2B"/>
<path d="M339.081 73.3817C335.466 72.7679 333.01 72.5633 328.577 71.5402V47.5321C330.009 47.6003 342.9 48.2141 342.9 48.2141C343.855 42.3485 344.06 41.0526 345.083 35.3916L328.645 35.1188V12.8158H337.921C340.308 12.8158 343.855 14.3845 344.81 15.7486C345.901 9.81474 346.72 5.72245 347.879 0.402466H308.32C309.412 1.28913 311.321 3.88092 311.321 8.58706V75.7689C311.594 79.8612 309.48 83.6125 308.457 84.4991C321.688 86.4771 331.237 88.796 344.469 91.5242L347.606 72.2905C345.356 73.9956 340.24 73.4499 339.081 73.3817Z" fill="#E21F2B"/>
<path d="M274.695 79.8612C286.222 80.8843 297.544 82.7941 297.544 82.7941C297.067 82.3166 294.611 78.7018 294.611 73.0407L294.679 12.543H300.136C302.728 12.6112 305.251 13.4979 307.297 15.0666C307.024 9.26915 306.888 6.33635 306.683 0.266113H264.328C263.919 7.22301 264.055 9.13276 263.646 14.9984C264.874 14.2481 268.489 12.6112 271.421 12.6112H277.696V71.131C277.696 74.8823 275.718 79.0428 274.695 79.8612Z" fill="#E21F2B"/>
<path d="M166.181 12.4748C166.522 12.4748 166.863 12.4748 167.204 12.4748C169.046 12.4748 171.092 13.0204 173.479 14.8619C174.57 9.20092 175.321 5.51786 176.48 0.197876H137.058C138.081 1.01634 139.922 4.29017 139.922 7.97323V70.3125C139.922 75.4279 137.74 78.4289 136.785 79.3838C147.766 78.1561 152.131 77.7469 160.111 77.3376C157.928 75.0187 157.246 71.1992 157.246 69.1531V43.9854L171.638 43.9172L173.752 32.3224L157.246 32.3906V12.4066C157.724 12.4066 158.27 12.4066 158.815 12.4066H166.181V12.4748Z" fill="#E21F2B"/>
<path d="M400.874 4.97222C400.874 2.65325 402.784 0.743507 405.103 0.743507C407.422 0.743507 409.332 2.65325 409.332 4.97222C409.332 7.29119 407.422 9.20093 405.103 9.20093C402.784 9.20093 400.874 7.29119 400.874 4.97222ZM400.397 4.97222C400.397 7.56401 402.511 9.74656 405.171 9.74656C407.831 9.74656 409.946 7.63221 409.946 4.97222C409.946 2.38043 407.831 0.197876 405.171 0.197876C402.511 0.266081 400.397 2.38043 400.397 4.97222Z" fill="#E21F2B"/>
<path d="M403.33 7.35942H404.012V5.24506H405.308L406.672 7.35942H407.49L406.126 5.17685C406.808 5.10864 407.354 4.49482 407.286 3.74456C407.286 2.58508 406.467 2.31226 405.649 2.31226H403.33V7.35942ZM404.012 2.9261H405.512C406.126 2.9261 406.604 3.1307 406.604 3.81275C406.604 4.4948 406.194 4.69943 405.512 4.69943H404.012V2.9261Z" fill="#E21F2B"/>
</svg>
