<svg width="514" height="164" viewBox="0 0 514 164" fill="none" xmlns="http://www.w3.org/2000/svg">
<path d="M506.445 64.6116C507.004 64.7626 507.78 64.5536 508.102 63.3486C508.399 62.2886 507.881 61.8096 507.278 61.6376L506.695 61.4836L505.88 64.4596L506.445 64.6116ZM502.337 66.8636C503.204 66.9966 503.272 66.9806 503.463 66.3426L504.711 61.7696C504.889 61.1306 504.826 61.0696 504.015 60.7496L504.182 60.1546L508.404 61.3056C509.604 61.6316 510.537 62.4526 510.174 63.7736C509.922 64.7006 509.057 65.3276 508.015 65.3656L508.81 67.9576C508.993 68.5306 509.27 68.7706 509.563 68.8496L509.407 69.4516L507.673 68.9806C507.299 68.8716 507.096 68.5576 506.948 67.9526L506.207 65.1956L505.712 65.0626L505.237 66.8236C505.052 67.4656 505.117 67.5256 505.919 67.8516L505.746 68.4486L502.181 67.4656L502.337 66.8636ZM508.147 59.4216C505.105 58.5786 502.213 60.3076 501.357 63.3796C500.519 66.4526 502.139 69.4236 505.186 70.2546C508.224 71.0966 511.132 69.3636 511.972 66.2916C512.815 63.2236 511.21 60.2506 508.147 59.4216ZM508.613 57.7626C512.52 58.8326 514.815 62.8576 513.734 66.7726C512.667 70.6906 508.644 72.9876 504.723 71.9076C500.809 70.8336 498.51 66.8086 499.59 62.8916C500.672 58.9766 504.695 56.6836 508.613 57.7626ZM468.166 79.5216C468.697 81.7076 468.736 84.5786 468.736 84.5786C468.736 84.5786 468.651 83.2166 469.691 79.8356L478.631 53.5586C480.901 46.7856 480.827 41.8566 477.805 37.9966L477.924 37.7796L499.602 45.8386L499.541 46.0906C495.026 47.4106 491.571 51.1456 489.296 57.9686C488.028 62.0556 468.197 120.396 468.197 120.396L457.259 116.261L446.479 62.8816C445.932 60.7036 445.909 57.8326 445.909 57.8326C445.909 57.8326 445.985 59.1876 444.952 62.5766C444.027 65.6256 435.072 92.4216 435.072 92.4216C433.072 99.5276 433.336 104.426 436.193 108.177L436.098 108.415L412.924 101.604L412.96 101.354C417.674 100.033 421.684 96.4526 423.876 89.6476L438.546 43.5676C440.803 36.0276 440.217 29.1506 436.12 25.1986L436.21 24.9586L457.568 31.1606L468.166 79.5216ZM393.784 23.8706C383.317 21.5726 376.34 34.2486 372.745 50.6106C368.968 67.8656 370.723 81.2226 380.305 83.3256C389.439 85.3306 397.177 74.0536 400.952 56.8016C404.544 40.4356 404.256 26.1696 393.784 23.8706ZM419.353 60.8726C413.797 83.7646 396.823 99.6256 376.853 95.2416C355.096 90.4686 348.405 69.9026 354.056 46.5616C359.632 23.4986 375.401 8.9716 395.726 12.3816C419.822 16.4236 424.776 38.5226 419.353 60.8726ZM314.285 84.6796C304.074 84.3716 302.975 81.4776 297.197 80.1536C292.965 79.1876 290.089 81.0366 288.839 82.5316L288.589 82.5046L289.814 54.2426L290.059 54.2116C292.145 59.6946 298.076 67.2826 304.941 71.1226C311.192 74.6096 317.519 73.1606 320.752 69.0546C323.553 65.4816 324.263 58.8726 319.835 54.3616C315.414 49.8456 308.419 46.8086 302.537 42.2996C290.678 33.1806 291.448 20.8586 295.155 14.0096C300.337 4.44959 311.201 0.560599 320.9 1.4976C326.805 2.0746 329.464 3.5856 333.581 4.9036C337.718 6.2206 341.375 5.42959 342.137 5.00559L342.385 5.04759L340.509 27.3626L340.257 27.3766C338.133 21.4786 331.105 14.1256 323.713 12.7466C317.23 11.5526 313.642 13.8476 312.05 16.5196C309.595 20.6376 310.685 25.2146 315.153 28.3086C321.625 32.7786 329.483 36.1226 334.655 40.9926C342.17 48.0836 344.569 60.6506 337.882 71.7626C332.492 80.7296 321.903 84.9106 314.285 84.6796ZM277.191 0.560587L276.589 18.1756L276.337 18.1946C273.527 11.6406 266.421 10.3106 260.057 10.3706L246.263 10.5126L245.889 31.7506L252.877 31.9456C262.178 32.1336 264.93 31.3626 268.328 25.4716L268.576 25.5126L267.689 50.7506L267.443 50.7756C264.371 44.2216 257.498 43.7746 251.145 43.8406L245.913 43.8166L245.366 67.2526L259.772 67.5406C269.068 67.7216 273.728 65.1496 276.736 59.7726L276.982 59.8246L274.415 80.5086C257.398 79.9376 237.869 79.8346 222.641 80.5296L222.6 80.2776C226.043 78.0066 227.921 72.8796 227.957 65.1706L228.507 14.9046C228.566 7.75858 228.068 3.18659 223.134 0.711588L223.168 0.461588C239.756 -0.155412 260.85 -0.184413 277.191 0.560587ZM184.285 3.01161L208.747 1.12858L208.799 1.3776C202.414 4.4026 203.095 9.89058 203.743 18.4046L207.002 66.9336C207.786 74.0336 209.547 79.5266 212.691 80.8986L212.669 81.1536C212.669 81.1536 206.967 81.4956 199.092 82.1226C191.26 82.7556 185.452 83.3356 185.452 83.3356L185.398 83.0876C188.274 81.1526 190.713 75.1686 190.166 67.8136C190.166 67.8136 188.054 36.2496 187.837 33.6096C187.573 30.6356 187.86 28.5886 187.86 28.5886C187.86 28.5886 187.477 30.8006 186.716 33.3556C185.948 35.9076 171.01 85.9576 171.01 85.9576L170.62 85.9846C170.62 85.9846 148.42 44.8646 146.426 41.5606C144.836 38.9196 144.198 36.4176 144.198 36.4176C144.198 36.4176 144.975 38.7586 145.489 41.9096C146.005 45.0506 149.937 72.7756 149.937 72.7756C151.201 80.0436 155.036 85.2506 158.288 86.4256L158.306 86.6776L136.835 90.1786L136.763 89.9476C139.47 87.8466 139.839 82.0896 138.862 75.0056L132.362 26.8896C131.348 19.5716 127.621 13.7426 122.208 11.9546L122.192 11.6966L146.571 7.5316C146.571 7.5316 166.922 44.4656 170.496 50.0806C172.667 43.0586 184.285 3.01161 184.285 3.01161ZM81.2066 38.8056L79.1346 68.6226L93.9486 64.4986L81.2066 38.8056ZM117.262 94.4186C111.968 95.7716 102.955 97.7886 102.955 97.7886L102.881 97.5476C104.989 95.6126 107.27 91.0326 103.984 84.7306L99.0656 74.8086L78.3126 80.4256L77.5046 92.0936C77.4726 99.1016 81.1166 102.117 83.9116 102.722L83.9696 102.977C83.9696 102.977 77.3176 105.032 72.1396 106.508C67.0606 108.14 60.6496 110.054 60.6496 110.054L60.5616 109.804C62.5706 108.091 64.7666 102.255 65.1856 95.4586C66.3476 77.3306 68.0546 50.2486 69.5776 38.1166C70.3206 32.2896 69.6006 26.7686 65.0986 25.2256L65.0326 24.9266C65.0326 24.9266 71.3516 23.0806 79.0356 21.2536C85.4766 19.7166 93.1676 17.7246 93.1676 17.7246L93.2686 18.0196C90.2886 21.9856 92.5706 26.1616 95.3986 31.3886C98.0696 36.3626 120.806 78.0076 122.721 81.4496C126.067 87.2196 128.209 89.5406 131.643 91.0786L131.675 91.3306C131.675 91.3306 122.613 93.2676 117.262 94.4186ZM19.3346 49.2666C18.1206 44.7096 14.2386 42.3676 11.6056 42.1976L11.5286 41.9546C11.5286 41.9546 18.6766 39.3176 23.8496 37.5466C29.2186 35.7206 36.8936 33.1876 36.8936 33.1876L37.0106 33.4366C35.0396 35.2126 34.1616 38.9816 35.2836 43.3956C35.2836 43.3956 45.1206 82.0006 46.5306 87.1086C47.9296 92.2096 49.8726 95.0656 52.5276 95.4236L52.6196 95.6686C51.2466 97.0086 50.1426 100.346 48.7436 103.412C47.3206 106.516 44.3616 115.957 32.8716 120.435C20.3546 125.309 7.57958 122.367 2.14058 113.518C-1.40842 107.757 -0.620413 99.8366 5.07459 96.5956C10.0206 93.7866 15.3796 95.5716 17.4176 99.6666C19.3976 103.631 18.0776 107.881 16.4766 109.283C16.1456 109.582 16.4716 110.134 17.2336 110.638C20.5936 112.921 24.3946 112.767 28.0566 110.806C32.7406 108.294 34.3246 104.268 31.8896 94.9366C29.9236 87.4506 20.7056 54.3666 19.3346 49.2666Z" fill="#134734"/>
<path d="M165.096 161.758C162.921 162.994 160.019 163.609 156.418 163.609C154.551 163.609 152.553 163.366 150.346 162.853C148.659 162.477 147.696 162.276 147.404 162.276C146.877 162.276 146.487 162.443 146.172 162.781L145.789 162.993L145.526 162.781V154.261C145.526 154.088 145.616 154.015 145.828 154.015L146.138 154.188C147.865 156.517 149.568 157.956 151.255 158.536C153.162 159.191 154.9 159.5 156.417 159.5C158.025 159.5 159.413 159.261 160.53 158.813C161.971 158.23 162.703 157.417 162.703 156.352C162.703 155.422 162.19 154.733 161.15 154.262C160.364 153.875 158.848 153.539 156.68 153.089L153.43 152.441C150.703 151.894 148.66 151.247 147.439 150.423C145.79 149.335 144.977 147.72 144.977 145.63C144.977 143.097 146.172 141.142 148.66 139.772C150.781 138.572 153.559 137.993 156.939 137.993C158.9 137.993 160.753 138.193 162.492 138.61C163.839 138.948 164.661 139.121 164.879 139.121C165.348 139.121 165.78 139.024 166.224 138.738L166.651 138.572L166.827 138.738V145.659L166.573 145.902L166.224 145.733C164.139 143.308 160.98 142.071 156.767 142.071C154.981 142.071 153.556 142.343 152.553 142.859C151.56 143.399 151.04 144.125 151.04 144.981C151.04 145.902 151.52 146.593 152.526 147.069C153.118 147.344 154.421 147.72 156.418 148.119L159.548 148.781C162.32 149.367 164.393 150.087 165.751 150.898C167.69 152.096 168.69 153.711 168.69 155.799C168.69 158.405 167.472 160.389 165.096 161.758ZM336.877 161.758C339.262 160.389 340.475 158.405 340.475 155.799C340.475 153.711 339.475 152.096 337.527 150.898C336.178 150.087 334.098 149.367 331.319 148.781L328.196 148.119C326.196 147.72 324.897 147.344 324.293 147.069C323.298 146.592 322.817 145.902 322.817 144.981C322.817 144.125 323.341 143.398 324.332 142.859C325.334 142.343 326.764 142.071 328.545 142.071C332.743 142.071 335.922 143.309 338.007 145.733L338.35 145.902L338.605 145.659V138.738L338.426 138.572L338.007 138.738C337.57 139.024 337.133 139.121 336.655 139.121C336.439 139.121 335.621 138.948 334.27 138.61C332.533 138.193 330.675 137.993 328.723 137.993C325.334 137.993 322.564 138.572 320.434 139.772C317.968 141.143 316.743 143.098 316.743 145.63C316.743 147.72 317.572 149.335 319.223 150.423C320.434 151.247 322.481 151.894 325.204 152.441L328.457 153.089C330.633 153.539 332.151 153.875 332.928 154.262C333.968 154.733 334.488 155.422 334.488 156.352C334.488 157.417 333.748 158.23 332.314 158.813C331.197 159.261 329.809 159.5 328.197 159.5C326.684 159.5 324.953 159.191 323.037 158.536C321.343 157.957 319.649 156.518 317.926 154.188L317.611 154.015C317.397 154.015 317.311 154.089 317.311 154.261V162.781L317.572 162.993L317.968 162.781C318.267 162.443 318.651 162.276 319.183 162.276C319.478 162.276 320.435 162.477 322.126 162.853C324.335 163.366 326.338 163.609 328.197 163.609C331.804 163.609 334.697 162.994 336.877 161.758ZM404.96 163.132V158.844H388.905V152.477H403.134V148.365H388.905V142.782H404.481V138.476H381.225L381.011 138.676L381.225 138.984C382.015 139.328 382.532 139.745 382.793 140.29C382.971 140.671 383.007 141.245 383.007 142.071V159.529C383.007 160.356 382.971 160.932 382.793 161.315C382.532 161.82 382.015 162.277 381.225 162.612L381.011 162.921L381.225 163.133H404.96V163.132ZM87.6155 162.611C86.8315 162.276 86.3145 161.82 86.0525 161.314C85.9335 161.048 85.8855 160.643 85.8605 160.166V141.431C85.8855 140.949 85.9345 140.55 86.0525 140.289C86.3145 139.744 86.8315 139.327 87.6155 138.983L87.8345 138.675L87.6155 138.475H85.8605H79.9605H78.2055L78.0005 138.675L78.2055 138.983C78.9955 139.327 79.5225 139.744 79.7795 140.289C79.8995 140.55 79.9465 140.949 79.9615 141.431V160.166C79.9475 160.643 79.9005 161.047 79.7795 161.314C79.5225 161.819 78.9955 162.276 78.2055 162.611L78.0005 162.92L78.2055 163.132H79.9605H85.8605H87.6155L87.8345 162.92L87.6155 162.611ZM137.077 162.611C136.291 162.276 135.766 161.82 135.512 161.314C135.388 161.053 135.347 160.656 135.32 160.19V141.408C135.347 140.937 135.387 140.548 135.512 140.289C135.766 139.744 136.291 139.327 137.077 138.983L137.29 138.675L137.077 138.475H135.322H129.427H129.423H127.673L127.458 138.675L127.673 138.983C128.457 139.327 128.979 139.744 129.24 140.289C129.359 140.548 129.401 140.936 129.423 141.408V160.19C129.401 160.656 129.359 161.053 129.24 161.314C128.979 161.819 128.458 162.276 127.673 162.611L127.458 162.92L127.673 163.132H129.423H129.427H135.322H137.077L137.29 162.92L137.077 162.611ZM363.358 148.268L374.548 138.476H367.389L354.772 149.838V141.274C354.794 140.869 354.838 140.515 354.949 140.288C355.201 139.743 355.726 139.326 356.514 138.982L356.723 138.674L356.514 138.474H354.772H354.759H348.866H347.111L346.899 138.674L347.111 138.982C347.895 139.326 348.416 139.743 348.679 140.288C348.805 140.549 348.841 140.948 348.866 141.43V160.165C348.841 160.642 348.805 161.046 348.679 161.313C348.416 161.818 347.896 162.275 347.111 162.61L346.899 162.919L347.111 163.131H348.866H354.759H354.772H356.514L356.723 162.919L356.514 162.61C355.726 162.275 355.201 161.819 354.949 161.313C354.837 161.077 354.793 160.719 354.772 160.318V155.827L359.324 151.827L367.916 163.132H375.066L363.358 148.268ZM309.512 162.611C308.721 162.276 308.195 161.82 307.944 161.314C307.822 161.048 307.778 160.643 307.759 160.166V141.431C307.779 140.949 307.822 140.55 307.944 140.289C308.196 139.744 308.721 139.327 309.512 138.983L309.723 138.675L309.512 138.475H307.757H301.866H300.103L299.892 138.675L300.103 138.983C300.885 139.327 301.414 139.744 301.673 140.289C301.797 140.55 301.84 140.949 301.866 141.431V160.166C301.841 160.643 301.797 161.047 301.673 161.314C301.414 161.819 300.885 162.276 300.103 162.611L299.892 162.92L300.103 163.132H301.866H307.757H309.512L309.723 162.92L309.512 162.611ZM203.375 162.611C202.587 162.276 202.07 161.82 201.811 161.314C201.689 161.048 201.638 160.643 201.62 160.166V141.431C201.638 140.949 201.689 140.55 201.811 140.289C202.07 139.744 202.587 139.327 203.375 138.983L203.586 138.675L203.375 138.475H201.62H195.737H195.725H193.979L193.766 138.675L193.979 138.983C194.767 139.327 195.289 139.744 195.546 140.289C195.652 140.516 195.694 140.87 195.725 141.275V148.365H182.663V141.095C182.686 140.775 182.728 140.483 182.819 140.289C183.08 139.744 183.603 139.327 184.384 138.983L184.599 138.675L184.384 138.475H182.664H182.633H176.759H175.004L174.789 138.675L175.004 138.983C175.79 139.327 176.315 139.744 176.574 140.289C176.693 140.55 176.74 140.949 176.759 141.431V160.166C176.739 160.643 176.693 161.047 176.574 161.314C176.315 161.819 175.79 162.276 175.004 162.611L174.789 162.92L175.004 163.132H176.759H182.633H182.664H184.384L184.599 162.92L184.384 162.611C183.603 162.276 183.08 161.82 182.819 161.314C182.729 161.121 182.687 160.828 182.663 160.506V152.477H195.724V160.319C195.693 160.72 195.65 161.078 195.544 161.314C195.287 161.819 194.766 162.276 193.979 162.611L193.764 162.92L193.979 163.132H195.724H195.736H201.618H203.374L203.585 162.92L203.375 162.611ZM294.105 162.611C293.323 162.276 292.807 161.82 292.546 161.314C292.418 161.048 292.369 160.643 292.355 160.166V141.431C292.369 140.949 292.419 140.55 292.546 140.289C292.807 139.744 293.322 139.327 294.105 138.983L294.319 138.675L294.105 138.475H292.355H286.465H286.454H284.714L284.496 138.675L284.714 138.983C285.496 139.327 286.022 139.744 286.277 140.289C286.387 140.516 286.427 140.87 286.454 141.275V148.365H273.397V141.095C273.42 140.775 273.46 140.483 273.548 140.289C273.812 139.744 274.334 139.327 275.113 138.983L275.332 138.675L275.113 138.475H273.397H273.366H267.492H265.742L265.516 138.675L265.742 138.983C266.523 139.327 267.048 139.744 267.303 140.289C267.425 140.55 267.472 140.949 267.492 141.431V160.166C267.472 160.643 267.426 161.047 267.303 161.314C267.048 161.819 266.522 162.276 265.742 162.611L265.516 162.92L265.742 163.132H267.492H273.366H273.397H275.113L275.332 162.92L275.113 162.611C274.334 162.276 273.813 161.82 273.548 161.314C273.46 161.121 273.42 160.828 273.397 160.506V152.477H286.454V160.319C286.427 160.72 286.387 161.078 286.277 161.314C286.022 161.819 285.496 162.276 284.714 162.611L284.496 162.92L284.714 163.132H286.454H286.465H292.355H294.105L294.319 162.92L294.105 162.611ZM121.022 163.132H114.204L108.182 154.049H102.579V160.4C102.606 160.763 102.646 161.096 102.753 161.314C103.019 161.819 103.529 162.276 104.315 162.611L104.535 162.92L104.315 163.132H102.579H102.561H96.6815H94.9255L94.7135 162.92L94.9255 162.611C95.7065 162.276 96.2385 161.82 96.4945 161.314C96.6165 161.048 96.6525 160.643 96.6815 160.166V141.431C96.6525 140.949 96.6165 140.55 96.4945 140.289C96.2395 139.744 95.7065 139.327 94.9255 138.983L94.7135 138.675L94.9255 138.475H96.6815H109.701C112.953 138.475 115.549 139.155 117.418 140.524C119.289 141.887 120.237 143.673 120.237 145.87C120.237 149.496 118.155 151.93 114.031 153.196L121.022 163.132ZM112.642 148.98C113.603 148.3 114.073 147.37 114.073 146.242C114.073 143.774 112.081 142.549 108.091 142.549H102.578V149.972H108.949C110.477 149.973 111.732 149.633 112.642 148.98ZM261.172 138.469H260.255H259.423H257.944H254.75H252.879V138.492L252.753 138.625L252.879 138.972C253.539 139.517 253.933 140.058 254.03 140.659C254.084 140.936 254.011 141.337 253.905 141.803L253.997 141.459L250.074 157.205L244.768 138.468H239.483L234.186 157.205L230.178 141.499L230.271 141.803C230.163 141.337 230.095 140.936 230.142 140.659C230.243 140.058 230.639 139.517 231.299 138.972L231.41 138.625L231.299 138.492V138.469H229.414H226.23H224.448H223.609H222.686L222.469 138.676L222.686 138.984C223.47 139.328 223.808 139.862 224.073 140.41C224.177 140.653 224.287 140.912 224.458 141.399L230.724 163.133H237.009L241.948 146.483L246.854 163.133H253.151L259.409 141.414C259.574 140.912 259.68 140.655 259.797 140.41C260.054 139.861 260.385 139.327 261.171 138.984L261.388 138.676L261.172 138.469ZM436.157 138.469H436.011H434.405H432.65H429.681H427.59V138.492L427.473 138.625L427.59 138.972C428.25 139.517 428.895 139.76 428.512 140.416V140.434L423.267 149.224L418.014 140.434L418.012 140.416C417.631 139.759 418.271 139.517 418.933 138.972L419.056 138.625L418.933 138.492V138.469H416.842H413.874H411.822H410.199H410.067L409.853 138.676L410.067 138.984C410.506 139.176 410.797 139.437 411.022 139.716L411.34 140.196L411.361 140.23L411.874 141.014V141.001L420.129 153.507V160.166C420.113 160.643 420.068 161.047 419.944 161.314C419.685 161.819 419.162 162.276 418.379 162.611L418.158 162.92L418.379 163.132H420.129H426.027H426.035H427.775L427.991 162.92L427.775 162.611C426.996 162.276 426.472 161.82 426.222 161.314C426.103 161.078 426.062 160.711 426.035 160.305V153.508L435.114 139.82C435.348 139.5 435.66 139.205 436.158 138.984L436.369 138.676L436.157 138.469Z" fill="#134734"/>
</svg>
