<svg width="426" height="101" viewBox="0 0 426 101" fill="none" xmlns="http://www.w3.org/2000/svg">
<path d="M419.354 53.1252C419.82 53.2409 420.402 53.1252 420.751 52.0841C420.984 51.1587 420.518 50.8117 420.052 50.696L419.587 50.5803L418.888 53.0096L419.354 53.1252ZM415.977 54.9761C416.676 55.0918 416.792 55.0918 416.909 54.5134L417.957 50.8117C418.073 50.2333 418.073 50.2333 417.375 50.0019L417.491 49.5392L420.984 50.4646C422.032 50.696 422.73 51.3901 422.497 52.5469C422.265 53.3566 421.566 53.8193 420.751 53.8193L421.45 55.9015C421.566 56.3642 421.799 56.5956 422.032 56.5956L421.915 57.0583L420.518 56.7113C420.169 56.5956 420.052 56.3642 419.936 55.9015L419.354 53.588L418.888 53.4723L418.539 54.9761C418.422 55.5545 418.422 55.5545 419.121 55.7859L419.005 56.2486L416.094 55.4388L415.977 54.9761ZM420.751 48.8452C418.19 48.1511 415.861 49.5392 415.162 52.0841C414.464 54.6291 415.861 57.0583 418.306 57.7524C420.867 58.4465 423.196 57.0583 423.895 54.5134C424.71 51.9685 423.312 49.5392 420.751 48.8452ZM421.217 47.457C424.477 48.3824 426.34 51.6214 425.408 54.8604C424.477 58.0994 421.217 59.9503 417.957 59.0248C414.697 58.0994 412.834 54.8604 413.765 51.6214C414.58 48.4981 417.957 46.6473 421.217 47.457ZM387.801 65.3872C388.267 67.238 388.267 69.5516 388.267 69.5516C388.267 69.5516 388.151 68.3948 389.082 65.6185L396.417 43.9867C398.28 38.4341 398.28 34.3853 395.719 31.1464L395.835 30.915L413.765 37.5087V37.74C410.039 38.7811 407.129 41.9044 405.266 47.457C404.218 50.8117 387.801 98.7025 387.801 98.7025L378.72 95.3479L369.755 51.5057C369.289 49.7706 369.289 47.3413 369.289 47.3413C369.289 47.3413 369.406 48.4981 368.474 51.2744C367.659 53.8193 360.324 75.7982 360.324 75.7982C358.694 81.5821 358.927 85.6309 361.256 88.7542L361.139 88.9856L341.928 83.433V83.2016C345.77 82.1605 349.147 79.1529 351.01 73.6003L363.118 35.7735C364.981 29.5269 364.516 23.9743 361.139 20.7353L361.256 20.5039L378.953 25.5938L387.801 65.3872ZM326.21 19.6942C317.594 17.8433 311.773 28.2544 308.862 41.6731C305.719 55.9015 307.232 66.7753 315.149 68.5105C322.717 70.13 329.121 60.8757 332.265 46.7629C335.175 33.2286 334.942 21.545 326.21 19.6942ZM347.4 50.0019C342.86 68.8575 328.772 81.8135 312.239 78.2275C294.192 74.2944 288.72 57.4053 293.377 38.2027C298.034 19.2315 311.074 7.3166 327.84 10.0929C347.75 13.5632 351.825 31.7247 347.4 50.0019ZM260.544 69.5516C252.045 69.3202 251.23 66.891 246.456 65.8499C242.963 65.0401 240.634 66.5439 239.587 67.8164H239.354L240.402 44.565H240.634C242.381 49.0765 247.271 55.3231 252.976 58.4465C258.099 61.3384 263.338 60.066 266.016 56.7113C268.345 53.8193 268.927 48.3824 265.201 44.6807C261.592 40.979 255.77 38.4341 250.88 34.7324C241.1 27.2133 241.682 17.1493 244.826 11.481C249.134 3.61489 258.099 0.375895 266.133 1.18564C271.023 1.64836 273.235 2.92082 276.611 3.96193C279.988 5.00303 283.015 4.42464 283.713 4.0776H283.946L282.433 22.3548H282.2C280.453 17.4963 274.632 11.481 268.578 10.3242C263.222 9.39881 260.195 11.2497 258.914 13.4476C256.935 16.8022 257.75 20.6196 261.475 23.1645C266.831 26.8662 273.351 29.5269 277.543 33.5756C283.713 39.3595 285.693 49.7706 280.221 58.9092C275.563 66.3126 266.831 69.7829 260.544 69.5516ZM229.807 0.491575L229.341 14.9514H229.108C226.779 9.51449 220.958 8.47339 215.602 8.47339L204.192 8.58906L203.843 26.0565L209.664 26.1722C217.349 26.2879 219.677 25.7095 222.471 20.851H222.704L222.006 41.5574H221.773C219.211 36.1205 213.506 35.7735 208.267 35.8892H203.959L203.493 55.0918L215.369 55.3231C223.054 55.4388 226.896 53.3566 229.341 48.9608H229.574L227.478 65.9656C213.39 65.5028 197.206 65.3872 184.632 65.9656V65.7342C187.426 63.8833 189.056 59.6032 189.056 53.3566L189.522 12.0594C189.522 6.15982 189.173 2.45811 185.098 0.375899V0.144541C198.953 -0.0868157 216.301 -0.0868165 229.807 0.491575ZM153.079 2.57379L173.338 1.06997V1.30132C168.099 3.73057 168.565 8.24203 169.147 15.2984L171.825 55.2075C172.523 60.9914 173.92 65.5028 176.482 66.6596V66.891C176.482 66.891 171.825 67.1223 165.305 67.7007C158.784 68.1634 154.011 68.7418 154.011 68.7418V68.5105C156.339 66.891 158.435 62.0325 157.969 56.0172C157.969 56.0172 156.223 30.1052 155.99 27.9074C155.757 25.4781 155.99 23.7429 155.99 23.7429C155.99 23.7429 155.641 25.5938 155.059 27.676C154.477 29.7582 142.019 70.9397 142.019 70.9397H141.669C141.669 70.9397 123.273 37.1616 121.643 34.501C120.363 32.3031 119.781 30.2209 119.781 30.2209C119.781 30.2209 120.479 32.1875 120.828 34.7324C121.294 37.2773 124.554 60.066 124.554 60.066C125.602 66.0812 128.746 70.3613 131.424 71.2868V71.5181L113.726 74.4101L113.61 74.1787C115.822 72.4435 116.171 67.7007 115.356 61.9168L110 22.3548C109.185 16.3395 106.042 11.5967 101.618 10.0929V9.86152L121.76 6.39117C121.76 6.39117 138.642 36.6989 141.553 41.3261C143.416 35.4265 153.079 2.57379 153.079 2.57379ZM67.853 31.9561L66.1065 56.4799L78.3316 53.1252L67.853 31.9561ZM97.659 77.6491C93.2346 78.8059 85.7831 80.4254 85.7831 80.4254L85.6667 80.194C87.4131 78.5745 89.276 74.8728 86.5981 69.6673L82.5231 61.5698L65.4079 66.1969L64.7094 75.7982C64.7094 81.5821 67.7365 84.0114 69.9487 84.4741V84.7055C69.9487 84.7055 64.4765 86.4406 60.1686 87.5974C55.9771 88.9856 50.6214 90.4894 50.6214 90.4894L50.505 90.258C52.135 88.8699 53.9978 84.0114 54.3471 78.4588C55.2786 63.5363 56.6757 41.326 57.9565 31.3777C58.5386 26.6349 57.9565 22.0078 54.2307 20.7353V20.5039C54.2307 20.5039 59.47 19.0001 65.7572 17.4963C71.113 16.2238 77.4002 14.6043 77.4002 14.6043L77.5166 14.8357C75.0716 18.0747 76.9345 21.545 79.2631 25.8251C81.4752 29.8739 100.22 64.1147 101.85 66.891C104.645 71.6338 106.391 73.4846 109.185 74.7571V74.9885C109.535 75.1041 102.083 76.608 97.659 77.6491ZM16.624 40.5163C15.5761 36.8146 12.4325 34.8481 10.2203 34.7324L10.1039 34.501C10.1039 34.501 16.0418 32.3031 20.2333 30.915C24.6576 29.4112 31.0612 27.329 31.0612 27.329L31.1777 27.5603C29.5476 29.0641 28.8491 32.0718 29.7805 35.7735C29.7805 35.7735 37.9306 67.4694 39.0949 71.6338C40.2592 75.7982 41.8892 78.2275 44.1013 78.4588L44.2178 78.6902C43.0535 79.847 42.122 82.5076 40.9577 85.0525C39.7934 87.5974 37.3484 95.3479 27.8012 99.0496C17.439 103.098 6.84387 100.669 2.41955 93.3813C-0.491193 88.6385 0.0909535 82.1605 4.86457 79.4999C8.9396 77.1864 13.3639 78.6902 15.1104 82.0449C16.7404 85.2838 15.6925 88.7542 14.2954 89.911C14.0625 90.1423 14.2954 90.6051 14.8775 91.0678C17.6718 92.9186 20.8154 92.8029 23.8426 91.1834C27.6848 89.1012 29.0819 85.8622 26.9862 78.1118C25.3562 71.8652 17.7882 44.6807 16.624 40.5163Z" fill="#19593E"/>
</svg>
