<svg width="80" height="80" viewBox="0 0 80 80" fill="none" xmlns="http://www.w3.org/2000/svg">
<path d="M63.3333 16.6667V20.0001H73.3333V16.6667H63.3333ZM36.6667 23.3334V26.6667H46.6667V23.3334H36.6667ZM63.3333 23.3334V26.6667H73.3333V23.3334H63.3333ZM36.6667 30.0001V33.3334H46.6667V30.0001H36.6667ZM63.3333 30.0001V33.3334H73.3333V30.0001H63.3333ZM10 36.6667V40.0001H20V36.6667H10ZM36.6667 36.6667V40.0001H46.6667V36.6667H36.6667ZM50 36.6667V40.0001H60V36.6667H50ZM63.3333 36.6667V40.0001H73.3333V36.6667H63.3333ZM10 43.3334V46.6667H20V43.3334H10ZM36.6667 43.3334V46.6667H46.6667V43.3334H36.6667ZM50 43.3334V46.6667H60V43.3334H50ZM63.3333 43.3334V46.6667H73.3333V43.3334H63.3333ZM10 50.0001V53.3334H20V50.0001H10ZM23.3333 50.0001V53.3334H33.3333V50.0001H23.3333ZM36.6667 50.0001V53.3334H46.6667V50.0001H36.6667ZM50 50.0001V53.3334H60V50.0001H50ZM63.3333 50.0001V53.3334H73.3333V50.0001H63.3333ZM10 56.6667V60.0001H20V56.6667H10ZM23.3333 56.6667V60.0001H33.3333V56.6667H23.3333ZM36.6667 56.6667V60.0001H46.6667V56.6667H36.6667ZM50 56.6667V60.0001H60V56.6667H50ZM63.3333 56.6667V60.0001H73.3333V56.6667H63.3333ZM10 63.3334V66.6667H20V63.3334H10ZM23.3333 63.3334V66.6667H33.3333V63.3334H23.3333ZM36.6667 63.3334V66.6667H46.6667V63.3334H36.6667ZM50 63.3334V66.6667H60V63.3334H50ZM63.3333 63.3334V66.6667H73.3333V63.3334H63.3333Z" fill="white"/>
</svg>
