<svg width="80" height="80" viewBox="0 0 80 80" fill="none" xmlns="http://www.w3.org/2000/svg">
<path d="M27.319 10.2751C18.3258 10.2751 11.0092 17.7518 11.0092 26.9418V53.6085C11.0092 62.7985 18.3258 70.2751 27.319 70.2751H53.4149C62.4081 70.2751 69.7248 62.7985 69.7248 53.6085V26.9418C69.7248 17.7518 62.4081 10.2751 53.4149 10.2751H27.319ZM27.319 16.9418H53.4149C58.8102 16.9418 63.2008 21.4285 63.2008 26.9418V53.6085C63.2008 59.1218 58.8102 63.6085 53.4149 63.6085H27.319C21.9237 63.6085 17.5331 59.1218 17.5331 53.6085V26.9418C17.5331 21.4285 21.9237 16.9418 27.319 16.9418ZM56.6768 20.2751C55.8117 20.2751 54.982 20.6263 54.3703 21.2515C53.7585 21.8766 53.4149 22.7244 53.4149 23.6085C53.4149 24.4925 53.7585 25.3404 54.3703 25.9655C54.982 26.5906 55.8117 26.9418 56.6768 26.9418C57.542 26.9418 58.3717 26.5906 58.9834 25.9655C59.5951 25.3404 59.9388 24.4925 59.9388 23.6085C59.9388 22.7244 59.5951 21.8766 58.9834 21.2515C58.3717 20.6263 57.542 20.2751 56.6768 20.2751ZM40.367 23.6085C31.3737 23.6085 24.0571 31.0851 24.0571 40.2751C24.0571 49.4651 31.3737 56.9418 40.367 56.9418C49.3602 56.9418 56.6768 49.4651 56.6768 40.2751C56.6768 31.0851 49.3602 23.6085 40.367 23.6085ZM40.367 30.2751C45.7623 30.2751 50.1529 34.7618 50.1529 40.2751C50.1529 45.7885 45.7623 50.2751 40.367 50.2751C34.9716 50.2751 30.581 45.7885 30.581 40.2751C30.581 34.7618 34.9716 30.2751 40.367 30.2751Z" fill="white"/>
</svg>
