<svg width="80" height="80" viewBox="0 0 80 80" fill="none" xmlns="http://www.w3.org/2000/svg">
<path d="M40 6.66675C21.63 6.66675 6.66669 21.6301 6.66669 40.0001C6.66669 58.3701 21.63 73.3334 40 73.3334C58.37 73.3334 73.3334 58.3701 73.3334 40.0001C73.3334 21.6301 58.37 6.66675 40 6.66675ZM40 13.3334C54.7671 13.3334 66.6667 25.233 66.6667 40.0001C66.6667 54.7672 54.7671 66.6667 40 66.6667C25.2329 66.6667 13.3334 54.7672 13.3334 40.0001C13.3334 25.233 25.2329 13.3334 40 13.3334ZM35.6315 26.6667C30.4982 26.6667 25.6538 27.2388 21.0938 28.3855C19.9538 28.6688 19.0951 29.5205 19.0951 31.2305C19.0951 32.9405 20.2366 34.3688 21.9466 34.0821C22.8 34.0821 23.0889 33.7957 23.6589 33.7957C27.3655 32.939 31.6415 32.3699 35.6315 32.3699C43.6149 32.3699 51.8813 34.3634 57.5847 37.5001C58.438 37.7834 58.7204 38.073 59.2904 38.073C61.0037 38.073 62.1451 36.9314 62.4284 35.2214C62.4284 33.7981 61.5793 32.9399 60.7227 32.3699C53.596 28.6632 44.4682 26.6667 35.6315 26.6667ZM35.0651 36.6472C30.2185 36.6472 26.7989 37.5028 23.3789 38.3595C21.9523 38.9295 21.3802 39.4979 21.3802 40.9246C21.3802 42.0646 22.2322 43.2032 23.6589 43.2032C24.2289 43.2032 24.5147 43.2034 25.0847 42.9167C27.6513 42.3467 31.072 41.7774 34.7787 41.7774C42.1887 41.7774 49.0336 43.4845 53.8802 46.6212C54.4502 46.9045 55.0225 47.1941 55.5925 47.1941C57.0158 47.1941 57.8676 46.0523 58.1576 44.629C58.1576 43.7757 57.5885 42.9203 56.7318 42.3503C50.4585 38.6437 43.0485 36.6472 35.0651 36.6472ZM35.918 46.6928C31.928 46.6928 28.2184 47.2619 24.5117 48.1186C23.3717 48.1186 22.806 48.9708 22.806 50.1108C22.806 51.2508 23.6582 52.1095 24.7982 52.1095C25.0849 52.1095 25.654 51.823 26.224 51.823C29.074 51.253 32.4949 50.6837 35.6315 50.6837C41.3315 50.6837 46.752 52.1079 51.0287 54.6746C51.5987 54.9579 51.8844 55.241 52.4544 55.241C53.3078 55.241 54.1631 54.6754 54.7331 53.2488C54.7331 52.1088 54.1638 51.8201 53.5938 51.2501C48.4604 48.4001 42.4747 46.6928 35.918 46.6928Z" fill="white"/>
</svg>
