<svg width="80" height="80" viewBox="0 0 80 80" fill="none" xmlns="http://www.w3.org/2000/svg">
<path d="M20 10C14.5168 10 10 14.5168 10 20V60C10 65.4832 14.5168 70 20 70H60C65.4832 70 70 65.4832 70 60V20C70 14.5168 65.4832 10 60 10H20ZM20 16.6667H60C61.8834 16.6667 63.3333 18.1166 63.3333 20V60C63.3333 61.8834 61.8834 63.3333 60 63.3333H20C18.1166 63.3333 16.6667 61.8834 16.6667 60V20C16.6667 18.1166 18.1166 16.6667 20 16.6667ZM40 23.3333V46.6667C40 48.5501 38.5501 50 36.6667 50C34.7832 50 33.3333 48.5501 33.3333 46.6667C33.3333 44.7832 34.7832 43.3333 36.6667 43.3333V36.6667C31.1834 36.6667 26.6667 41.1834 26.6667 46.6667C26.6667 52.1499 31.1834 56.6667 36.6667 56.6667C42.1499 56.6667 46.6667 52.1499 46.6667 46.6667V34.1081C48.7205 35.5711 50.8637 36.6667 53.3333 36.6667V30C53.1756 30 50.8756 29.2698 49.2708 27.8711C47.6661 26.4724 46.6667 24.7166 46.6667 23.3333H40Z" fill="white"/>
</svg>
