<svg width="80" height="80" viewBox="0 0 80 80" fill="none" xmlns="http://www.w3.org/2000/svg">
<path d="M40 13.3333C40 13.3333 19.1518 13.3331 13.9518 14.7265C11.0818 15.4931 8.82655 17.7517 8.05989 20.6184C6.66655 25.8184 6.66666 39.9999 6.66666 39.9999C6.66666 39.9999 6.66655 54.1814 8.05989 59.3814C8.82655 62.2514 11.0851 64.5067 13.9518 65.2734C19.1518 66.6667 40 66.6666 40 66.6666C40 66.6666 60.8482 66.6667 66.0482 65.2734C68.9148 64.5067 71.1734 62.2481 71.9401 59.3814C73.3334 54.1814 73.3333 39.9999 73.3333 39.9999C73.3333 39.9999 73.3334 25.8184 71.9401 20.6184C71.1734 17.7517 68.9148 15.4931 66.0482 14.7265C60.8482 13.3331 40 13.3333 40 13.3333ZM40 19.9999C49.6067 19.9999 61.6362 20.4453 64.3229 21.1653C64.8862 21.3153 65.348 21.777 65.5013 22.3437C66.3046 25.337 66.6667 34.4733 66.6667 39.9999C66.6667 45.5266 66.3046 54.6595 65.5013 57.6562C65.3513 58.2195 64.8896 58.6812 64.3229 58.8346C61.6396 59.5546 49.6067 59.9999 40 59.9999C30.3967 59.9999 18.3671 59.5546 15.6771 58.8346C15.1137 58.6846 14.652 58.2228 14.4987 57.6562C13.6954 54.6628 13.3333 45.5266 13.3333 39.9999C13.3333 34.4733 13.6954 25.3372 14.4987 22.3372C14.6487 21.7772 15.1104 21.3153 15.6771 21.1653C18.3604 20.4453 30.3933 19.9999 40 19.9999ZM33.3333 28.4504V51.5494L53.3333 39.9999L33.3333 28.4504Z" fill="white"/>
</svg>
